{"glyphs":{"0":{"ha":533,"x_min":45,"x_max":668,"o":"m 656 531 q 561 312 629 425 q 329 19 450 127 q 158 -52 248 -52 q 69 -15 96 -52 q 45 81 45 26 q 64 200 45 125 q 189 456 90 305 q 330 627 240 534 q 562 794 456 759 q 577 788 577 796 q 551 765 584 776 q 580 766 568 767 q 668 629 668 760 q 656 531 668 579 m 632 571 q 636 614 636 591 q 568 731 636 731 q 555 731 561 731 q 446 646 479 717 q 439 538 419 588 q 426 515 442 521 q 406 529 406 509 q 397 582 397 551 q 417 659 397 631 q 432 683 421 668 l 429 680 q 320 569 350 601 q 216 439 256 499 q 101 200 129 309 q 85 105 85 137 q 109 21 85 59 q 181 -2 127 -6 q 432 176 305 21 q 557 369 493 249 q 632 571 616 477 z "},"1":{"ha":347,"x_min":73,"x_max":535,"o":"m 533 769 q 526 752 535 763 q 510 731 520 744 q 120 -4 240 274 q 100 -22 117 -22 q 83 -15 94 -22 q 76 -4 73 -7 q 220 286 88 28 q 455 696 233 311 q 306 666 393 666 q 296 680 294 666 q 311 689 297 686 q 408 711 380 701 q 501 769 466 731 q 523 779 512 781 q 533 769 531 778 z "},"2":{"ha":697,"x_min":6,"x_max":808,"o":"m 804 704 q 808 669 808 686 q 766 544 808 624 q 407 148 644 314 q 419 141 410 146 q 566 14 492 78 q 733 -78 651 -58 q 745 -95 754 -78 q 724 -108 743 -115 q 547 -20 634 -94 q 399 110 473 45 q 374 126 386 120 q 337 102 358 115 q 198 22 245 45 q 51 -24 117 -18 q 6 18 6 -29 q 12 46 6 33 q 119 146 42 108 q 256 182 185 179 q 379 164 325 186 q 729 547 600 322 q 763 669 763 607 q 762 689 763 679 q 730 731 759 719 q 646 732 692 744 q 496 579 586 617 q 456 582 469 567 q 467 631 444 597 q 483 652 471 637 q 631 755 538 721 q 672 863 651 795 q 685 874 678 877 q 693 859 698 873 q 661 763 680 806 q 746 760 708 773 q 804 704 793 744 m 612 719 q 506 627 549 690 q 497 619 498 619 q 612 719 565 640 m 344 139 q 253 155 298 156 q 142 125 194 154 q 56 38 82 93 q 61 26 51 26 q 199 60 122 25 q 324 126 223 70 q 344 139 337 135 z "},"3":{"ha":594,"x_min":16,"x_max":704,"o":"m 702 711 q 586 554 694 637 q 681 417 681 522 q 638 271 681 349 q 296 -44 520 58 q 167 -74 231 -74 q 25 -8 64 -74 q 16 27 16 6 q 87 163 16 94 q 111 167 101 173 q 114 142 130 156 q 75 37 70 87 q 178 -34 81 -34 q 284 -9 230 -34 q 603 282 494 88 q 639 406 639 346 q 548 526 639 502 q 406 459 477 481 q 365 466 376 451 q 363 488 362 471 q 447 552 376 533 q 549 561 504 567 l 554 565 q 656 705 651 643 q 630 720 654 720 q 454 643 520 706 q 444 631 450 639 q 412 633 424 618 q 415 652 407 643 l 419 656 q 519 759 449 693 q 531 763 525 763 q 546 752 546 763 q 541 741 546 746 q 523 723 535 735 q 647 763 597 763 q 688 748 673 763 q 702 711 704 733 m 502 532 q 468 530 482 532 q 407 497 427 522 q 502 532 447 501 m 406 497 z "},"4":{"ha":643,"x_min":20,"x_max":719,"o":"m 709 294 q 700 266 719 280 q 572 239 641 239 q 470 252 525 239 q 397 106 415 143 q 344 -42 348 -1 q 333 -56 343 -48 q 319 -65 324 -64 q 300 -62 308 -68 q 293 -50 293 -56 q 356 107 303 13 q 439 260 385 157 q 354 290 396 275 q 267 308 303 308 q 129 273 195 308 q 77 240 114 262 q 48 225 49 225 q 29 236 32 225 q 37 258 20 251 l 68 276 q 141 321 91 291 q 358 467 290 410 q 520 669 469 559 q 529 736 535 702 q 477 765 521 771 l 470 764 l 470 765 q 464 772 463 765 q 470 782 465 782 q 500 790 484 790 q 560 750 545 790 q 556 656 578 703 q 245 344 486 496 q 345 330 296 347 q 457 295 409 306 q 631 629 516 410 q 649 639 635 644 q 658 617 669 637 q 489 289 602 508 q 565 281 529 281 q 684 305 629 281 q 709 294 698 312 z "},"5":{"ha":645,"x_min":21,"x_max":803,"o":"m 795 787 q 789 766 803 777 q 665 722 736 722 q 544 743 622 722 q 423 580 524 705 q 570 614 495 610 q 637 581 609 616 q 667 506 661 551 q 651 385 673 446 q 488 136 598 243 q 232 -17 377 29 q 146 -33 180 -33 q 99 -25 120 -33 q 21 121 21 5 q 48 243 21 190 q 143 313 81 308 q 211 294 180 316 q 239 239 242 273 q 222 217 237 216 q 209 224 213 218 q 210 239 209 225 q 191 274 212 262 q 144 283 170 286 q 76 228 102 280 q 55 136 55 185 q 78 53 55 94 q 126 18 94 26 q 225 21 177 5 q 407 112 347 63 q 620 457 620 288 q 618 496 620 477 q 568 564 610 559 q 536 566 552 566 q 375 520 469 566 q 351 527 361 511 q 355 546 346 535 q 521 758 420 615 q 556 774 537 781 q 652 757 604 757 q 776 791 720 757 q 795 787 790 799 z "},"6":{"ha":492,"x_min":27,"x_max":1006,"o":"m 996 955 q 989 938 1006 941 q 434 619 654 814 q 172 346 281 482 q 68 109 68 216 q 84 46 68 72 q 188 -9 119 -9 q 293 20 239 -9 q 413 160 416 88 q 381 181 412 181 q 137 29 237 176 q 114 25 121 18 q 112 43 106 34 q 183 133 139 96 q 392 221 298 229 q 451 192 438 218 q 456 164 456 180 q 418 72 456 111 q 308 -5 371 26 q 176 -40 238 -40 q 45 22 94 -40 q 27 100 27 57 q 146 364 27 210 q 465 683 278 531 q 982 958 669 849 q 996 955 994 964 z "},"7":{"ha":519,"x_min":71,"x_max":820,"o":"m 815 755 q 806 729 820 740 l 770 703 q 584 558 640 606 q 430 385 489 474 q 428 382 428 383 q 513 375 483 375 q 539 379 521 375 q 567 383 557 383 q 584 373 580 387 q 567 352 584 354 q 506 342 529 337 q 404 352 457 343 q 116 -197 181 60 q 88 -224 108 -228 q 74 -212 78 -223 q 75 -194 71 -203 q 206 109 107 -65 q 369 357 285 250 q 216 362 279 369 l 216 360 l 210 361 q 205 373 199 366 q 211 379 205 379 q 394 388 282 405 q 407 404 399 393 q 716 700 531 553 q 601 680 659 680 q 419 721 526 680 q 403 724 412 724 q 314 669 361 724 l 307 664 q 279 661 290 652 q 281 687 266 674 l 301 707 q 390 795 331 733 q 405 802 399 805 q 414 794 411 801 q 412 783 416 789 q 392 755 405 771 q 435 750 412 758 q 607 718 525 718 q 772 753 693 718 q 795 760 781 759 q 815 755 814 760 z "},"8":{"ha":400,"x_min":-10,"x_max":866,"o":"m 863 881 q 858 864 866 876 q 761 777 819 833 q 654 675 667 687 q 381 429 612 636 l 317 371 q 347 246 347 294 q 330 166 347 205 q 222 26 294 83 q 63 -46 148 -34 q 0 -20 22 -52 q -10 19 -10 -6 q 15 99 -10 65 q 278 379 106 226 q 246 530 243 470 q 313 708 252 620 q 441 788 369 788 q 481 778 462 788 q 529 666 529 750 q 526 648 531 657 q 514 629 526 632 q 493 635 506 622 q 480 707 483 699 q 422 744 465 746 q 320 657 366 736 q 277 507 277 582 q 304 403 277 473 q 361 454 322 419 q 634 700 450 534 q 844 882 702 764 q 863 881 859 892 m 302 310 q 290 346 295 332 q 191 249 246 307 q 111 166 116 170 q 45 81 75 126 q 29 26 29 56 q 69 -11 29 -11 q 155 25 104 -11 q 293 185 262 102 q 302 310 318 255 z "},"9":{"ha":375,"x_min":56,"x_max":623,"o":"m 620 719 q 619 716 620 719 q 612 703 618 714 q 331 201 471 452 q 85 -214 168 -91 q 69 -222 77 -222 q 56 -206 56 -222 q 64 -183 56 -194 q 466 498 213 62 q 322 396 416 452 q 211 367 273 367 q 127 429 125 367 q 371 702 131 565 q 539 754 463 754 q 581 747 563 754 q 589 739 589 746 q 570 725 589 719 q 484 719 541 738 q 330 644 392 687 q 200 521 268 600 q 170 437 169 485 q 203 406 174 415 q 315 422 258 388 q 594 723 499 533 q 599 732 595 726 q 610 739 602 739 q 623 729 623 739 q 620 719 623 724 z "}," ":{"ha":401,"x_min":0,"x_max":0,"o":""},"!":{"ha":561,"x_min":218,"x_max":632,"o":"m 631 735 q 568 600 611 684 q 491 456 529 529 q 316 129 389 259 q 289 113 305 108 q 278 123 278 118 q 283 141 278 133 q 299 162 289 148 q 416 389 327 208 q 583 746 521 602 q 594 759 584 753 q 611 765 605 766 q 632 743 632 763 q 631 735 632 739 m 273 1 q 261 -31 273 -17 q 232 -46 249 -46 q 218 -22 218 -46 q 232 11 218 -10 q 259 31 247 31 q 273 1 273 25 z "},"\"":{"ha":311,"x_min":288,"x_max":529,"o":"m 527 765 q 399 577 480 681 q 388 573 394 569 q 387 586 382 578 q 485 785 420 654 q 499 793 489 793 q 529 770 529 793 q 527 765 529 768 m 432 765 q 305 577 385 681 q 294 573 299 569 q 293 586 288 578 q 391 785 326 654 q 405 793 394 793 q 434 770 434 793 q 432 765 434 768 z "},"#":{"ha":542,"x_min":31,"x_max":674,"o":"m 657 564 l 636 559 q 525 543 583 553 l 455 410 q 510 420 470 414 l 568 428 q 582 416 582 430 q 563 394 582 397 l 510 387 q 434 372 491 384 q 366 247 417 342 q 232 4 324 168 q 210 -9 225 -9 q 196 2 196 -9 q 198 10 196 6 q 333 256 229 68 q 394 364 355 294 q 220 331 354 355 q 107 142 172 246 q 80 142 94 119 q 77 157 76 147 q 82 169 77 152 q 185 324 128 224 q 47 291 115 312 q 31 300 31 286 q 43 314 31 310 q 203 355 104 333 q 281 495 225 395 q 131 463 190 479 q 120 471 120 460 q 131 484 120 481 q 297 525 206 505 q 387 692 356 630 q 403 701 394 701 q 411 683 420 701 l 331 533 q 510 571 433 559 q 628 805 578 694 q 640 814 632 814 q 647 806 647 814 q 646 801 647 804 q 543 577 606 706 q 638 590 574 581 l 657 593 q 674 581 674 595 q 657 564 674 568 m 491 537 q 442 528 474 534 q 314 502 384 514 q 263 406 297 470 q 239 363 256 393 q 408 401 297 375 q 415 402 412 402 q 491 537 441 447 z "},"$":{"ha":460,"x_min":29,"x_max":519,"o":"m 512 625 q 455 561 500 581 q 439 561 447 559 q 426 569 431 563 q 419 592 417 577 q 429 607 422 607 q 441 597 438 607 q 453 591 444 587 q 483 642 483 612 q 456 679 483 667 q 413 675 434 681 q 305 391 397 634 q 337 244 337 290 q 321 168 337 204 q 175 43 288 89 q 123 -125 142 -57 q 108 -135 123 -138 q 101 -121 101 -135 q 148 33 120 -48 q 140 31 145 32 q 131 29 134 30 q 108 26 119 26 q 52 50 75 26 q 29 108 29 74 q 51 195 29 150 q 70 206 57 207 q 82 191 87 206 q 67 125 67 141 q 73 95 67 109 q 113 67 87 67 q 163 73 132 67 q 188 139 169 88 l 278 375 q 244 527 244 481 q 247 564 244 546 q 303 650 256 608 q 406 707 350 693 q 469 856 431 767 l 470 856 l 470 857 l 475 857 q 482 847 482 857 q 428 712 464 802 q 485 710 457 717 q 519 665 519 703 q 512 625 519 648 m 392 669 q 295 593 318 646 q 281 516 281 556 q 295 423 281 477 q 392 669 352 571 m 288 343 q 208 132 262 273 l 189 81 q 286 154 263 109 q 306 239 306 193 q 288 343 306 281 z "},"%":{"ha":767,"x_min":86,"x_max":967,"o":"m 958 830 l 932 801 l 899 767 q 125 -132 530 387 q 98 -140 112 -149 q 94 -119 86 -133 q 433 290 203 20 q 762 659 544 414 q 661 598 727 632 q 462 526 521 526 q 409 535 433 526 q 193 424 305 424 q 168 426 181 424 q 143 440 155 428 q 128 474 128 455 q 133 497 128 485 q 429 697 215 624 q 469 711 450 712 q 502 687 494 710 q 497 656 506 672 q 432 562 469 607 q 473 557 452 557 q 702 649 568 557 q 914 822 771 697 l 938 848 q 956 848 947 857 q 958 830 967 838 m 672 308 q 671 304 673 306 q 656 293 662 296 q 674 224 674 264 q 656 144 674 183 q 481 -10 588 -11 q 447 0 458 -10 q 442 58 427 18 q 633 289 490 194 q 637 302 631 294 q 651 300 644 305 q 659 305 654 302 q 667 309 664 307 q 672 308 670 312 m 475 667 q 473 681 478 677 q 444 681 460 692 q 391 603 391 645 q 407 574 391 584 q 475 667 446 619 m 394 669 q 166 507 264 618 q 163 467 152 483 q 202 453 170 456 q 383 549 304 467 q 364 593 364 561 q 381 653 364 627 q 394 669 386 661 m 638 278 q 469 52 503 168 q 477 29 467 37 q 510 29 485 21 q 608 106 569 51 q 647 222 647 160 q 638 278 647 251 z "},"&":{"ha":983,"x_min":129,"x_max":1119,"o":"m 1119 527 q 1053 336 1119 414 q 880 257 984 257 q 757 291 827 257 q 644 339 672 332 q 686 240 686 302 q 659 142 686 177 q 319 -49 506 -58 q 188 -2 244 -45 q 129 108 129 44 q 134 148 129 128 q 197 269 155 219 q 287 345 224 299 q 456 439 374 410 q 405 519 405 459 q 411 561 405 539 q 504 702 435 649 q 660 755 572 755 q 725 737 696 755 q 754 690 754 719 q 687 597 754 640 q 602 573 649 573 q 557 604 569 573 q 561 629 554 613 q 584 644 568 644 q 617 619 592 622 q 675 630 650 616 q 706 649 699 644 q 726 681 719 661 q 727 690 727 686 q 653 728 727 728 q 518 682 576 728 q 439 559 460 636 q 437 544 437 552 q 462 490 437 513 q 533 459 489 464 q 544 448 544 458 q 531 432 544 435 q 301 326 401 403 q 225 259 245 283 q 174 156 193 220 q 169 119 169 137 q 216 31 169 66 q 323 -6 258 -2 q 637 154 509 -18 q 660 240 660 184 q 604 345 660 320 l 594 345 q 455 267 467 345 q 498 212 447 217 q 527 218 518 210 q 542 240 530 220 q 553 243 546 247 q 557 230 559 239 q 491 168 544 168 q 438 192 458 168 q 419 259 417 217 q 479 342 422 309 q 594 371 530 371 q 746 336 652 371 q 881 301 840 301 q 1033 364 976 301 q 1091 527 1091 428 q 1062 584 1091 554 q 1007 614 1032 614 q 880 507 880 614 q 938 467 880 467 q 988 494 965 467 q 997 500 993 500 q 1008 482 1008 500 q 982 443 1008 463 q 937 423 956 423 q 876 446 902 423 q 851 502 851 469 q 894 616 851 574 q 1007 655 937 658 q 1088 607 1054 652 q 1119 527 1119 567 z "},"'":{"ha":221,"x_min":288,"x_max":434,"o":"m 432 765 q 305 577 385 681 q 294 573 299 569 q 293 586 288 578 q 391 785 326 654 q 405 793 394 793 q 434 770 434 793 q 432 765 434 768 z "},"(":{"ha":282,"x_min":33,"x_max":419,"o":"m 414 760 q 340 690 385 736 q 173 456 255 602 q 94 270 118 357 q 70 100 70 187 q 118 -94 70 -49 q 122 -105 122 -98 q 106 -120 122 -120 q 95 -116 100 -120 q 33 100 33 -51 q 58 278 33 184 q 150 470 76 345 q 325 702 231 607 q 404 772 354 728 q 409 774 406 774 q 417 769 414 774 q 414 760 419 763 z "},")":{"ha":282,"x_min":-89,"x_max":296,"o":"m 296 565 q 271 387 296 481 q 180 194 254 319 q 5 -37 99 57 q -74 -107 -24 -63 q -80 -109 -76 -109 q -87 -104 -84 -109 q -84 -95 -89 -98 q -10 -25 -56 -71 q 156 208 75 63 q 236 394 212 307 q 259 565 259 478 q 212 758 259 714 q 207 769 207 763 q 223 785 207 785 q 234 781 230 785 q 296 565 296 716 z "},"*":{"ha":404,"x_min":191,"x_max":525,"o":"m 518 728 q 393 641 475 692 q 445 623 416 632 q 479 608 471 615 q 495 580 487 602 q 491 563 499 571 q 473 555 482 555 q 464 561 466 555 q 424 587 456 576 q 368 606 399 593 l 316 485 q 300 474 311 474 q 291 487 286 474 l 335 606 q 236 543 269 565 l 219 525 q 203 517 210 517 q 191 529 191 517 q 198 544 191 537 l 217 563 q 317 627 246 585 q 244 697 259 663 q 249 711 242 704 q 263 718 256 718 q 269 713 269 718 q 302 683 277 696 q 345 660 323 671 q 354 656 348 659 q 397 769 373 702 q 419 784 402 784 q 428 773 431 784 q 394 671 422 747 q 502 746 457 711 q 514 751 508 751 q 525 741 525 751 q 518 728 525 734 z "},"+":{"ha":423,"x_min":136,"x_max":509,"o":"m 491 302 q 365 301 443 302 q 331 301 365 301 q 322 267 328 290 q 292 156 317 244 q 270 137 286 137 q 258 155 256 137 q 286 267 269 196 q 294 300 291 285 l 266 300 q 208 300 251 300 q 155 301 166 301 q 136 317 136 301 q 154 334 136 331 q 266 336 195 335 q 303 337 306 337 q 309 365 304 340 q 341 483 323 416 q 366 510 347 510 q 381 492 382 510 q 348 366 368 443 q 341 338 344 349 q 352 338 344 338 q 364 339 360 339 q 482 340 415 339 q 509 322 509 341 q 491 302 509 306 z "},",":{"ha":197,"x_min":18,"x_max":144,"o":"m 144 51 q 107 -13 144 38 q 24 -111 68 -69 q 24 -101 18 -107 q 75 -24 52 -69 q 93 22 94 14 q 131 78 84 65 q 144 51 144 81 z "},"-":{"ha":423,"x_min":136,"x_max":439,"o":"m 420 333 q 310 332 380 333 q 221 331 247 331 q 186 332 206 331 q 155 332 166 332 q 136 348 136 332 q 155 365 136 363 q 221 368 173 367 q 309 370 247 369 q 412 371 353 370 q 439 354 439 372 q 420 333 439 337 z "},".":{"ha":197,"x_min":81,"x_max":144,"o":"m 144 51 q 128 20 144 40 q 104 0 112 0 q 85 12 86 0 q 95 51 81 30 q 131 78 109 72 q 144 51 144 81 z "},"/":{"ha":552,"x_min":129,"x_max":819,"o":"m 815 752 q 635 520 743 657 q 316 112 531 385 q 164 -74 256 38 q 149 -81 157 -81 q 129 -62 129 -81 q 133 -50 129 -56 l 285 137 q 606 543 389 271 q 789 771 621 561 q 802 778 794 778 q 819 762 819 778 q 815 752 819 756 z "},":":{"ha":197,"x_min":81,"x_max":219,"o":"m 219 231 q 203 200 219 220 q 179 181 187 181 q 160 193 161 181 q 170 231 156 210 q 206 258 184 253 q 219 231 219 262 m 144 51 q 128 20 144 40 q 104 0 112 0 q 85 12 86 0 q 95 51 81 30 q 131 78 109 72 q 144 51 144 81 z "},";":{"ha":197,"x_min":18,"x_max":212,"o":"m 212 231 q 196 200 212 220 q 171 181 180 181 q 153 193 154 181 q 163 231 149 210 q 198 258 177 253 q 212 231 212 262 m 144 51 q 107 -13 144 38 q 24 -111 68 -69 q 24 -101 18 -107 q 75 -24 52 -69 q 93 22 94 14 q 131 78 84 65 q 144 51 144 81 z "},"<":{"ha":570,"x_min":112,"x_max":662,"o":"m 656 523 q 283 316 532 455 q 183 259 256 301 q 209 254 195 256 q 319 224 245 244 q 513 183 394 209 q 528 169 520 181 q 519 154 529 159 q 503 150 514 149 q 311 192 434 164 q 191 220 272 202 q 130 236 189 220 q 112 253 112 241 q 131 277 112 267 l 263 348 q 644 543 392 408 q 650 544 646 544 q 662 532 662 544 q 656 523 662 527 z "},"=":{"ha":423,"x_min":95,"x_max":509,"o":"m 491 350 q 365 349 443 350 q 266 348 302 348 q 208 349 251 348 q 155 349 166 349 q 136 365 136 349 q 154 382 136 380 q 266 384 195 383 q 364 387 297 385 q 482 388 415 387 q 509 370 509 389 q 491 350 509 354 m 450 241 q 324 240 402 241 q 225 239 261 239 q 169 239 210 239 q 114 240 125 240 q 95 256 95 240 q 113 273 95 270 q 225 275 155 274 q 323 278 256 276 q 442 279 374 278 q 469 261 469 280 q 450 241 469 244 z "},">":{"ha":570,"x_min":73,"x_max":623,"o":"m 606 406 q 623 390 623 402 q 605 366 623 376 l 472 294 q 92 100 344 234 q 85 98 89 98 q 73 110 73 98 q 79 119 73 116 q 452 327 203 188 q 552 383 479 342 q 526 389 524 389 q 416 419 490 399 q 222 459 343 434 q 207 473 216 462 q 217 489 206 483 q 232 493 221 494 q 424 451 301 479 q 544 422 463 441 q 606 406 546 422 z "},"?":{"ha":561,"x_min":218,"x_max":687,"o":"m 687 684 q 606 532 687 620 q 488 420 578 501 q 378 305 414 354 q 325 195 347 264 q 299 106 312 151 q 272 88 297 90 q 258 94 265 87 q 254 107 252 102 q 416 391 294 276 q 573 527 494 458 q 654 685 655 607 q 578 729 653 731 q 453 693 524 728 q 420 674 442 686 q 336 562 392 630 l 328 552 q 307 547 319 541 q 306 570 295 555 l 316 592 q 406 692 344 650 q 454 769 409 696 q 465 780 460 780 q 473 769 480 780 q 463 748 473 769 q 445 713 457 737 q 502 741 474 727 q 566 756 534 755 q 649 749 622 760 q 687 684 687 732 m 273 1 q 261 -31 273 -17 q 232 -46 249 -46 q 218 -22 218 -46 q 232 11 218 -10 q 259 31 247 31 q 273 1 273 25 z "},"@":{"ha":976,"x_min":48,"x_max":1032,"o":"m 1024 551 q 887 333 984 422 q 656 235 781 235 q 609 264 620 235 q 606 320 600 288 q 406 216 498 233 q 358 210 369 208 q 327 252 324 216 q 466 403 332 319 q 713 497 583 476 q 734 489 734 501 q 731 486 733 487 q 517 414 610 465 q 367 271 409 356 q 365 263 365 267 q 386 249 365 249 q 432 257 404 249 q 628 370 545 292 q 681 433 646 392 q 697 441 691 443 q 707 422 708 438 l 701 414 q 650 358 683 396 q 638 302 635 340 q 649 280 639 288 q 719 268 678 256 q 913 394 836 299 q 994 609 989 488 q 964 698 996 656 q 889 756 933 737 q 756 781 829 781 q 660 770 709 781 q 323 627 465 731 q 101 344 167 514 q 81 236 81 291 q 131 80 81 149 q 379 -24 207 -24 q 826 121 661 -24 q 845 123 838 131 q 846 105 855 113 q 640 -19 769 27 q 382 -65 515 -65 q 234 -48 304 -65 q 95 54 146 -27 q 48 222 48 128 q 166 507 48 361 q 373 688 260 624 q 781 811 593 811 q 915 789 856 811 q 1000 718 967 769 q 1032 608 1032 668 q 1024 551 1032 579 z "},"A":{"ha":725,"x_min":37,"x_max":919,"o":"m 914 703 q 666 309 776 488 q 612 193 630 250 q 586 84 586 106 q 607 30 586 49 q 628 22 616 22 q 782 100 690 22 q 786 102 784 101 q 791 100 789 101 q 792 89 799 96 q 606 -21 678 -21 q 545 19 561 -21 q 540 60 540 38 q 561 179 540 78 q 687 414 627 322 q 616 339 657 379 q 529 251 564 290 q 342 87 464 180 q 227 0 229 1 q 94 -37 162 -41 q 53 -12 69 -36 q 41 41 37 12 q 369 506 71 259 q 666 686 470 589 q 810 729 752 729 q 831 718 831 729 q 819 705 831 703 q 674 663 774 711 q 419 506 533 594 q 216 318 284 402 q 93 77 130 212 q 91 62 91 69 q 105 30 91 42 q 132 19 119 19 q 228 46 183 22 q 323 112 258 62 q 506 271 447 207 q 705 485 606 379 q 888 707 817 608 q 907 719 896 725 q 914 703 919 711 z "},"B":{"ha":553,"x_min":18,"x_max":656,"o":"m 656 701 q 643 660 656 683 q 450 496 563 568 q 606 403 588 496 q 606 374 606 389 q 561 188 606 281 q 443 36 515 94 q 184 -66 316 -66 q 53 -22 107 -66 q 18 73 18 14 q 26 127 18 99 q 162 236 47 198 q 313 468 252 385 l 344 510 q 498 731 396 584 q 173 633 334 633 q 125 635 150 633 q 119 642 119 635 q 125 649 119 649 q 538 791 327 643 l 547 797 l 549 798 q 560 798 555 801 q 565 788 566 794 q 559 776 564 783 q 482 669 534 739 q 612 731 546 719 q 643 725 629 734 q 656 701 656 717 m 608 666 q 607 684 612 676 q 594 690 603 692 q 460 617 520 675 q 358 487 418 576 l 355 481 q 383 489 364 483 q 517 577 448 522 q 569 617 543 597 q 608 666 594 637 m 572 392 q 461 464 568 464 q 386 455 424 464 q 346 442 373 451 l 338 439 q 329 440 335 438 q 207 235 269 337 q 77 41 137 119 l 69 32 l 80 19 q 201 -21 131 -21 q 422 68 315 -21 q 537 215 495 129 q 572 392 578 302 m 137 194 q 61 83 56 152 l 62 70 q 137 194 87 111 z "},"C":{"ha":580,"x_min":40,"x_max":805,"o":"m 805 838 q 801 832 802 832 q 643 744 747 807 q 638 739 641 742 q 633 736 634 737 q 658 672 658 711 q 624 594 658 628 q 537 545 576 546 q 517 561 522 545 q 516 587 511 574 q 594 730 529 667 q 564 736 581 736 q 467 703 516 736 q 189 420 298 590 q 80 119 80 251 q 107 31 80 61 q 231 -17 157 -22 q 536 196 385 -5 q 552 197 543 205 q 551 182 556 193 q 422 34 494 96 q 232 -57 324 -51 q 92 -20 141 -64 q 40 109 40 25 q 64 241 40 166 q 444 716 150 516 q 570 760 510 760 q 617 749 597 760 q 799 840 691 810 q 805 838 801 842 m 621 635 q 631 668 631 651 q 611 717 631 693 q 553 610 572 679 q 554 595 550 602 q 565 590 558 589 q 621 635 600 601 z "},"D":{"ha":929,"x_min":6,"x_max":1001,"o":"m 980 594 q 1001 484 1001 546 q 893 168 1001 323 q 754 34 839 90 q 558 -31 655 -31 q 495 -23 526 -31 q 373 20 494 -23 q 140 -94 268 -72 q 30 -82 60 -106 q 6 -31 6 -63 q 29 25 6 1 q 181 81 81 81 q 283 69 224 81 q 356 51 317 63 q 500 225 437 120 q 606 421 513 245 q 657 529 621 452 q 564 513 608 513 q 495 524 527 513 q 434 587 433 545 q 532 714 436 661 q 712 763 617 759 q 882 715 808 767 q 980 594 947 669 m 945 585 q 701 731 860 744 q 561 693 631 725 q 471 594 471 651 q 517 548 471 560 q 569 542 540 542 q 671 561 624 542 q 715 661 696 616 q 727 668 718 669 q 736 657 736 667 q 734 651 736 655 q 702 576 723 625 q 745 619 732 594 q 762 630 749 630 q 770 616 773 629 q 732 564 769 585 q 686 540 709 550 q 586 319 621 388 q 444 96 528 208 q 392 38 419 65 q 471 12 453 17 q 557 -1 517 -1 q 681 30 621 -2 q 895 240 815 101 q 967 483 967 364 q 945 585 967 545 m 334 33 q 199 56 263 56 q 129 50 165 56 q 57 11 75 42 q 48 -18 48 -4 q 71 -50 48 -40 q 119 -58 91 -58 q 264 -16 194 -58 q 334 33 306 10 z "},"E":{"ha":617,"x_min":48,"x_max":854,"o":"m 851 864 q 844 853 854 855 q 694 771 764 844 q 755 699 750 753 q 739 665 755 679 q 683 643 705 643 q 656 647 670 643 q 628 713 614 662 q 643 744 632 724 q 573 733 599 746 q 363 504 363 629 q 372 454 363 479 q 506 497 444 492 q 587 466 565 503 q 593 436 595 455 q 579 411 589 421 q 466 365 534 365 q 361 409 400 365 q 139 221 228 334 q 94 95 94 164 q 126 -1 94 42 q 220 -28 152 -28 q 250 -25 238 -28 q 456 70 361 4 q 620 207 489 94 q 635 208 625 214 q 634 194 639 199 q 191 -66 393 -66 q 128 -53 161 -66 q 85 -29 94 -41 q 48 82 48 22 q 206 342 48 222 q 344 437 294 408 q 331 496 331 464 q 377 623 331 564 q 563 761 444 710 q 667 777 613 782 q 832 869 731 844 q 851 864 849 872 m 722 712 q 669 742 708 736 l 668 741 q 655 702 655 723 q 681 671 655 677 q 720 687 701 668 q 722 712 730 699 m 545 441 q 534 456 543 454 q 442 449 487 469 q 389 424 425 443 q 464 394 420 394 q 538 421 505 394 q 545 441 546 429 z "},"F":{"ha":495,"x_min":1,"x_max":796,"o":"m 795 779 q 771 747 794 758 q 627 703 715 719 q 615 701 617 701 q 507 539 561 639 q 419 374 419 374 q 610 429 465 393 l 618 431 q 631 431 626 432 q 636 423 637 429 q 634 413 637 419 l 624 397 q 602 363 613 381 q 582 309 585 334 q 582 290 582 290 q 573 277 581 285 q 556 282 558 273 q 554 303 554 292 q 579 394 554 342 q 392 331 496 378 q 370 305 384 322 q 220 104 295 205 q 37 -74 126 -14 q 24 -80 30 -80 q 5 -72 9 -80 q 5 -57 1 -65 q 259 294 81 183 q 374 356 309 326 q 417 423 390 379 q 493 561 419 427 q 581 696 540 647 q 462 691 538 692 q 343 687 381 691 q 122 605 211 676 q 111 601 112 601 q 109 609 107 605 q 294 711 165 677 q 419 727 346 725 q 543 731 481 729 q 622 739 593 734 q 710 796 661 774 q 755 806 730 806 q 795 779 796 806 m 749 776 q 715 771 733 781 q 659 744 697 766 q 749 776 754 762 m 342 309 q 274 270 306 290 q 66 -6 137 186 q 119 41 98 17 q 237 174 201 131 q 342 309 295 244 z "},"G":{"ha":787,"x_min":-117,"x_max":953,"o":"m 952 535 q 904 485 949 505 q 755 238 807 313 q 555 30 663 110 q 469 -14 523 6 q 357 -39 407 -36 q 188 15 237 -45 q 149 96 161 47 q -100 -39 12 7 q -106 -40 -103 -40 q -117 -29 -117 -40 q -111 -19 -117 -22 q 144 122 0 33 q 143 160 143 141 q 181 361 143 243 q 197 394 184 369 q 221 404 206 411 q 231 394 228 403 l 238 344 q 288 216 250 261 q 387 281 320 237 q 563 401 517 368 q 724 531 661 471 q 695 619 694 569 q 739 731 697 676 q 835 810 777 780 q 878 818 856 821 q 917 761 920 809 q 851 631 913 702 q 765 538 821 596 q 839 508 795 508 q 889 520 865 508 q 927 554 910 553 q 945 549 937 555 q 952 535 953 544 m 869 728 q 857 771 884 764 q 819 758 846 774 q 731 617 728 699 q 749 556 731 582 q 869 728 836 645 m 866 480 q 844 479 855 479 q 741 515 782 479 q 404 262 597 379 q 305 199 363 237 q 384 173 339 173 q 513 206 431 173 q 526 201 522 210 q 520 186 530 192 q 376 140 444 140 q 274 179 317 140 q 230 149 259 169 q 186 120 201 130 q 196 81 191 95 q 267 18 210 41 q 373 2 318 -3 q 466 23 413 6 q 537 56 516 41 q 729 252 647 140 q 866 480 778 321 m 257 195 q 201 327 211 250 q 182 146 171 236 q 257 195 207 162 z "},"H":{"ha":678,"x_min":24,"x_max":1115,"o":"m 1108 797 q 1097 777 1115 792 q 810 428 962 665 q 831 437 818 431 q 847 435 839 439 q 844 420 849 432 q 784 391 824 410 q 722 299 767 365 q 526 -42 594 107 q 490 -68 513 -70 q 479 -44 469 -65 q 494 -12 488 -23 q 553 311 559 185 q 506 314 524 309 q 232 -18 371 88 q 114 -69 165 -69 q 24 19 24 -69 q 44 109 24 60 q 57 121 44 121 q 67 107 70 121 q 68 11 59 36 q 122 -18 77 -18 q 146 -14 134 -18 q 387 194 270 23 q 476 323 417 237 q 473 324 475 324 q 435 378 435 342 q 454 419 435 399 q 508 439 472 440 q 540 430 525 439 q 611 593 587 515 q 623 665 623 632 q 592 756 623 718 q 504 790 563 790 q 397 752 447 790 q 388 750 391 748 q 388 762 379 755 q 517 814 437 814 q 635 762 603 814 q 659 681 659 723 q 648 613 659 650 q 561 408 618 510 q 574 380 570 394 q 580 350 578 365 q 687 381 629 356 q 755 408 727 398 q 900 612 848 547 q 1088 794 991 724 q 1108 797 1102 801 m 525 405 q 513 409 519 409 q 484 398 492 409 q 481 373 477 386 q 496 356 484 360 q 525 405 510 376 m 552 346 q 551 364 553 354 q 545 381 549 374 q 531 356 541 372 q 526 347 530 354 l 528 347 q 552 346 535 346 m 726 364 q 581 316 641 326 q 564 119 585 202 q 691 314 615 202 q 726 364 702 330 z "},"I":{"ha":586,"x_min":6,"x_max":841,"o":"m 829 782 q 704 513 791 660 q 518 254 619 370 q 491 -94 483 110 q 474 -115 492 -115 q 456 -102 461 -115 q 456 81 446 -65 q 469 206 460 156 q 116 -30 272 19 q 76 -35 98 -35 q 14 -12 27 -35 q 6 22 6 3 q 27 84 6 54 q 81 127 48 115 q 159 146 123 143 q 178 137 173 150 q 164 120 178 124 q 123 109 144 115 q 74 81 91 99 q 53 37 53 59 q 66 11 53 21 q 130 6 95 -6 q 479 255 291 67 q 515 374 494 318 q 804 803 624 660 q 819 808 813 809 q 829 782 841 806 m 781 750 q 536 319 616 569 q 781 750 731 564 z "},"J":{"ha":445,"x_min":-203,"x_max":541,"o":"m 533 115 q 480 67 516 97 q 313 -34 444 42 q 207 -266 260 -150 q 75 -483 143 -401 q -132 -644 -14 -590 q -151 -646 -143 -646 q -203 -570 -203 -646 q -188 -505 -203 -536 q 84 -147 -81 -282 q 282 -19 129 -111 q 296 12 290 -2 q 428 369 390 232 q 449 507 449 447 q 435 601 449 556 q 337 703 410 680 q 304 706 321 706 q 122 647 222 706 q 12 560 42 600 q -6 509 -6 536 q 7 488 -6 492 q 124 496 65 472 q 129 495 127 497 q 128 491 131 494 q 29 456 84 456 q -8 461 9 456 q -44 507 -52 472 q 242 737 -10 652 q 337 744 289 753 q 478 535 478 719 q 334 10 478 319 q 436 67 365 28 q 524 126 486 94 q 528 127 526 127 q 532 126 531 127 q 533 115 541 122 m 263 -64 q 100 -166 133 -139 q -42 -315 16 -233 q -146 -491 -68 -352 q -152 -583 -173 -538 q -133 -593 -146 -595 q 82 -403 -10 -542 q 263 -64 174 -264 z "},"K":{"ha":485,"x_min":-54,"x_max":894,"o":"m 893 879 q 782 707 856 804 q 663 572 715 620 q 403 387 509 431 q 408 307 410 354 q 390 106 403 191 q 365 -76 371 -12 q 354 -213 354 -181 q 405 -357 354 -312 q 408 -371 414 -364 q 396 -372 405 -376 q 319 -179 315 -319 q 354 95 320 -110 q 381 323 381 259 q 376 377 381 355 q 356 371 369 374 q 235 166 260 204 q 83 -16 162 53 q 7 -44 50 -44 q -54 34 -54 -44 q -40 104 -54 69 q -25 119 -38 114 q -14 105 -7 119 q 22 7 -21 18 q 116 63 59 -1 q 318 367 214 174 q 276 402 273 370 q 293 436 278 422 q 360 443 319 460 q 418 548 377 472 q 507 755 496 695 q 506 760 508 759 q 497 760 503 761 q 385 711 476 756 q 381 710 383 710 q 369 721 369 710 q 375 732 369 727 q 510 802 421 764 q 538 804 524 807 q 553 780 556 799 q 449 540 544 724 q 385 423 430 503 q 392 414 389 418 q 496 475 440 432 q 598 556 547 516 q 869 881 737 667 q 885 891 876 891 q 894 883 894 891 q 893 879 894 881 m 348 421 q 312 407 315 433 q 336 400 311 400 q 348 421 337 402 z "},"L":{"ha":523,"x_min":31,"x_max":891,"o":"m 891 -103 q 851 -197 891 -156 q 758 -238 811 -238 q 624 -212 677 -238 q 531 -144 593 -196 q 459 -70 503 -119 q 388 5 413 -19 q 307 82 363 31 q 231 15 290 65 q 112 -54 153 -54 q 52 -27 74 -54 q 31 41 31 -1 q 81 132 31 96 q 194 167 130 167 q 311 129 260 167 q 376 208 348 169 q 505 404 441 300 q 406 387 448 387 q 286 416 341 387 q 216 499 224 447 q 227 513 214 513 q 239 503 237 513 q 408 428 252 428 q 534 453 465 428 q 594 554 573 515 q 685 674 628 619 q 811 740 754 740 q 869 689 869 740 q 841 618 869 654 q 789 566 831 605 q 551 419 694 477 q 399 190 492 321 q 333 109 368 144 q 407 27 358 81 q 549 -120 452 -24 q 628 -175 601 -164 q 745 -192 668 -192 q 827 -170 791 -192 q 867 -107 867 -146 q 842 -80 867 -80 q 790 -117 795 -80 q 786 -134 789 -123 q 774 -142 783 -144 q 766 -126 764 -138 l 768 -112 q 842 -38 778 -38 q 877 -60 863 -38 q 891 -103 891 -81 m 833 673 q 801 698 833 698 q 694 644 750 698 q 619 540 650 599 q 581 470 606 517 q 771 584 699 519 q 813 621 792 603 q 833 673 833 644 m 283 100 q 183 128 239 128 q 56 41 56 128 q 115 -13 56 -13 q 214 38 150 -13 q 283 100 242 60 z "},"M":{"ha":721,"x_min":-72,"x_max":775,"o":"m 770 458 q 706 294 757 401 q 638 128 652 181 q 631 56 631 100 q 670 -91 631 -55 q 685 -116 691 -103 q 669 -126 681 -124 q 653 -124 663 -127 q 601 21 601 -96 q 616 139 601 86 q 712 391 635 209 q 731 471 731 436 q 721 494 731 492 q 637 454 697 498 q 538 361 576 409 q 402 149 457 258 q 326 3 377 101 q 296 -25 314 -25 q 292 -24 294 -25 q 288 6 279 -17 q 297 28 293 15 q 343 114 313 56 q 552 583 455 336 q 567 644 567 622 q 550 657 567 657 q 448 621 511 657 q 327 522 379 581 q 228 319 276 412 q 67 -14 174 204 q 51 -29 65 -20 q 35 -32 46 -33 q 19 -28 23 -32 q 20 -6 7 -19 q 325 586 133 193 q 419 868 419 778 q 407 913 419 896 q 302 950 386 945 q 31 831 156 957 q -22 727 -22 776 q -19 702 -22 714 q 36 674 -4 674 q 77 682 56 674 q 88 674 86 683 q 81 663 89 668 q -5 644 30 644 q -65 674 -48 644 q -72 705 -72 688 q -24 807 -72 747 q 131 940 38 884 q 307 991 218 991 q 439 941 393 991 q 453 884 453 919 q 370 620 453 821 q 356 587 362 599 q 567 712 456 687 q 614 701 606 721 q 619 672 619 688 q 602 602 619 648 q 485 333 579 541 q 592 457 581 446 q 726 541 660 526 q 736 542 731 542 q 770 505 764 542 q 770 458 775 479 z "},"N":{"ha":541,"x_min":29,"x_max":725,"o":"m 707 641 q 604 363 683 535 q 484 85 508 155 q 458 -56 458 8 q 523 -199 458 -156 q 527 -218 531 -204 q 505 -228 517 -233 q 446 -169 476 -229 q 423 -63 423 -123 q 431 12 423 -27 q 550 324 455 117 q 669 636 645 531 q 659 722 684 707 q 643 717 652 725 q 523 594 592 672 q 279 294 431 487 q 239 237 269 280 q 167 129 191 166 q 91 -3 116 50 q 64 -23 80 -25 q 54 -5 48 -21 q 59 12 56 2 q 290 431 136 149 q 379 680 379 601 q 357 751 379 722 q 280 779 323 779 q 112 696 201 779 q 81 637 81 668 q 99 605 81 618 q 138 593 117 593 q 156 596 149 593 q 216 626 180 607 q 228 621 224 630 q 224 611 231 615 q 159 569 204 591 q 107 556 133 556 q 51 576 73 556 q 30 628 29 596 q 78 721 31 680 q 288 812 180 812 q 392 768 356 812 q 411 692 411 737 q 278 337 411 586 q 600 724 394 487 q 646 769 620 748 q 691 780 669 786 q 706 763 699 777 q 707 641 725 720 z "},"O":{"ha":441,"x_min":33,"x_max":782,"o":"m 778 759 q 731 710 766 734 q 693 680 719 700 q 665 526 698 607 q 514 250 601 371 q 183 -11 385 71 q 110 -28 144 -28 q 49 5 64 -28 q 33 74 33 37 q 67 204 33 129 q 406 648 193 486 q 405 661 405 655 q 456 749 405 712 q 577 792 517 794 q 670 750 644 790 q 690 701 684 729 q 761 765 729 730 q 772 770 768 771 q 778 759 782 769 m 598 757 q 567 763 584 761 q 494 743 529 767 q 451 680 453 714 q 598 757 520 727 m 655 676 q 643 726 652 706 q 619 750 636 741 q 456 658 538 718 q 538 630 474 629 q 604 646 573 631 q 655 676 631 661 m 656 652 q 538 603 595 607 q 418 628 446 595 q 259 463 344 569 q 127 253 194 381 q 80 80 80 161 q 95 28 80 41 q 137 16 111 16 q 198 31 165 16 q 488 267 377 108 q 655 636 622 457 q 656 652 656 641 z "},"P":{"ha":593,"x_min":-16,"x_max":729,"o":"m 718 716 q 729 644 729 683 q 694 510 729 575 q 573 344 642 417 q 336 228 461 227 q 245 262 280 228 q 182 155 223 223 q 121 60 141 86 q 48 -21 85 8 q 24 -30 36 -31 q 6 -19 13 -29 q 6 86 -16 18 q 18 92 8 95 q 25 81 23 89 q 34 21 23 30 q 52 29 39 18 q 138 131 100 70 q 230 283 184 204 q 219 366 211 317 q 250 425 223 397 q 309 450 278 453 q 319 448 316 449 q 418 635 352 510 q 494 778 442 683 q 344 722 435 768 q 230 636 262 681 q 215 596 209 607 q 210 589 215 591 q 204 590 206 586 q 212 644 194 612 q 324 741 237 693 q 520 819 442 806 q 591 894 562 882 q 605 888 602 897 q 596 874 607 880 q 550 822 572 857 q 619 815 584 825 q 718 716 690 794 m 676 539 q 696 631 696 585 q 673 716 696 679 q 594 777 643 765 q 529 782 566 784 q 519 764 526 778 q 345 435 453 623 q 382 384 369 418 q 378 369 386 375 q 361 376 369 364 q 332 411 352 388 l 268 299 q 354 265 295 269 q 528 345 429 260 q 676 539 628 430 m 306 421 q 266 400 283 421 q 247 356 248 380 q 253 324 247 345 l 306 421 z "},"Q":{"ha":549,"x_min":21,"x_max":700,"o":"m 688 733 q 700 654 700 698 q 637 419 700 552 q 524 244 584 311 q 288 44 412 121 q 319 -9 306 21 q 319 -85 329 -47 q 472 26 365 -50 q 588 111 529 63 q 602 112 595 117 q 602 99 610 106 q 489 11 521 31 q 310 -131 472 1 q 241 -281 289 -210 q 121 -396 188 -356 q 86 -398 95 -404 q 78 -381 78 -394 q 88 -345 78 -368 q 275 -116 170 -209 q 281 -30 290 -57 q 256 26 269 4 q 75 -38 142 -38 q 26 -4 35 -38 q 44 47 21 15 q 167 105 91 105 q 270 63 223 105 q 502 261 383 129 q 600 407 555 319 q 658 556 643 490 q 675 660 675 626 q 648 741 675 711 q 580 767 624 767 q 505 751 544 767 q 283 611 358 694 q 177 420 192 509 q 172 369 172 391 q 227 294 172 294 q 300 345 260 294 q 309 369 300 345 q 309 409 313 401 q 308 416 308 413 q 319 427 308 427 q 329 419 326 427 q 333 368 337 395 q 319 331 330 342 q 223 269 274 269 q 135 384 135 269 q 255 631 135 499 q 498 781 342 726 q 576 795 536 795 q 688 733 667 795 m 240 46 q 198 72 222 66 q 158 78 180 78 q 69 15 78 78 q 76 0 68 8 q 94 -6 85 -8 q 240 46 168 8 m 259 -169 q 181 -256 206 -223 q 117 -363 132 -316 q 206 -278 166 -328 q 259 -169 231 -246 z "},"R":{"ha":581,"x_min":33,"x_max":759,"o":"m 759 709 q 667 553 759 644 q 533 456 625 512 q 416 391 460 412 q 431 317 433 356 q 376 1 428 223 q 347 -153 347 -123 q 376 -231 347 -205 q 393 -233 380 -234 q 455 -181 424 -231 q 469 -173 459 -169 q 474 -190 477 -183 q 436 -248 465 -222 q 374 -274 406 -273 q 347 -266 355 -275 q 304 -152 304 -233 q 307 -110 304 -131 q 361 105 315 -68 q 392 309 392 223 q 382 376 392 356 q 371 371 379 374 q 358 367 363 369 q 188 94 294 250 q 77 -26 131 11 q 64 -31 70 -31 q 44 -19 50 -31 q 35 34 33 5 q 50 125 41 65 q 60 134 51 132 q 70 128 69 135 q 66 88 69 118 q 63 51 63 63 q 74 20 63 26 q 86 22 83 20 q 188 140 128 48 q 290 306 239 223 q 319 355 301 323 q 251 344 280 345 q 226 350 237 344 q 217 369 215 356 q 244 405 219 388 q 339 435 291 435 q 361 433 351 435 l 400 511 q 505 752 448 607 q 296 656 413 730 q 288 647 292 654 q 357 633 290 635 q 367 624 367 633 q 356 614 367 614 q 251 627 287 605 q 244 644 242 632 q 265 669 245 656 q 517 784 414 761 l 522 798 q 537 810 523 810 q 547 806 545 810 q 546 797 548 803 q 544 789 544 792 q 629 797 590 797 q 759 709 759 797 m 710 696 q 624 769 715 769 q 535 758 592 769 l 533 758 q 389 423 472 579 q 400 414 393 420 q 497 466 443 432 q 710 696 704 593 m 348 408 q 326 411 337 413 q 260 381 263 401 q 339 392 262 369 q 348 408 343 397 z "},"S":{"ha":537,"x_min":-58,"x_max":815,"o":"m 814 760 q 815 748 815 755 q 681 531 815 690 q 558 411 638 489 q 538 324 548 378 q 521 199 530 261 q 478 72 508 118 q 237 -58 398 -46 q 111 -31 157 -64 q 54 30 76 -5 q -29 -31 25 9 q -48 -31 -36 -37 q -49 -19 -58 -25 q -3 18 -33 -7 q 44 55 28 44 q 54 136 34 100 q 152 207 83 192 q 267 209 200 219 q 325 248 288 222 q 422 330 358 274 q 522 417 457 359 q 600 621 567 563 q 772 772 661 727 q 788 777 776 774 q 811 769 806 782 l 814 760 m 769 729 q 679 669 724 725 q 581 480 614 589 l 576 461 q 657 541 607 490 q 732 645 694 581 q 771 725 771 708 q 769 729 771 728 m 516 378 l 500 364 q 445 317 480 348 q 303 201 369 251 q 319 194 308 198 q 331 177 334 183 q 304 169 325 161 q 266 176 290 172 q 83 49 205 132 q 133 -16 100 6 q 213 -36 164 -36 q 301 -20 258 -36 q 432 73 386 11 q 485 194 468 120 q 509 318 497 256 q 516 378 509 306 m 231 181 q 177 179 186 181 q 80 80 85 161 q 231 181 130 113 z "},"T":{"ha":477,"x_min":5,"x_max":903,"o":"m 903 744 q 888 725 899 729 q 701 669 793 681 q 694 667 697 667 q 568 589 637 651 q 430 402 498 527 q 316 192 372 296 q 56 -56 171 -43 q 5 7 5 -63 q 14 75 5 36 q 119 304 42 193 l 131 317 q 153 319 141 323 q 164 305 156 319 q 175 274 172 280 q 194 252 183 256 q 212 247 202 247 q 275 275 239 247 q 289 272 285 282 q 286 259 294 266 q 194 214 234 214 q 170 219 181 214 q 127 277 137 238 q 56 131 78 206 q 44 55 44 86 q 55 0 44 24 q 80 -10 65 -10 q 187 57 123 -10 q 310 231 251 125 q 412 416 361 323 q 478 520 457 491 q 557 611 519 578 q 631 665 601 648 q 531 678 576 665 q 468 698 499 688 q 398 709 429 709 q 299 680 348 709 q 254 619 269 661 q 261 599 248 603 q 275 597 268 597 q 319 614 294 597 q 369 648 344 631 q 381 651 378 654 q 377 635 388 645 q 286 569 335 596 q 248 558 265 558 q 217 592 217 558 q 219 608 217 599 q 295 704 231 663 q 409 738 351 738 q 546 709 434 738 q 644 697 593 697 q 886 756 758 697 q 903 744 903 758 z "},"U":{"ha":532,"x_min":44,"x_max":826,"o":"m 824 828 q 817 812 824 821 q 489 276 706 642 q 433 134 456 216 q 409 -6 409 52 q 411 -35 409 -22 q 391 -62 411 -64 q 376 -49 380 -63 q 373 -19 373 -35 q 498 347 373 143 q 206 8 350 137 q 94 -44 149 -44 q 44 35 44 -44 q 192 379 44 144 q 258 479 220 425 q 294 536 269 498 q 430 779 386 667 q 431 813 437 798 q 382 818 424 827 q 335 797 356 812 q 253 684 260 744 q 243 671 251 680 q 231 676 234 668 q 331 818 234 746 q 421 854 381 854 q 464 812 464 854 q 400 663 464 783 q 285 477 364 596 q 168 291 202 353 q 96 102 111 188 q 92 56 92 73 q 127 -1 92 6 q 192 30 150 -6 q 508 388 348 161 q 766 781 594 519 q 793 820 775 794 q 820 840 810 847 q 824 828 826 838 z "},"V":{"ha":366,"x_min":-187,"x_max":682,"o":"m 681 788 q 675 775 682 782 q 660 765 667 767 q 470 623 548 728 q 288 354 361 476 q 44 -44 202 222 q 21 -57 36 -67 q 14 -44 11 -53 q 118 266 49 60 q 166 419 159 396 q 201 573 191 506 q 201 721 216 673 q 109 789 181 786 q -25 752 61 791 q -148 641 -131 704 l -150 629 q -109 606 -143 606 q -92 609 -100 606 q -80 608 -83 613 q -88 597 -78 602 q -131 588 -108 588 q -181 612 -169 588 q -180 653 -187 627 q -120 727 -171 689 q 111 812 -8 811 q 231 736 203 813 q 234 578 248 686 q 155 264 219 456 q 92 86 112 136 q 260 355 154 186 q 448 633 321 450 q 664 798 554 772 q 681 788 676 801 z "},"W":{"ha":751,"x_min":-15,"x_max":1129,"o":"m 1121 964 q 1119 948 1129 957 q 906 673 1002 839 q 756 364 850 575 q 663 156 669 170 q 591 -53 614 40 l 588 -64 q 569 -78 582 -80 q 558 -65 554 -78 q 547 106 547 23 q 597 438 547 277 q 413 216 423 229 q 249 -25 312 88 l 244 -33 q 223 -43 240 -48 q 219 -26 212 -41 l 231 1 q 437 432 294 132 q 514 735 514 593 q 481 838 514 813 q 408 854 450 854 q 197 784 312 854 q 21 619 81 715 q 7 575 7 598 q 22 537 7 551 q 170 485 78 485 q 432 569 294 485 l 432 568 q 438 568 433 569 q 436 562 438 568 q 157 470 289 470 q 7 520 67 470 q -15 572 -15 540 q -1 621 -15 597 q 184 807 65 732 q 416 882 303 882 q 499 869 460 882 q 556 757 556 851 q 471 439 556 625 q 321 140 396 289 q 485 338 359 193 q 638 544 586 456 l 647 560 q 668 569 656 574 q 672 554 677 566 l 656 501 q 588 82 588 285 q 589 25 588 54 q 727 369 658 221 q 882 685 839 610 q 1106 963 981 857 q 1121 964 1116 972 m 432 568 z "},"X":{"ha":769,"x_min":21,"x_max":1054,"o":"m 1040 774 q 1054 737 1054 760 q 1010 659 1054 691 q 1003 656 1008 656 q 995 657 997 654 q 994 672 986 663 q 1018 725 1018 696 q 1006 748 1018 741 q 951 764 983 764 q 802 705 885 764 q 679 579 724 649 q 601 408 631 504 q 571 237 571 313 q 576 186 571 208 q 632 21 599 75 q 771 -74 681 -56 q 783 -81 781 -75 q 783 -92 785 -85 q 774 -103 781 -98 q 762 -106 767 -108 q 587 34 651 -91 q 531 244 531 144 q 543 337 531 274 q 351 107 466 211 q 90 -20 206 -20 q 21 56 21 -20 q 27 89 21 72 q 91 195 45 146 q 199 264 142 251 q 207 262 202 263 q 202 247 207 250 q 54 88 95 206 q 75 32 46 52 q 113 23 89 23 q 186 40 146 23 q 516 361 378 122 q 580 581 580 471 q 570 641 580 615 q 488 714 544 714 q 301 669 370 714 q 292 669 294 668 q 292 683 281 676 q 485 755 386 755 q 548 740 524 755 q 620 588 620 696 q 618 544 620 567 q 899 788 723 731 q 967 800 934 800 q 1040 774 1014 800 z "},"Y":{"ha":455,"x_min":-19,"x_max":604,"o":"m 595 580 q 580 543 591 569 q 564 504 575 530 q 328 -26 451 243 q 490 108 411 30 q 493 110 492 109 q 498 107 494 109 q 497 102 501 106 q 402 12 479 81 q 306 -71 325 -58 l 226 -241 q 127 -444 141 -418 q 14 -621 74 -544 q -9 -635 4 -639 q -18 -616 -19 -632 q 83 -316 -4 -505 q 211 -131 121 -234 q 285 -56 239 -98 q 333 56 301 -19 q 391 184 357 112 q 128 -25 267 -6 q 59 49 59 -26 q 93 180 59 104 q 167 328 112 224 q 236 476 215 419 q 281 653 281 597 q 256 719 281 699 q 173 726 223 744 q 94 689 146 717 q 43 631 43 650 q 44 623 43 627 q 58 615 47 617 q 79 620 69 614 q 85 621 83 623 q 87 617 88 619 q 81 611 87 611 q 56 604 70 604 q 28 624 28 604 q 134 735 28 673 q 223 762 181 762 q 276 748 254 762 q 308 654 311 727 q 258 474 306 600 q 164 271 244 435 q 97 84 107 154 q 106 39 94 58 q 147 20 120 17 q 385 213 278 37 q 485 401 408 251 q 567 587 534 497 q 583 600 571 600 q 595 580 604 600 m 257 -119 q 194 -192 219 -155 q 102 -351 161 -243 q 52 -459 77 -406 q 18 -569 27 -519 q 117 -405 68 -498 q 202 -232 159 -319 q 257 -119 226 -185 z "},"Z":{"ha":427,"x_min":-11,"x_max":767,"o":"m 755 710 q 566 542 662 650 q 396 347 481 444 q 204 146 329 279 q 133 67 180 119 q 239 -9 184 52 q 322 -94 304 -82 q 544 -158 422 -158 q 619 -157 595 -158 l 644 -156 q 655 -168 655 -159 q 639 -181 655 -180 l 619 -183 q 538 -190 552 -190 q 304 -122 411 -190 q 213 -39 296 -118 q 94 23 156 16 q 35 -13 57 -11 q -6 5 -11 -18 q 25 47 -3 22 q 76 72 53 71 q 89 72 76 72 q 378 367 189 167 q 522 534 405 394 q 673 690 605 632 q 610 681 631 681 q 503 694 571 681 q 411 706 435 706 q 308 677 379 706 q 300 675 304 675 q 287 685 287 675 q 305 704 287 695 q 408 768 311 706 q 419 770 413 770 q 435 760 435 770 q 430 752 435 756 q 416 742 425 749 l 424 742 q 513 727 448 742 q 616 712 577 712 q 685 720 654 712 q 746 737 717 729 q 767 727 767 742 q 755 710 767 718 z "},"[":{"ha":419,"x_min":45,"x_max":575,"o":"m 565 801 q 466 797 531 797 q 437 748 456 797 q 411 681 424 715 q 362 560 394 638 q 269 336 331 487 q 182 111 241 261 q 90 -156 155 42 q 104 -157 96 -156 q 119 -158 112 -158 q 136 -158 130 -158 q 152 -157 143 -157 l 186 -157 q 200 -171 200 -157 q 186 -185 200 -185 l 152 -185 q 136 -186 143 -185 q 119 -186 130 -186 q 63 -186 63 -186 q 50 -183 54 -187 q 48 -169 45 -179 q 152 122 79 -63 q 243 347 181 198 q 338 573 273 421 q 385 692 354 614 q 459 824 440 824 q 511 824 477 824 q 563 825 546 825 q 575 814 574 825 q 565 801 575 802 z "},"\\":{"ha":552,"x_min":230,"x_max":561,"o":"m 560 -56 q 561 -64 561 -60 q 541 -82 561 -82 q 523 -69 528 -82 q 450 132 495 8 q 281 621 396 294 q 231 775 266 672 q 230 781 230 778 q 246 796 230 796 q 261 785 257 796 q 316 633 284 719 q 487 145 371 473 l 560 -56 z "},"]":{"ha":419,"x_min":-95,"x_max":434,"o":"m 431 810 q 328 519 401 704 q 237 294 298 443 q 142 68 206 219 q 94 -51 126 27 q 22 -183 40 -183 q -31 -184 4 -183 q -83 -184 -66 -184 q -95 -173 -94 -184 q -85 -160 -95 -161 q 14 -156 -52 -156 q 43 -107 23 -156 q 69 -40 56 -74 q 118 81 85 3 q 211 305 148 154 q 297 530 239 380 q 390 797 325 599 q 375 798 383 796 q 360 799 368 799 q 344 799 350 799 q 328 798 337 798 l 294 798 q 280 812 280 798 q 294 826 280 826 l 328 826 q 344 827 337 826 q 360 827 350 827 q 417 827 417 827 q 430 824 426 828 q 431 810 434 819 z "},"^":{"ha":403,"x_min":259,"x_max":515,"o":"m 509 714 q 515 698 515 707 q 501 680 515 680 q 492 682 496 680 q 459 716 488 685 q 426 744 434 744 q 273 683 402 744 q 259 694 259 679 q 268 707 259 703 q 362 765 288 718 q 433 795 411 795 q 474 758 444 795 q 509 714 492 736 z "},"_":{"ha":552,"x_min":-74,"x_max":637,"o":"m 618 -216 q 401 -212 608 -216 q 108 -215 333 -216 q -58 -211 -31 -211 q -74 -196 -74 -211 q -59 -182 -74 -182 q 107 -181 100 -181 q 287 -180 200 -184 q 401 -176 383 -176 q 618 -181 637 -180 q 635 -199 635 -181 q 618 -216 635 -218 z "},"`":{"ha":221,"x_min":190,"x_max":337,"o":"m 331 606 q 332 593 337 597 q 320 594 328 587 q 192 759 236 692 q 190 766 190 762 q 219 789 190 789 q 232 782 229 789 q 331 606 266 718 z "},"a":{"ha":470,"x_min":9,"x_max":523,"o":"m 519 102 q 431 18 469 45 q 363 -5 400 -5 q 348 -4 356 -5 q 306 29 317 1 q 301 59 301 44 q 323 126 301 84 q 231 59 295 103 q 125 5 197 39 q 63 -9 88 -9 q 29 2 39 -9 q 23 53 9 22 q 123 161 50 113 q 308 237 225 229 q 315 232 313 239 q 308 227 315 227 q 139 150 197 194 q 78 97 117 135 q 56 44 52 64 q 69 33 57 35 q 153 48 110 28 q 288 122 237 89 q 415 243 356 167 q 432 248 426 256 q 431 229 441 238 q 392 186 419 216 q 369 150 372 160 q 334 56 334 96 q 335 43 334 49 q 364 18 337 24 q 416 27 387 12 q 514 107 469 63 q 519 108 517 110 q 519 102 523 106 z "},"b":{"ha":298,"x_min":7,"x_max":839,"o":"m 832 1009 q 772 859 820 938 q 676 724 754 830 q 453 494 619 646 q 232 310 345 408 l 237 309 q 275 219 275 292 q 269 160 275 192 q 251 105 265 133 q 265 101 256 103 q 294 101 275 99 q 365 128 330 104 q 379 135 369 130 q 387 133 383 138 q 387 125 390 130 q 375 113 385 121 q 297 82 335 86 q 264 82 278 81 q 242 89 251 84 q 163 6 212 39 q 69 -30 113 -27 q 40 -21 56 -31 q 25 -6 34 -19 q 20 60 7 24 q 89 170 37 106 q 175 275 131 223 q 380 555 247 374 q 523 752 430 623 q 769 1029 668 948 q 821 1043 799 1053 q 832 1009 839 1034 m 798 988 q 791 995 799 995 q 775 991 781 996 q 541 741 674 916 q 400 542 476 656 q 279 375 359 481 q 443 515 363 440 q 566 631 546 612 q 669 754 625 692 q 751 875 732 844 q 798 988 790 940 m 248 169 q 248 237 254 199 q 231 281 243 276 q 208 272 219 285 q 185 207 185 246 q 231 117 185 152 q 248 169 243 140 m 220 100 q 159 207 159 142 q 160 219 159 215 q 56 59 72 115 q 66 14 48 31 q 94 12 73 6 q 220 100 176 33 z "},"c":{"ha":392,"x_min":10,"x_max":461,"o":"m 456 102 q 344 32 426 74 q 231 -5 302 11 q 105 -19 155 -21 q 40 0 66 -16 q 14 54 10 19 q 88 164 20 110 q 292 264 214 264 q 321 261 307 264 q 344 245 344 256 q 361 257 358 257 q 365 246 370 257 q 347 227 360 242 q 309 181 334 213 q 280 160 294 160 q 277 161 278 160 q 296 194 272 169 q 312 227 310 212 q 297 244 314 244 q 209 219 252 244 q 61 72 97 155 q 58 58 58 67 q 119 11 58 15 q 327 46 224 4 q 393 74 383 69 q 447 108 424 89 q 456 108 451 111 q 456 102 461 106 z "},"d":{"ha":345,"x_min":-19,"x_max":802,"o":"m 795 819 q 793 806 802 812 q 581 698 669 735 q 371 236 534 464 q 374 238 371 235 q 428 226 391 235 q 442 209 445 224 q 423 195 440 192 q 350 206 390 203 q 247 74 288 115 q 108 -11 183 10 q 76 -16 93 -16 q 7 28 19 -16 q 4 54 4 41 q 30 120 4 89 q 302 242 130 242 q 341 240 321 242 q 455 436 383 308 q 539 686 486 519 q 426 645 474 662 q 191 614 266 614 q 11 656 86 614 l -10 680 q -12 684 -12 683 q -19 719 -19 696 q -6 790 -19 750 q 126 983 30 896 q 348 1100 227 1075 q 402 1106 375 1106 q 578 1019 523 1106 q 601 873 601 953 q 594 786 601 831 q 585 721 592 765 q 784 822 659 752 q 795 819 792 829 m 548 1003 q 396 1081 499 1081 q 237 1034 314 1081 q 26 738 54 922 l 32 705 l 47 687 q 223 641 125 641 q 419 666 276 641 q 544 710 419 666 q 564 872 564 796 q 548 1003 564 941 m 319 206 q 59 101 148 206 q 36 44 36 73 q 52 19 36 26 q 85 12 68 12 q 240 107 154 12 q 319 206 281 153 z "},"e":{"ha":355,"x_min":6,"x_max":415,"o":"m 410 104 q 306 31 370 63 q 227 6 281 19 q 128 -8 167 -8 q 11 69 6 -8 q 25 107 12 88 q 161 219 65 169 q 325 263 256 270 q 334 256 329 260 q 335 248 337 253 l 332 240 q 323 228 330 236 q 301 209 319 225 q 69 109 200 160 q 48 71 56 98 q 136 21 55 27 q 213 28 160 19 q 290 46 267 37 q 397 111 353 72 q 408 111 402 116 q 410 104 415 108 m 303 237 q 279 239 303 242 q 89 136 163 210 q 283 220 199 179 q 303 237 303 234 z "},"f":{"ha":250,"x_min":-291,"x_max":509,"o":"m 502 694 q 496 664 509 685 q 361 465 470 620 q 206 252 301 380 q 150 168 196 234 q 129 137 144 157 q 155 44 155 94 q 153 16 155 36 l 163 16 q 215 30 189 16 q 319 107 248 47 q 325 107 321 110 q 325 101 330 106 q 228 18 292 69 q 163 -3 196 -3 l 149 -3 q 119 -94 142 -38 q 13 -315 75 -204 q -87 -463 -22 -379 q -266 -637 -187 -593 q -283 -637 -276 -643 q -288 -619 -291 -631 q -177 -344 -258 -506 q -24 -62 -137 -264 q 41 46 -6 -29 q 12 126 12 81 q 77 178 12 182 q 113 158 96 176 q 286 420 185 279 q 435 643 316 462 q 476 694 446 659 q 502 694 491 708 m 105 145 q 77 159 93 159 q 43 126 43 159 q 56 69 43 94 q 105 145 72 94 m 136 44 q 119 123 136 87 q 71 49 102 97 q 134 18 96 24 q 136 44 136 36 m 131 -1 q 59 29 89 6 q 9 -57 30 -19 q -130 -300 -60 -179 q -245 -569 -206 -438 q -246 -577 -248 -577 q -240 -575 -244 -577 q 19 -261 -79 -451 q 105 -78 70 -163 q 131 -1 122 -34 z "},"g":{"ha":422,"x_min":-483,"x_max":481,"o":"m 477 108 q 475 102 481 106 q 372 18 411 44 q 265 -57 361 10 q -56 -701 127 -383 q -206 -965 -131 -832 q -392 -1197 -296 -1111 q -442 -1220 -418 -1220 q -477 -1193 -467 -1220 q -458 -1069 -483 -1138 q -213 -564 -365 -804 q 242 -45 -18 -256 q 305 109 267 19 q 61 17 183 18 q 23 27 41 17 q 2 57 2 39 q 57 138 2 98 q 427 284 173 221 q 433 281 431 285 q 430 272 433 272 q 86 131 199 210 q 61 100 70 119 q 55 70 52 81 q 87 51 59 50 q 344 194 226 56 q 351 205 347 199 q 363 213 358 213 q 368 211 366 212 q 368 177 385 199 q 344 147 363 171 q 285 -10 320 82 q 357 27 319 3 q 471 107 434 76 q 477 108 474 110 m 219 -93 q 79 -223 149 -157 q -60 -381 -1 -301 q -441 -1123 -393 -836 q -442 -1136 -442 -1131 q -421 -1161 -442 -1161 q -390 -1150 -406 -1161 q -58 -668 -219 -970 q 219 -93 -24 -604 z "},"h":{"ha":414,"x_min":-27,"x_max":715,"o":"m 713 989 q 699 958 710 975 q 581 796 655 891 q 439 616 509 706 q 263 384 298 432 q 100 156 178 270 q 269 274 186 231 q 310 278 294 288 q 325 254 316 275 q 326 242 326 248 q 308 164 326 221 q 290 81 290 106 q 319 30 290 44 q 363 31 338 21 q 469 101 410 51 q 478 101 473 104 q 479 94 483 98 q 377 10 408 31 q 315 -13 338 -15 q 245 69 253 -8 q 264 156 244 91 q 285 236 285 220 q 277 249 285 248 q 36 58 119 158 q 3 7 14 25 l -4 0 q -19 -2 -11 -8 q -23 11 -27 4 l -17 28 q 22 79 1 55 q 91 190 43 113 q 243 404 145 272 q 381 595 350 549 q 586 887 502 771 q 692 1004 635 955 q 700 1006 694 1006 q 713 989 715 1006 z "},"i":{"ha":215,"x_min":19,"x_max":270,"o":"m 270 365 q 263 333 270 354 q 236 319 249 316 q 219 344 214 323 q 238 370 219 345 l 248 381 q 257 387 253 385 q 263 387 259 391 q 270 365 268 383 m 252 90 q 152 7 184 28 q 82 -15 114 -17 q 34 0 50 -13 q 19 37 19 14 q 50 117 19 74 q 108 197 68 143 q 144 244 118 210 q 166 265 150 250 q 190 256 179 278 q 181 238 192 251 q 167 219 178 232 q 60 65 90 127 q 56 49 56 58 q 94 14 56 14 q 138 24 120 14 q 243 96 198 58 q 251 96 246 99 q 252 90 256 94 z "},"j":{"ha":259,"x_min":-680,"x_max":333,"o":"m 333 373 q 326 342 333 362 q 299 327 312 324 q 282 353 277 331 q 301 379 282 354 l 311 389 q 320 395 316 394 q 326 395 322 399 q 333 373 331 392 m 319 94 q 218 10 250 31 q 15 -121 160 -26 q -8 -155 10 -127 q -194 -429 -66 -238 q -405 -738 -261 -533 q -517 -885 -442 -790 q -646 -980 -599 -980 q -680 -931 -680 -980 q -581 -653 -680 -819 q -306 -332 -466 -460 q -212 -254 -276 -306 q -104 -173 -177 -228 q -4 -105 -63 -143 q 115 77 36 -44 q 189 202 144 125 q 4 55 156 180 q -6 57 -3 47 q -4 69 -6 67 l 175 218 q 226 256 212 246 l 240 265 q 264 256 255 275 q 263 239 268 246 q 246 219 257 232 q 124 42 203 167 q 52 -69 93 -9 q 204 27 161 3 q 310 101 263 60 q 319 101 314 104 q 319 94 324 98 m -44 -161 q -80 -188 -56 -170 q -199 -274 -119 -217 q -299 -356 -233 -303 q -561 -669 -444 -472 q -611 -781 -586 -712 q -636 -886 -636 -854 q -630 -904 -636 -902 q -545 -856 -603 -913 q -429 -720 -504 -814 q -217 -416 -341 -611 q -44 -161 -149 -310 z "},"k":{"ha":406,"x_min":-58,"x_max":628,"o":"m 628 751 q 627 744 628 749 l 624 742 q 494 574 606 693 q 343 412 372 444 q 194 269 241 307 q 172 240 177 246 l 172 240 l 172 240 l 172 240 q 172 239 172 240 q 170 237 171 238 q 147 208 164 230 q 140 198 144 205 q 205 243 169 219 q 280 292 279 291 q 359 319 319 314 q 384 314 381 320 q 374 282 388 304 q 355 263 371 279 q 298 231 338 248 q 199 206 246 208 q 183 194 196 205 q 171 134 169 164 q 193 74 174 98 q 270 21 233 21 q 340 30 323 21 q 445 101 393 56 q 454 101 449 104 q 455 94 459 98 q 353 10 384 31 q 280 -12 318 -12 q 156 69 204 -12 q 137 136 136 105 q 144 175 138 157 q 65 110 91 136 q -37 -19 22 56 q -55 -24 -47 -31 q -58 -13 -58 -19 q -56 -6 -58 -10 q -53 -1 -53 -3 q 118 215 5 72 q 215 342 150 257 q 387 571 299 449 q 599 774 505 735 l 606 775 q 619 770 618 779 l 627 765 q 628 756 627 763 l 628 751 m 592 728 l 592 729 l 586 736 l 569 728 q 421 571 514 700 q 229 323 338 465 q 394 490 279 365 q 556 674 506 610 q 584 716 578 703 q 585 715 585 716 l 592 728 m 350 294 q 231 237 306 284 q 324 269 280 244 q 350 294 335 276 z "},"l":{"ha":181,"x_min":11,"x_max":581,"o":"m 581 838 q 477 634 580 769 q 225 370 417 556 l 160 307 q 108 225 137 271 q 48 70 56 121 q 85 17 41 17 q 130 27 112 17 q 236 101 189 60 q 244 101 240 104 q 245 94 250 98 q 144 10 175 31 q 74 -12 108 -12 q 19 34 23 -12 q 88 245 11 116 q 262 533 148 351 q 552 856 391 716 q 575 858 564 866 q 581 838 581 854 m 555 806 q 541 806 555 819 q 294 520 438 728 q 187 356 229 426 q 214 382 196 365 q 343 509 279 446 q 462 645 414 582 q 519 722 510 708 q 555 806 549 769 z "},"m":{"ha":619,"x_min":-28,"x_max":656,"o":"m 652 97 q 546 9 575 27 q 477 -15 507 -15 q 456 -13 467 -15 q 413 21 421 -7 q 432 99 403 58 q 508 204 508 206 q 494 207 508 212 q 370 131 446 193 q 270 29 294 69 q 243 3 256 3 q 235 19 235 3 q 285 106 235 29 q 333 193 333 180 q 320 196 333 200 q 169 102 247 174 q 64 -2 117 50 q 46 -15 58 -7 q 19 -8 25 -28 q 23 10 16 3 l 32 19 q 118 118 73 60 q 162 185 163 175 q 156 191 159 191 q 86 143 143 191 q -15 56 35 99 q -25 60 -20 50 q -22 69 -28 65 q 79 157 28 113 q 173 219 149 216 q 207 198 197 223 q 195 162 210 188 q 168 122 186 146 q 229 173 198 148 q 322 227 270 206 q 353 233 338 233 q 376 215 374 233 q 368 189 378 207 q 305 95 347 156 q 391 169 347 132 q 499 238 447 216 q 528 244 510 243 q 556 227 552 246 q 545 200 558 217 q 488 120 531 177 q 450 44 448 72 q 476 17 451 22 q 531 26 504 10 q 643 104 597 65 q 652 104 646 107 q 652 97 656 102 z "},"n":{"ha":479,"x_min":26,"x_max":548,"o":"m 544 94 q 442 10 473 31 q 375 -12 406 -12 q 306 26 318 -12 q 323 100 295 65 q 382 178 382 175 q 369 181 382 185 q 190 83 284 155 q 69 -18 129 33 l 52 -29 q 35 -33 43 -33 q 26 -26 27 -33 q 31 -9 26 -15 l 41 0 q 135 103 82 42 q 186 173 187 165 q 180 179 183 179 q 128 146 168 179 q 45 76 87 111 q 35 79 38 69 q 38 90 35 87 q 120 160 80 125 q 197 207 174 204 q 234 190 225 211 q 224 159 235 184 q 182 100 210 129 q 391 217 286 172 q 419 222 404 222 q 445 208 444 222 q 434 183 447 201 q 378 112 420 163 q 343 43 341 73 q 375 18 344 25 q 428 27 401 11 q 534 101 487 60 q 543 101 538 104 q 544 94 548 98 z "},"o":{"ha":359,"x_min":7,"x_max":423,"o":"m 420 114 q 419 112 420 114 q 406 100 418 109 q 327 65 361 69 q 294 62 296 62 q 277 66 281 64 q 86 -25 180 -25 q 33 -14 58 -25 q 12 17 17 -6 q 14 57 7 38 q 109 178 33 117 q 237 243 166 224 q 271 253 252 253 q 338 211 324 253 q 341 182 341 202 q 296 85 341 142 q 324 84 313 83 q 398 116 356 87 q 412 123 398 116 q 420 122 419 127 q 420 114 423 119 m 319 183 q 310 209 319 197 q 271 231 295 231 q 228 167 228 231 q 268 96 228 116 q 319 183 319 155 m 248 80 q 198 166 198 103 q 211 212 198 188 q 132 168 169 195 q 69 105 95 140 q 46 51 52 82 q 53 27 44 39 q 79 13 62 15 q 101 12 90 12 q 184 34 144 12 q 248 80 201 44 z "},"p":{"ha":376,"x_min":-454,"x_max":438,"o":"m 433 102 q 331 18 365 39 q 161 -21 263 -25 q 92 -7 121 -19 q 8 -19 39 -27 q -108 -267 -31 -104 q -192 -439 -129 -306 q -419 -885 -267 -586 l -421 -883 l -426 -897 q -443 -905 -430 -909 q -451 -889 -454 -900 l -450 -888 l -448 -878 q -338 -650 -407 -786 q -223 -423 -248 -474 q -50 -75 -136 -249 q 111 278 56 141 q 120 284 112 281 q 132 281 127 286 q 73 116 112 206 q 312 278 168 229 q 347 281 329 283 q 369 265 363 278 q 366 228 375 254 q 285 118 350 183 q 144 12 215 46 q 178 2 158 2 q 316 27 273 2 q 430 107 379 64 q 432 108 431 109 q 433 102 438 106 m 334 241 q 329 248 336 246 q 316 247 322 249 q 34 36 157 194 q 108 31 65 44 q 181 65 144 38 q 334 241 307 154 z "},"q":{"ha":448,"x_min":-109,"x_max":534,"o":"m 529 102 q 421 14 460 37 q 251 -81 323 -45 l 245 -84 q 221 -123 237 -96 q 200 -282 216 -179 q 150 -450 189 -334 q 48 -646 119 -542 q -86 -745 -19 -745 q -109 -719 -109 -745 q -108 -713 -109 -716 q -15 -529 -80 -648 q 78 -350 53 -404 q 194 -126 121 -270 q 197 -86 196 -112 q 213 -59 198 -72 q 235 -49 217 -56 q 270 11 247 -31 q 336 117 299 69 q 239 56 278 76 q 120 4 184 27 q 21 0 52 -21 q 18 55 -2 16 q 139 168 57 119 q 343 243 251 233 q 349 238 349 246 q 343 231 349 231 q 248 200 279 212 q 156 153 196 180 q 87 100 132 138 q 53 39 50 67 q 63 34 54 34 q 153 51 116 34 q 303 128 234 88 q 452 250 382 175 q 476 256 467 266 q 471 232 483 244 q 424 189 456 219 q 393 151 406 172 q 300 1 331 56 q 282 -30 293 -12 q 404 30 374 12 q 521 112 466 67 q 528 113 524 116 q 529 102 534 109 m 188 -195 q 102 -364 156 -257 q -59 -675 48 -464 q -56 -688 -60 -682 q 21 -627 -22 -682 q 123 -447 88 -543 q 176 -281 166 -332 q 188 -195 181 -256 z "},"r":{"ha":329,"x_min":43,"x_max":382,"o":"m 378 94 q 274 11 315 37 q 149 -31 204 -34 q 106 -19 118 -30 q 94 25 87 -4 q 188 156 106 79 q 181 225 175 194 q 52 102 144 191 q 43 105 45 95 q 44 113 43 108 q 138 206 56 123 q 203 270 166 234 q 233 276 220 291 q 225 243 244 264 q 215 216 215 231 q 221 185 215 206 q 228 153 228 164 q 219 131 228 136 q 165 80 192 116 q 134 22 138 44 q 156 2 131 2 q 260 29 213 2 q 369 101 331 69 q 377 101 372 104 q 378 94 382 98 z "},"s":{"ha":343,"x_min":-16,"x_max":385,"o":"m 381 99 q 342 58 362 79 q 276 10 302 20 q 214 -6 258 4 q 133 -31 182 -33 q 84 4 83 -30 q 131 35 85 35 q 180 20 129 35 q 219 92 209 38 q 219 203 219 136 q 223 236 220 213 q -4 53 141 169 q -10 54 -5 52 q -16 57 -15 56 q -13 69 -15 67 q 165 212 89 153 q 225 265 191 235 q 249 300 231 283 q 286 316 268 316 q 305 297 301 317 q 292 272 307 281 q 254 250 277 264 q 244 206 244 235 q 249 153 244 190 q 254 101 254 117 q 229 17 254 46 q 272 30 254 20 q 376 106 342 64 q 382 106 379 110 q 381 99 385 103 z "},"t":{"ha":278,"x_min":-281,"x_max":658,"o":"m 650 506 q 648 491 658 496 q 631 475 640 481 q 400 419 532 419 q 322 422 364 419 q 289 370 308 400 q 157 156 223 263 q 0 -44 74 21 q -27 -44 -16 -57 q -31 -35 -31 -41 q -14 -10 -31 -24 q 137 172 56 51 q 267 379 202 275 q 294 424 282 404 q 258 429 277 428 q 85 462 222 433 q -82 485 -21 485 q -232 442 -173 485 q -188 434 -231 441 q -182 430 -186 433 q -186 424 -182 425 q -244 415 -211 415 q -280 429 -279 415 q -264 453 -281 439 q -75 506 -186 506 q 72 491 -17 506 q 219 463 145 477 q 310 453 249 460 q 423 602 366 552 l 419 600 q 444 605 434 615 q 440 581 454 594 q 341 453 397 541 q 450 454 388 450 q 632 511 503 456 q 650 506 645 517 z "},"u":{"ha":374,"x_min":-10,"x_max":425,"o":"m 420 94 q 320 16 366 44 q 251 -6 285 -6 q 203 8 216 -6 q 201 81 178 36 q 123 19 168 46 q 43 -12 75 -10 q 3 4 18 -14 q -6 35 -10 19 q 54 139 0 68 q 119 220 86 180 q 148 233 136 241 q 152 228 152 231 q 132 203 152 227 q 88 152 110 177 q 33 59 52 106 q 31 52 31 56 q 68 26 31 25 q 190 98 119 28 q 308 231 249 164 q 320 236 313 236 q 336 223 336 236 q 334 218 336 220 q 292 168 323 204 q 229 73 252 122 q 226 57 226 67 q 262 22 226 22 q 306 32 288 22 q 411 101 374 69 q 419 101 415 104 q 420 94 425 98 z "},"v":{"ha":344,"x_min":3,"x_max":412,"o":"m 406 123 q 402 121 406 123 q 384 108 399 119 q 309 83 337 83 q 256 96 280 83 q 46 -12 121 -12 q 12 8 24 -12 q 4 44 3 25 q 44 154 6 104 q 130 230 68 183 q 153 239 139 236 q 179 240 168 242 q 188 234 190 238 q 145 209 187 231 q 68 145 98 184 q 39 47 34 103 q 61 24 41 24 q 240 106 139 24 q 220 156 217 124 q 257 219 224 193 q 325 244 291 244 q 355 226 346 244 q 357 206 359 213 q 276 112 346 169 q 309 102 292 102 q 367 115 337 102 q 398 134 374 119 q 408 133 405 138 q 406 123 412 128 m 338 216 q 323 226 338 226 q 279 209 302 226 q 251 156 251 189 q 262 125 251 138 q 338 216 338 191 z "},"w":{"ha":663,"x_min":12,"x_max":736,"o":"m 706 401 q 662 488 708 466 q 606 502 634 502 q 522 471 564 502 q 482 398 487 446 q 474 384 481 384 q 468 398 469 383 q 500 474 465 440 q 610 521 548 521 q 679 503 646 521 q 736 391 736 470 q 700 253 736 325 q 588 111 662 178 q 364 -6 457 -6 q 329 -2 346 -6 q 290 40 294 9 q 298 111 284 75 q 181 33 249 70 q 79 -8 112 -4 q 24 2 36 -14 q 22 44 12 19 q 211 238 50 114 q 244 237 232 255 q 237 217 248 231 q 207 194 226 208 q 126 129 167 161 q 57 50 81 91 q 69 31 48 34 q 100 32 85 28 q 372 219 230 70 q 406 237 393 240 q 413 215 426 233 q 381 185 411 213 q 315 63 315 108 q 317 44 315 53 q 366 23 325 21 q 567 135 455 28 q 706 401 703 266 z "},"x":{"ha":531,"x_min":39,"x_max":572,"o":"m 568 90 q 469 7 532 57 q 389 -15 431 -15 q 317 -1 347 -15 q 282 74 273 19 q 300 131 285 90 l 94 -3 q 74 -2 81 -11 q 78 13 69 10 q 309 164 174 80 q 332 213 320 188 q 341 244 344 237 q 310 258 333 258 q 241 238 284 258 q 51 100 201 219 q 41 101 44 93 q 42 110 39 105 q 138 188 116 170 q 228 251 205 240 q 313 277 252 262 q 357 270 343 279 q 369 240 371 261 q 353 191 368 213 q 492 281 398 219 q 508 279 501 286 q 504 271 508 273 q 344 160 423 212 q 319 73 319 92 q 322 53 319 63 q 397 13 336 13 q 446 24 426 13 q 556 96 507 57 q 558 97 556 97 q 567 96 562 97 q 568 90 572 94 z "},"y":{"ha":356,"x_min":-380,"x_max":413,"o":"m 409 108 q 407 102 413 106 q 305 18 374 71 q 105 -125 227 -43 q -59 -383 13 -277 q -288 -642 -186 -570 q -334 -659 -317 -659 q -378 -619 -376 -659 q -333 -493 -380 -567 q -207 -341 -308 -452 q 18 -154 -128 -252 q 96 -100 44 -135 q 242 130 144 -23 q 48 18 129 21 q 19 27 31 17 q 10 53 8 38 q 56 154 14 87 q 111 231 86 203 q 132 250 120 243 q 148 252 140 255 q 151 245 149 249 q 144 219 155 235 q 102 160 116 181 q 53 68 67 106 q 53 54 50 61 q 64 46 56 46 q 313 243 149 50 q 323 248 318 248 q 332 239 332 248 q 330 231 332 235 q 134 -75 258 122 q 289 25 199 -33 q 404 107 364 73 q 409 108 406 110 m 64 -151 q 23 -179 49 -161 q -188 -352 -113 -269 q -294 -485 -239 -407 q -334 -588 -334 -543 q -331 -606 -334 -598 q -317 -614 -329 -613 q -294 -607 -304 -615 q -81 -375 -195 -543 q 64 -151 -19 -285 z "},"z":{"ha":383,"x_min":-406,"x_max":433,"o":"m 429 99 q 425 88 433 94 q 163 -157 342 12 q -35 -662 166 -341 q -124 -811 -80 -736 q -222 -956 -178 -900 q -293 -1045 -257 -1000 q -372 -1096 -336 -1095 q -405 -1062 -404 -1097 q -370 -875 -406 -994 q -255 -625 -327 -734 q -174 -503 -215 -564 q -83 -383 -127 -432 q 130 -164 6 -283 q 119 -90 128 -122 q 36 -47 108 -47 q 11 -49 23 -47 q -19 -45 -17 -54 q -14 -27 -23 -33 l 1 -19 q 175 66 88 23 q 317 192 267 119 q 317 212 329 209 q 203 187 287 219 q 47 97 107 150 q 39 98 43 94 q 40 106 37 103 q 189 206 97 163 q 330 248 276 248 q 348 246 341 248 q 366 232 355 244 q 367 194 374 214 q 347 167 362 181 q 73 -14 269 77 q 157 -94 144 -27 q 162 -132 160 -108 q 416 99 297 -4 q 429 99 423 106 m 130 -190 q -65 -396 6 -314 q -225 -629 -104 -443 q -351 -976 -306 -755 q -354 -1005 -354 -991 q -343 -1026 -353 -1026 q -240 -935 -310 -1025 q 12 -534 -125 -789 q 130 -190 125 -325 z "},"{":{"ha":442,"x_min":32,"x_max":492,"o":"m 480 751 q 277 560 308 717 q 267 457 276 523 q 138 351 244 381 q 146 345 144 348 q 169 287 169 321 q 117 152 169 230 q 64 -17 64 74 q 143 -114 64 -114 q 168 -109 153 -114 q 186 -104 182 -104 q 200 -118 200 -104 q 191 -131 200 -127 q 139 -148 159 -148 q 32 -23 32 -148 q 95 163 32 66 q 131 216 113 189 q 150 283 150 250 q 131 331 150 312 q 92 351 116 336 q 86 368 84 358 q 99 380 88 378 q 187 406 161 392 q 239 469 226 426 q 249 566 241 501 q 479 769 281 731 q 492 762 492 772 q 480 751 492 754 z "},"|":{"ha":552,"x_min":164,"x_max":635,"o":"m 633 769 q 551 604 606 711 q 316 143 475 452 q 202 -69 270 58 q 185 -80 196 -80 q 164 -60 164 -80 q 167 -51 164 -56 q 224 56 179 -29 q 281 161 269 140 q 518 620 357 313 q 605 784 548 678 q 619 794 609 794 q 635 778 635 794 q 633 769 635 773 z "},"}":{"ha":442,"x_min":-49,"x_max":410,"o":"m 410 645 q 347 459 410 556 q 312 406 330 433 q 293 339 293 372 q 312 292 293 310 q 351 271 327 286 q 356 255 358 264 q 344 243 355 244 q 256 217 281 231 q 204 154 217 196 q 194 56 202 121 q -36 -147 161 -108 q -49 -140 -49 -150 q -37 -129 -49 -131 q 166 62 134 -94 q 176 165 167 99 q 305 271 199 242 q 296 277 299 274 q 273 335 273 301 q 326 470 273 393 q 379 639 379 548 q 300 736 379 736 q 275 731 290 736 q 256 726 260 726 q 243 740 243 726 q 252 754 243 749 q 304 770 283 770 q 410 645 410 770 z "},"~":{"ha":300,"x_min":212,"x_max":478,"o":"m 395 694 q 346 710 369 694 q 308 726 323 726 q 239 696 278 726 q 229 693 234 693 q 212 709 212 693 q 219 721 212 717 q 308 765 276 765 q 346 748 323 765 q 395 731 369 731 q 452 760 431 731 q 466 769 458 769 q 478 756 478 769 q 447 715 478 735 q 395 694 416 694 z "},"":{"ha":725,"x_min":37,"x_max":919,"o":"m 914 849 q 897 816 914 837 q 870 795 880 795 q 851 808 854 795 q 862 849 847 827 q 899 877 877 871 q 914 849 914 881 m 792 849 q 775 816 792 837 q 749 795 758 795 q 730 808 731 795 q 740 849 726 827 q 778 877 755 871 q 792 849 792 881 m 914 703 q 666 309 776 488 q 612 193 630 250 q 586 84 586 106 q 607 30 586 49 q 628 22 616 22 q 782 100 690 22 q 786 102 784 101 q 791 100 789 101 q 792 89 799 96 q 606 -21 678 -21 q 545 19 561 -21 q 540 60 540 38 q 561 179 540 78 q 687 414 627 322 q 616 339 657 379 q 529 251 564 290 q 342 87 464 180 q 227 0 229 1 q 94 -37 162 -41 q 53 -12 69 -36 q 41 41 37 12 q 369 506 71 259 q 666 686 470 589 q 810 729 752 729 q 831 718 831 729 q 819 705 831 703 q 674 663 774 711 q 419 506 533 594 q 216 318 284 402 q 93 77 130 212 q 91 62 91 69 q 105 30 91 42 q 132 19 119 19 q 228 46 183 22 q 323 112 258 62 q 506 271 447 207 q 705 485 606 379 q 888 707 817 608 q 907 719 896 725 q 914 703 919 711 z "},"":{"ha":725,"x_min":37,"x_max":946,"o":"m 943 872 q 916 811 946 841 q 795 769 850 748 q 777 813 770 780 q 819 874 782 843 q 881 907 849 899 q 933 896 918 917 q 943 872 941 890 m 914 703 q 666 309 776 488 q 612 193 630 250 q 586 84 586 106 q 607 30 586 49 q 628 22 616 22 q 782 100 690 22 q 786 102 784 101 q 791 100 789 101 q 792 89 799 96 q 606 -21 678 -21 q 545 19 561 -21 q 540 60 540 38 q 561 179 540 78 q 687 414 627 322 q 616 339 657 379 q 529 251 564 290 q 342 87 464 180 q 227 0 229 1 q 94 -37 162 -41 q 53 -12 69 -36 q 41 41 37 12 q 369 506 71 259 q 666 686 470 589 q 810 729 752 729 q 831 718 831 729 q 819 705 831 703 q 674 663 774 711 q 419 506 533 594 q 216 318 284 402 q 93 77 130 212 q 91 62 91 69 q 105 30 91 42 q 132 19 119 19 q 228 46 183 22 q 323 112 258 62 q 506 271 447 207 q 705 485 606 379 q 888 707 817 608 q 907 719 896 725 q 914 703 919 711 m 919 872 q 916 882 919 876 q 874 881 902 892 q 840 860 869 879 q 813 833 826 849 q 806 807 806 820 q 816 795 802 799 q 892 826 846 792 q 919 872 921 856 z "},"":{"ha":580,"x_min":2,"x_max":805,"o":"m 805 838 q 801 832 802 832 q 643 744 747 807 q 638 739 641 742 q 633 736 634 737 q 658 672 658 711 q 624 594 658 628 q 537 545 576 546 q 517 561 522 545 q 516 587 511 574 q 594 730 529 667 q 564 736 581 736 q 467 703 516 736 q 189 420 298 590 q 80 119 80 251 q 107 31 80 61 q 231 -17 157 -22 q 536 196 385 -5 q 552 197 543 205 q 551 182 556 193 q 422 34 494 96 q 232 -57 324 -51 q 148 -51 181 -61 q 125 -106 141 -70 q 146 -104 135 -104 q 194 -169 194 -104 q 139 -252 194 -218 q 23 -290 92 -280 q 2 -274 2 -293 q 10 -266 2 -268 q 156 -167 156 -235 q 137 -139 156 -139 q 110 -147 121 -139 q 92 -160 92 -160 q 83 -162 87 -162 q 71 -151 71 -162 q 75 -140 71 -145 q 126 -43 86 -126 q 92 -20 107 -34 q 40 109 40 25 q 64 241 40 166 q 444 716 150 516 q 570 760 510 760 q 617 749 597 760 q 799 840 691 810 q 805 838 801 842 m 621 635 q 631 668 631 651 q 611 717 631 693 q 553 610 572 679 q 554 595 550 602 q 565 590 558 589 q 621 635 600 601 z "},"":{"ha":617,"x_min":48,"x_max":854,"o":"m 816 948 q 646 825 743 886 q 635 826 638 819 q 639 839 631 832 q 782 982 685 885 q 792 985 786 985 q 811 976 802 985 q 820 957 820 968 q 816 948 820 952 m 851 864 q 844 853 854 855 q 694 771 764 844 q 755 699 750 753 q 739 665 755 679 q 683 643 705 643 q 656 647 670 643 q 628 713 614 662 q 643 744 632 724 q 573 733 599 746 q 363 504 363 629 q 372 454 363 479 q 506 497 444 492 q 587 466 565 503 q 593 436 595 455 q 579 411 589 421 q 466 365 534 365 q 361 409 400 365 q 139 221 228 334 q 94 95 94 164 q 126 -1 94 42 q 220 -28 152 -28 q 250 -25 238 -28 q 456 70 361 4 q 620 207 489 94 q 635 208 625 214 q 634 194 639 199 q 191 -66 393 -66 q 128 -53 161 -66 q 85 -29 94 -41 q 48 82 48 22 q 206 342 48 222 q 344 437 294 408 q 331 496 331 464 q 377 623 331 564 q 563 761 444 710 q 667 777 613 782 q 832 869 731 844 q 851 864 849 872 m 722 712 q 669 742 708 736 l 668 741 q 655 702 655 723 q 681 671 655 677 q 720 687 701 668 q 722 712 730 699 m 545 441 q 534 456 543 454 q 442 449 487 469 q 389 424 425 443 q 464 394 420 394 q 538 421 505 394 q 545 441 546 429 z "},"":{"ha":541,"x_min":29,"x_max":725,"o":"m 622 819 q 573 835 595 819 q 535 851 550 851 q 466 821 505 851 q 456 818 461 818 q 439 834 439 818 q 445 846 439 842 q 535 890 503 890 q 573 873 550 890 q 622 856 595 856 q 679 885 658 856 q 693 894 685 894 q 705 881 705 894 q 674 840 705 860 q 622 819 643 819 m 707 641 q 604 363 683 535 q 484 85 508 155 q 458 -56 458 8 q 523 -199 458 -156 q 527 -218 531 -204 q 505 -228 517 -233 q 446 -169 476 -229 q 423 -63 423 -123 q 431 12 423 -27 q 550 324 455 117 q 669 636 645 531 q 659 722 684 707 q 643 717 652 725 q 523 594 592 672 q 279 294 431 487 q 239 237 269 280 q 167 129 191 166 q 91 -3 116 50 q 64 -23 80 -25 q 54 -5 48 -21 q 59 12 56 2 q 290 431 136 149 q 379 680 379 601 q 357 751 379 722 q 280 779 323 779 q 112 696 201 779 q 81 637 81 668 q 99 605 81 618 q 138 593 117 593 q 156 596 149 593 q 216 626 180 607 q 228 621 224 630 q 224 611 231 615 q 159 569 204 591 q 107 556 133 556 q 51 576 73 556 q 30 628 29 596 q 78 721 31 680 q 288 812 180 812 q 392 768 356 812 q 411 692 411 737 q 278 337 411 586 q 600 724 394 487 q 646 769 620 748 q 691 780 669 786 q 706 763 699 777 q 707 641 725 720 z "},"":{"ha":441,"x_min":33,"x_max":782,"o":"m 743 881 q 725 849 743 869 q 699 828 708 828 q 680 841 682 828 q 691 881 676 859 q 728 909 706 904 q 743 881 743 913 m 620 881 q 604 849 620 869 q 578 828 587 828 q 558 841 559 828 q 569 881 555 859 q 606 909 583 904 q 620 881 620 913 m 778 759 q 731 710 766 734 q 693 680 719 700 q 665 526 698 607 q 514 250 601 371 q 183 -11 385 71 q 110 -28 144 -28 q 49 5 64 -28 q 33 74 33 37 q 67 204 33 129 q 406 648 193 486 q 405 661 405 655 q 456 749 405 712 q 577 792 517 794 q 670 750 644 790 q 690 701 684 729 q 761 765 729 730 q 772 770 768 771 q 778 759 782 769 m 598 757 q 567 763 584 761 q 494 743 529 767 q 451 680 453 714 q 598 757 520 727 m 655 676 q 643 726 652 706 q 619 750 636 741 q 456 658 538 718 q 538 630 474 629 q 604 646 573 631 q 655 676 631 661 m 656 652 q 538 603 595 607 q 418 628 446 595 q 259 463 344 569 q 127 253 194 381 q 80 80 80 161 q 95 28 80 41 q 137 16 111 16 q 198 31 165 16 q 488 267 377 108 q 655 636 622 457 q 656 652 656 641 z "},"":{"ha":532,"x_min":44,"x_max":826,"o":"m 722 882 q 705 850 722 870 q 679 829 688 829 q 659 842 662 829 q 670 882 656 860 q 707 910 685 905 q 722 882 722 914 m 600 882 q 583 850 600 870 q 557 829 567 829 q 538 842 539 829 q 549 882 534 860 q 586 910 563 905 q 600 882 600 914 m 824 828 q 817 812 824 821 q 489 276 706 642 q 433 134 456 216 q 409 -6 409 52 q 411 -35 409 -22 q 391 -62 411 -64 q 376 -49 380 -63 q 373 -19 373 -35 q 498 347 373 143 q 206 8 350 137 q 94 -44 149 -44 q 44 35 44 -44 q 192 379 44 144 q 258 479 220 425 q 294 536 269 498 q 430 779 386 667 q 431 813 437 798 q 382 818 424 827 q 335 797 356 812 q 253 684 260 744 q 243 671 251 680 q 231 676 234 668 q 331 818 234 746 q 421 854 381 854 q 464 812 464 854 q 400 663 464 783 q 285 477 364 596 q 168 291 202 353 q 96 102 111 188 q 92 56 92 73 q 127 -1 92 6 q 192 30 150 -6 q 508 388 348 161 q 766 781 594 519 q 793 820 775 794 q 820 840 810 847 q 824 828 826 838 z "},"":{"ha":470,"x_min":9,"x_max":529,"o":"m 524 420 q 355 297 451 358 q 344 298 346 292 q 347 311 340 305 q 491 455 394 357 q 500 457 494 457 q 519 449 510 457 q 529 430 529 440 q 524 420 529 424 m 519 102 q 431 18 469 45 q 363 -5 400 -5 q 348 -4 356 -5 q 306 29 317 1 q 301 59 301 44 q 323 126 301 84 q 231 59 295 103 q 125 5 197 39 q 63 -9 88 -9 q 29 2 39 -9 q 23 53 9 22 q 123 161 50 113 q 308 237 225 229 q 315 232 313 239 q 308 227 315 227 q 139 150 197 194 q 78 97 117 135 q 56 44 52 64 q 69 33 57 35 q 153 48 110 28 q 288 122 237 89 q 415 243 356 167 q 432 248 426 256 q 431 229 441 238 q 392 186 419 216 q 369 150 372 160 q 334 56 334 96 q 335 43 334 49 q 364 18 337 24 q 416 27 387 12 q 514 107 469 63 q 519 108 517 110 q 519 102 523 106 z "},"":{"ha":470,"x_min":9,"x_max":523,"o":"m 373 305 q 374 292 379 296 q 362 293 369 286 q 233 458 278 391 q 231 465 231 461 q 261 488 231 488 q 274 481 270 488 q 373 305 307 417 m 519 102 q 431 18 469 45 q 363 -5 400 -5 q 348 -4 356 -5 q 306 29 317 1 q 301 59 301 44 q 323 126 301 84 q 231 59 295 103 q 125 5 197 39 q 63 -9 88 -9 q 29 2 39 -9 q 23 53 9 22 q 123 161 50 113 q 308 237 225 229 q 315 232 313 239 q 308 227 315 227 q 139 150 197 194 q 78 97 117 135 q 56 44 52 64 q 69 33 57 35 q 153 48 110 28 q 288 122 237 89 q 415 243 356 167 q 432 248 426 256 q 431 229 441 238 q 392 186 419 216 q 369 150 372 160 q 334 56 334 96 q 335 43 334 49 q 364 18 337 24 q 416 27 387 12 q 514 107 469 63 q 519 108 517 110 q 519 102 523 106 z "},"":{"ha":470,"x_min":9,"x_max":523,"o":"m 481 334 q 487 319 487 328 q 473 300 487 300 q 464 303 469 300 q 431 336 460 306 q 398 364 406 364 q 245 304 374 364 q 231 315 231 299 q 240 328 231 323 q 334 385 260 338 q 406 416 383 416 q 446 379 416 416 q 481 334 464 356 m 519 102 q 431 18 469 45 q 363 -5 400 -5 q 348 -4 356 -5 q 306 29 317 1 q 301 59 301 44 q 323 126 301 84 q 231 59 295 103 q 125 5 197 39 q 63 -9 88 -9 q 29 2 39 -9 q 23 53 9 22 q 123 161 50 113 q 308 237 225 229 q 315 232 313 239 q 308 227 315 227 q 139 150 197 194 q 78 97 117 135 q 56 44 52 64 q 69 33 57 35 q 153 48 110 28 q 288 122 237 89 q 415 243 356 167 q 432 248 426 256 q 431 229 441 238 q 392 186 419 216 q 369 150 372 160 q 334 56 334 96 q 335 43 334 49 q 364 18 337 24 q 416 27 387 12 q 514 107 469 63 q 519 108 517 110 q 519 102 523 106 z "},"":{"ha":470,"x_min":9,"x_max":523,"o":"m 460 363 q 443 330 460 351 q 417 309 426 309 q 397 322 400 309 q 408 363 394 341 q 445 391 423 385 q 460 363 460 394 m 338 363 q 321 330 338 351 q 295 309 305 309 q 276 322 277 309 q 287 363 272 341 q 324 391 301 385 q 338 363 338 394 m 519 102 q 431 18 469 45 q 363 -5 400 -5 q 348 -4 356 -5 q 306 29 317 1 q 301 59 301 44 q 323 126 301 84 q 231 59 295 103 q 125 5 197 39 q 63 -9 88 -9 q 29 2 39 -9 q 23 53 9 22 q 123 161 50 113 q 308 237 225 229 q 315 232 313 239 q 308 227 315 227 q 139 150 197 194 q 78 97 117 135 q 56 44 52 64 q 69 33 57 35 q 153 48 110 28 q 288 122 237 89 q 415 243 356 167 q 432 248 426 256 q 431 229 441 238 q 392 186 419 216 q 369 150 372 160 q 334 56 334 96 q 335 43 334 49 q 364 18 337 24 q 416 27 387 12 q 514 107 469 63 q 519 108 517 110 q 519 102 523 106 z "},"":{"ha":470,"x_min":9,"x_max":523,"o":"m 416 307 q 366 323 389 307 q 329 339 344 339 q 259 309 298 339 q 249 306 255 306 q 232 322 232 306 q 239 334 232 330 q 329 378 296 378 q 366 361 344 378 q 416 344 389 344 q 472 373 452 344 q 486 382 479 382 q 498 369 498 382 q 467 328 498 348 q 416 307 436 307 m 519 102 q 431 18 469 45 q 363 -5 400 -5 q 348 -4 356 -5 q 306 29 317 1 q 301 59 301 44 q 323 126 301 84 q 231 59 295 103 q 125 5 197 39 q 63 -9 88 -9 q 29 2 39 -9 q 23 53 9 22 q 123 161 50 113 q 308 237 225 229 q 315 232 313 239 q 308 227 315 227 q 139 150 197 194 q 78 97 117 135 q 56 44 52 64 q 69 33 57 35 q 153 48 110 28 q 288 122 237 89 q 415 243 356 167 q 432 248 426 256 q 431 229 441 238 q 392 186 419 216 q 369 150 372 160 q 334 56 334 96 q 335 43 334 49 q 364 18 337 24 q 416 27 387 12 q 514 107 469 63 q 519 108 517 110 q 519 102 523 106 z "},"":{"ha":470,"x_min":9,"x_max":523,"o":"m 467 411 q 440 350 470 380 q 319 308 374 287 q 301 352 294 319 q 344 413 306 381 q 405 446 373 438 q 457 435 442 456 q 467 411 465 429 m 519 102 q 431 18 469 45 q 363 -5 400 -5 q 348 -4 356 -5 q 306 29 317 1 q 301 59 301 44 q 323 126 301 84 q 231 59 295 103 q 125 5 197 39 q 63 -9 88 -9 q 29 2 39 -9 q 23 53 9 22 q 123 161 50 113 q 308 237 225 229 q 315 232 313 239 q 308 227 315 227 q 139 150 197 194 q 78 97 117 135 q 56 44 52 64 q 69 33 57 35 q 153 48 110 28 q 288 122 237 89 q 415 243 356 167 q 432 248 426 256 q 431 229 441 238 q 392 186 419 216 q 369 150 372 160 q 334 56 334 96 q 335 43 334 49 q 364 18 337 24 q 416 27 387 12 q 514 107 469 63 q 519 108 517 110 q 519 102 523 106 m 444 411 q 440 421 443 415 q 398 419 426 431 q 364 399 393 418 q 337 372 350 388 q 331 346 331 359 q 340 334 326 338 q 416 365 370 331 q 444 411 445 394 z "},"":{"ha":392,"x_min":-43,"x_max":461,"o":"m 456 102 q 344 32 426 74 q 231 -5 302 11 q 105 -19 155 -21 q 85 -16 94 -18 q 66 -63 80 -32 q 85 -61 77 -61 q 127 -119 127 -61 q 78 -191 127 -161 q -23 -225 36 -217 q -43 -211 -43 -228 q -35 -204 -43 -206 q 93 -116 93 -177 q 77 -92 93 -92 q 54 -98 63 -92 q 37 -110 37 -110 q 30 -112 33 -112 q 19 -102 19 -112 q 22 -93 19 -97 q 65 -11 31 -81 q 40 0 51 -7 q 14 54 10 19 q 88 164 20 110 q 292 264 214 264 q 321 261 307 264 q 344 245 344 256 q 361 257 358 257 q 365 246 370 257 q 347 227 360 242 q 309 181 334 213 q 280 160 294 160 q 277 161 278 160 q 296 194 272 169 q 312 227 310 212 q 297 244 314 244 q 209 219 252 244 q 61 72 97 155 q 58 58 58 67 q 119 11 58 15 q 327 46 224 4 q 393 74 383 69 q 447 108 424 89 q 456 108 451 111 q 456 102 461 106 z "},"":{"ha":355,"x_min":6,"x_max":464,"o":"m 459 430 q 290 306 386 368 q 279 307 281 301 q 282 320 275 314 q 426 464 329 367 q 435 467 430 467 q 455 458 445 467 q 464 439 464 449 q 459 430 464 433 m 410 104 q 306 31 370 63 q 227 6 281 19 q 128 -8 167 -8 q 11 69 6 -8 q 25 107 12 88 q 161 219 65 169 q 325 263 256 270 q 334 256 329 260 q 335 248 337 253 l 332 240 q 323 228 330 236 q 301 209 319 225 q 69 109 200 160 q 48 71 56 98 q 136 21 55 27 q 213 28 160 19 q 290 46 267 37 q 397 111 353 72 q 408 111 402 116 q 410 104 415 108 m 303 237 q 279 239 303 242 q 89 136 163 210 q 283 220 199 179 q 303 237 303 234 z "},"":{"ha":355,"x_min":6,"x_max":415,"o":"m 271 319 q 272 306 277 310 q 260 306 268 300 q 131 472 176 405 q 130 479 130 475 q 159 502 130 502 q 172 495 169 502 q 271 319 206 431 m 410 104 q 306 31 370 63 q 227 6 281 19 q 128 -8 167 -8 q 11 69 6 -8 q 25 107 12 88 q 161 219 65 169 q 325 263 256 270 q 334 256 329 260 q 335 248 337 253 l 332 240 q 323 228 330 236 q 301 209 319 225 q 69 109 200 160 q 48 71 56 98 q 136 21 55 27 q 213 28 160 19 q 290 46 267 37 q 397 111 353 72 q 408 111 402 116 q 410 104 415 108 m 303 237 q 279 239 303 242 q 89 136 163 210 q 283 220 199 179 q 303 237 303 234 z "},"":{"ha":355,"x_min":6,"x_max":415,"o":"m 389 339 q 394 323 394 332 q 381 305 394 305 q 372 307 376 305 q 339 341 368 310 q 306 369 314 369 q 153 308 281 369 q 139 319 139 304 q 147 332 139 328 q 242 390 168 343 q 313 420 291 420 q 354 383 323 420 q 389 339 371 361 m 410 104 q 306 31 370 63 q 227 6 281 19 q 128 -8 167 -8 q 11 69 6 -8 q 25 107 12 88 q 161 219 65 169 q 325 263 256 270 q 334 256 329 260 q 335 248 337 253 l 332 240 q 323 228 330 236 q 301 209 319 225 q 69 109 200 160 q 48 71 56 98 q 136 21 55 27 q 213 28 160 19 q 290 46 267 37 q 397 111 353 72 q 408 111 402 116 q 410 104 415 108 m 303 237 q 279 239 303 242 q 89 136 163 210 q 283 220 199 179 q 303 237 303 234 z "},"":{"ha":355,"x_min":6,"x_max":415,"o":"m 377 372 q 360 339 377 360 q 333 319 343 319 q 314 331 317 319 q 325 372 310 350 q 362 400 340 394 q 377 372 377 404 m 255 372 q 238 339 255 360 q 212 319 221 319 q 193 331 194 319 q 203 372 189 350 q 241 400 218 394 q 255 372 255 404 m 410 104 q 306 31 370 63 q 227 6 281 19 q 128 -8 167 -8 q 11 69 6 -8 q 25 107 12 88 q 161 219 65 169 q 325 263 256 270 q 334 256 329 260 q 335 248 337 253 l 332 240 q 323 228 330 236 q 301 209 319 225 q 69 109 200 160 q 48 71 56 98 q 136 21 55 27 q 213 28 160 19 q 290 46 267 37 q 397 111 353 72 q 408 111 402 116 q 410 104 415 108 m 303 237 q 279 239 303 242 q 89 136 163 210 q 283 220 199 179 q 303 237 303 234 z "},"":{"ha":215,"x_min":19,"x_max":367,"o":"m 362 439 q 193 316 289 377 q 181 317 184 310 q 185 330 178 323 q 329 473 231 377 q 338 476 332 476 q 357 467 348 476 q 367 448 367 458 q 362 439 367 443 m 252 90 q 152 7 184 28 q 82 -15 114 -17 q 34 0 50 -13 q 19 37 19 14 q 50 117 19 74 q 108 197 68 143 q 144 244 118 210 q 166 265 150 250 q 190 256 179 278 q 181 238 192 251 q 167 219 178 232 q 60 65 90 127 q 56 49 56 58 q 94 14 56 14 q 138 24 120 14 q 243 96 198 58 q 251 96 246 99 q 252 90 256 94 z "},"":{"ha":215,"x_min":19,"x_max":256,"o":"m 193 323 q 194 310 198 315 q 181 311 189 305 q 53 477 97 409 q 51 483 51 480 q 81 506 51 506 q 94 500 90 506 q 193 323 127 435 m 252 90 q 152 7 184 28 q 82 -15 114 -17 q 34 0 50 -13 q 19 37 19 14 q 50 117 19 74 q 108 197 68 143 q 144 244 118 210 q 166 265 150 250 q 190 256 179 278 q 181 238 192 251 q 167 219 178 232 q 60 65 90 127 q 56 49 56 58 q 94 14 56 14 q 138 24 120 14 q 243 96 198 58 q 251 96 246 99 q 252 90 256 94 z "},"":{"ha":215,"x_min":19,"x_max":311,"o":"m 306 325 q 311 309 311 319 q 297 291 311 291 q 288 294 293 291 q 256 327 284 296 q 222 355 231 355 q 69 294 198 355 q 56 306 56 290 q 64 319 56 314 q 158 376 84 329 q 230 406 207 406 q 270 369 240 406 q 306 325 288 347 m 252 90 q 152 7 184 28 q 82 -15 114 -17 q 34 0 50 -13 q 19 37 19 14 q 50 117 19 74 q 108 197 68 143 q 144 244 118 210 q 166 265 150 250 q 190 256 179 278 q 181 238 192 251 q 167 219 178 232 q 60 65 90 127 q 56 49 56 58 q 94 14 56 14 q 138 24 120 14 q 243 96 198 58 q 251 96 246 99 q 252 90 256 94 z "},"":{"ha":215,"x_min":19,"x_max":294,"o":"m 294 368 q 276 335 294 356 q 250 314 259 314 q 231 327 233 314 q 242 368 227 345 q 279 395 256 390 q 294 368 294 399 m 171 368 q 155 335 171 356 q 129 314 138 314 q 109 327 110 314 q 120 368 106 345 q 157 395 134 390 q 171 368 171 399 m 252 90 q 152 7 184 28 q 82 -15 114 -17 q 34 0 50 -13 q 19 37 19 14 q 50 117 19 74 q 108 197 68 143 q 144 244 118 210 q 166 265 150 250 q 190 256 179 278 q 181 238 192 251 q 167 219 178 232 q 60 65 90 127 q 56 49 56 58 q 94 14 56 14 q 138 24 120 14 q 243 96 198 58 q 251 96 246 99 q 252 90 256 94 z "},"":{"ha":479,"x_min":26,"x_max":548,"o":"m 393 278 q 343 294 366 278 q 306 309 320 309 q 236 280 275 309 q 226 276 231 276 q 209 293 209 276 q 216 305 209 300 q 306 348 273 348 q 343 331 320 348 q 393 315 366 315 q 449 344 429 315 q 463 353 456 353 q 475 339 475 353 q 444 298 475 319 q 393 278 413 278 m 544 94 q 442 10 473 31 q 375 -12 406 -12 q 306 26 318 -12 q 323 100 295 65 q 382 178 382 175 q 369 181 382 185 q 190 83 284 155 q 69 -18 129 33 l 52 -29 q 35 -33 43 -33 q 26 -26 27 -33 q 31 -9 26 -15 l 41 0 q 135 103 82 42 q 186 173 187 165 q 180 179 183 179 q 128 146 168 179 q 45 76 87 111 q 35 79 38 69 q 38 90 35 87 q 120 160 80 125 q 197 207 174 204 q 234 190 225 211 q 224 159 235 184 q 182 100 210 129 q 391 217 286 172 q 419 222 404 222 q 445 208 444 222 q 434 183 447 201 q 378 112 420 163 q 343 43 341 73 q 375 18 344 25 q 428 27 401 11 q 534 101 487 60 q 543 101 538 104 q 544 94 548 98 z "},"":{"ha":359,"x_min":7,"x_max":478,"o":"m 473 420 q 304 297 400 358 q 293 298 295 292 q 296 311 289 305 q 440 455 343 357 q 449 457 444 457 q 469 449 459 457 q 478 430 478 440 q 473 420 478 424 m 420 114 q 419 112 420 114 q 406 100 418 109 q 327 65 361 69 q 294 62 296 62 q 277 66 281 64 q 86 -25 180 -25 q 33 -14 58 -25 q 12 17 17 -6 q 14 57 7 38 q 109 178 33 117 q 237 243 166 224 q 271 253 252 253 q 338 211 324 253 q 341 182 341 202 q 296 85 341 142 q 324 84 313 83 q 398 116 356 87 q 412 123 398 116 q 420 122 419 127 q 420 114 423 119 m 319 183 q 310 209 319 197 q 271 231 295 231 q 228 167 228 231 q 268 96 228 116 q 319 183 319 155 m 248 80 q 198 166 198 103 q 211 212 198 188 q 132 168 169 195 q 69 105 95 140 q 46 51 52 82 q 53 27 44 39 q 79 13 62 15 q 101 12 90 12 q 184 34 144 12 q 248 80 201 44 z "},"":{"ha":359,"x_min":7,"x_max":423,"o":"m 308 309 q 309 296 314 301 q 297 297 305 291 q 169 463 213 395 q 167 469 167 466 q 196 493 167 493 q 209 486 206 493 q 308 309 243 421 m 420 114 q 419 112 420 114 q 406 100 418 109 q 327 65 361 69 q 294 62 296 62 q 277 66 281 64 q 86 -25 180 -25 q 33 -14 58 -25 q 12 17 17 -6 q 14 57 7 38 q 109 178 33 117 q 237 243 166 224 q 271 253 252 253 q 338 211 324 253 q 341 182 341 202 q 296 85 341 142 q 324 84 313 83 q 398 116 356 87 q 412 123 398 116 q 420 122 419 127 q 420 114 423 119 m 319 183 q 310 209 319 197 q 271 231 295 231 q 228 167 228 231 q 268 96 228 116 q 319 183 319 155 m 248 80 q 198 166 198 103 q 211 212 198 188 q 132 168 169 195 q 69 105 95 140 q 46 51 52 82 q 53 27 44 39 q 79 13 62 15 q 101 12 90 12 q 184 34 144 12 q 248 80 201 44 z "},"":{"ha":359,"x_min":7,"x_max":423,"o":"m 407 311 q 413 295 413 305 q 399 277 413 277 q 390 280 394 277 q 357 313 386 282 q 324 341 332 341 q 171 281 300 341 q 157 292 157 276 q 166 305 157 300 q 260 362 186 315 q 331 393 309 393 q 372 356 342 393 q 407 311 390 333 m 420 114 q 419 112 420 114 q 406 100 418 109 q 327 65 361 69 q 294 62 296 62 q 277 66 281 64 q 86 -25 180 -25 q 33 -14 58 -25 q 12 17 17 -6 q 14 57 7 38 q 109 178 33 117 q 237 243 166 224 q 271 253 252 253 q 338 211 324 253 q 341 182 341 202 q 296 85 341 142 q 324 84 313 83 q 398 116 356 87 q 412 123 398 116 q 420 122 419 127 q 420 114 423 119 m 319 183 q 310 209 319 197 q 271 231 295 231 q 228 167 228 231 q 268 96 228 116 q 319 183 319 155 m 248 80 q 198 166 198 103 q 211 212 198 188 q 132 168 169 195 q 69 105 95 140 q 46 51 52 82 q 53 27 44 39 q 79 13 62 15 q 101 12 90 12 q 184 34 144 12 q 248 80 201 44 z "},"":{"ha":359,"x_min":7,"x_max":423,"o":"m 419 358 q 401 325 419 346 q 375 305 384 305 q 356 318 358 305 q 367 358 352 336 q 404 386 381 381 q 419 358 419 390 m 296 358 q 280 325 296 346 q 254 305 263 305 q 234 318 235 305 q 245 358 231 336 q 282 386 259 381 q 296 358 296 390 m 420 114 q 419 112 420 114 q 406 100 418 109 q 327 65 361 69 q 294 62 296 62 q 277 66 281 64 q 86 -25 180 -25 q 33 -14 58 -25 q 12 17 17 -6 q 14 57 7 38 q 109 178 33 117 q 237 243 166 224 q 271 253 252 253 q 338 211 324 253 q 341 182 341 202 q 296 85 341 142 q 324 84 313 83 q 398 116 356 87 q 412 123 398 116 q 420 122 419 127 q 420 114 423 119 m 319 183 q 310 209 319 197 q 271 231 295 231 q 228 167 228 231 q 268 96 228 116 q 319 183 319 155 m 248 80 q 198 166 198 103 q 211 212 198 188 q 132 168 169 195 q 69 105 95 140 q 46 51 52 82 q 53 27 44 39 q 79 13 62 15 q 101 12 90 12 q 184 34 144 12 q 248 80 201 44 z "},"":{"ha":359,"x_min":7,"x_max":423,"o":"m 337 292 q 288 307 310 292 q 250 323 265 323 q 181 294 219 323 q 170 290 176 290 q 154 306 154 290 q 160 319 154 314 q 250 362 218 362 q 288 345 265 362 q 337 329 310 329 q 394 357 373 329 q 407 367 400 367 q 419 353 419 367 q 388 312 419 332 q 337 292 357 292 m 420 114 q 419 112 420 114 q 406 100 418 109 q 327 65 361 69 q 294 62 296 62 q 277 66 281 64 q 86 -25 180 -25 q 33 -14 58 -25 q 12 17 17 -6 q 14 57 7 38 q 109 178 33 117 q 237 243 166 224 q 271 253 252 253 q 338 211 324 253 q 341 182 341 202 q 296 85 341 142 q 324 84 313 83 q 398 116 356 87 q 412 123 398 116 q 420 122 419 127 q 420 114 423 119 m 319 183 q 310 209 319 197 q 271 231 295 231 q 228 167 228 231 q 268 96 228 116 q 319 183 319 155 m 248 80 q 198 166 198 103 q 211 212 198 188 q 132 168 169 195 q 69 105 95 140 q 46 51 52 82 q 53 27 44 39 q 79 13 62 15 q 101 12 90 12 q 184 34 144 12 q 248 80 201 44 z "},"":{"ha":374,"x_min":-10,"x_max":425,"o":"m 418 406 q 248 283 344 344 q 237 284 240 278 q 241 297 233 291 q 384 441 287 344 q 394 444 388 444 q 413 435 404 444 q 422 416 422 426 q 418 406 422 410 m 420 94 q 320 16 366 44 q 251 -6 285 -6 q 203 8 216 -6 q 201 81 178 36 q 123 19 168 46 q 43 -12 75 -10 q 3 4 18 -14 q -6 35 -10 19 q 54 139 0 68 q 119 220 86 180 q 148 233 136 241 q 152 228 152 231 q 132 203 152 227 q 88 152 110 177 q 33 59 52 106 q 31 52 31 56 q 68 26 31 25 q 190 98 119 28 q 308 231 249 164 q 320 236 313 236 q 336 223 336 236 q 334 218 336 220 q 292 168 323 204 q 229 73 252 122 q 226 57 226 67 q 262 22 226 22 q 306 32 288 22 q 411 101 374 69 q 419 101 415 104 q 420 94 425 98 z "},"":{"ha":374,"x_min":-10,"x_max":425,"o":"m 244 286 q 244 273 249 278 q 232 274 240 268 q 104 440 148 372 q 102 446 102 443 q 131 469 102 469 q 144 463 141 469 q 244 286 178 398 m 420 94 q 320 16 366 44 q 251 -6 285 -6 q 203 8 216 -6 q 201 81 178 36 q 123 19 168 46 q 43 -12 75 -10 q 3 4 18 -14 q -6 35 -10 19 q 54 139 0 68 q 119 220 86 180 q 148 233 136 241 q 152 228 152 231 q 132 203 152 227 q 88 152 110 177 q 33 59 52 106 q 31 52 31 56 q 68 26 31 25 q 190 98 119 28 q 308 231 249 164 q 320 236 313 236 q 336 223 336 236 q 334 218 336 220 q 292 168 323 204 q 229 73 252 122 q 226 57 226 67 q 262 22 226 22 q 306 32 288 22 q 411 101 374 69 q 419 101 415 104 q 420 94 425 98 z "},"":{"ha":374,"x_min":-10,"x_max":425,"o":"m 375 320 q 381 305 381 314 q 367 286 381 286 q 358 289 362 286 q 325 322 354 292 q 292 350 300 350 q 139 290 268 350 q 125 301 125 285 q 133 314 125 309 q 228 371 154 324 q 299 402 277 402 q 340 365 309 402 q 375 320 357 343 m 420 94 q 320 16 366 44 q 251 -6 285 -6 q 203 8 216 -6 q 201 81 178 36 q 123 19 168 46 q 43 -12 75 -10 q 3 4 18 -14 q -6 35 -10 19 q 54 139 0 68 q 119 220 86 180 q 148 233 136 241 q 152 228 152 231 q 132 203 152 227 q 88 152 110 177 q 33 59 52 106 q 31 52 31 56 q 68 26 31 25 q 190 98 119 28 q 308 231 249 164 q 320 236 313 236 q 336 223 336 236 q 334 218 336 220 q 292 168 323 204 q 229 73 252 122 q 226 57 226 67 q 262 22 226 22 q 306 32 288 22 q 411 101 374 69 q 419 101 415 104 q 420 94 425 98 z "},"":{"ha":374,"x_min":-10,"x_max":425,"o":"m 354 354 q 337 321 354 342 q 310 300 319 300 q 291 313 294 300 q 302 354 287 331 q 339 381 317 376 q 354 354 354 385 m 231 354 q 215 321 231 342 q 189 300 198 300 q 169 313 170 300 q 180 354 166 331 q 218 381 194 376 q 231 354 231 385 m 420 94 q 320 16 366 44 q 251 -6 285 -6 q 203 8 216 -6 q 201 81 178 36 q 123 19 168 46 q 43 -12 75 -10 q 3 4 18 -14 q -6 35 -10 19 q 54 139 0 68 q 119 220 86 180 q 148 233 136 241 q 152 228 152 231 q 132 203 152 227 q 88 152 110 177 q 33 59 52 106 q 31 52 31 56 q 68 26 31 25 q 190 98 119 28 q 308 231 249 164 q 320 236 313 236 q 336 223 336 236 q 334 218 336 220 q 292 168 323 204 q 229 73 252 122 q 226 57 226 67 q 262 22 226 22 q 306 32 288 22 q 411 101 374 69 q 419 101 415 104 q 420 94 425 98 z "},"":{"ha":541,"x_min":49,"x_max":495,"o":"m 481 457 q 438 450 463 450 q 360 461 409 450 q 286 478 299 476 q 285 444 285 461 q 331 258 285 352 q 289 -194 289 31 q 292 -300 289 -247 l 268 -300 q 237 205 271 -57 l 223 250 l 262 344 l 268 478 q 111 453 128 453 q 81 455 95 453 q 53 494 49 470 q 104 527 71 527 l 268 497 q 246 598 265 525 q 231 700 231 663 q 237 747 231 725 q 272 776 245 776 q 283 774 278 776 q 308 757 296 769 q 318 695 318 731 q 305 595 318 657 q 286 497 288 511 q 357 515 321 506 q 432 527 404 527 q 476 519 457 527 q 495 485 495 503 q 481 457 495 470 z "},"":{"ha":359,"x_min":170,"x_max":384,"o":"m 384 682 q 345 610 384 644 q 228 555 282 555 q 198 561 212 555 q 182 612 170 573 q 240 684 194 647 q 316 723 276 713 q 377 710 359 734 q 384 682 384 704 m 357 682 q 354 694 357 685 q 305 693 338 706 q 261 668 294 688 q 227 636 241 652 q 216 606 218 621 q 226 592 210 595 q 319 628 262 587 q 357 682 357 664 z "},"":{"ha":460,"x_min":101,"x_max":544,"o":"m 541 588 q 481 517 515 569 q 454 469 468 498 q 441 461 450 461 q 425 472 425 461 q 427 477 426 475 l 429 483 q 449 516 432 492 q 452 537 452 523 q 434 554 452 554 q 383 545 408 554 q 254 192 346 444 q 457 323 347 209 q 467 328 462 328 q 475 319 475 328 q 470 310 475 315 q 371 215 400 238 q 239 151 306 162 q 166 -55 218 91 q 149 -67 166 -70 q 142 -60 145 -67 q 140 -50 139 -54 q 210 148 171 44 l 201 148 q 131 173 162 148 q 101 235 101 198 q 140 375 101 310 q 222 474 165 417 q 371 576 293 544 q 440 741 403 654 l 442 741 l 442 742 q 447 743 444 742 q 456 731 456 743 q 398 585 429 666 q 444 593 423 593 q 486 559 482 593 q 531 602 512 589 q 534 604 532 604 q 542 597 539 604 q 541 588 544 591 m 356 535 q 239 457 290 508 q 168 370 188 406 q 136 247 136 317 q 158 204 136 221 q 208 187 181 187 q 225 188 219 187 q 356 535 269 307 z "},"":{"ha":871,"x_min":9,"x_max":845,"o":"m 844 656 q 752 501 839 596 q 738 494 746 494 q 725 506 725 494 q 731 518 725 512 q 779 579 764 556 q 807 656 805 619 q 773 718 809 689 q 738 729 759 729 q 591 621 673 729 q 512 485 554 573 q 442 346 462 380 q 473 346 455 346 q 502 345 493 345 q 528 346 506 345 q 556 346 544 347 q 606 343 577 346 q 615 329 614 341 q 608 314 617 316 q 558 309 604 312 q 500 307 531 307 q 439 309 498 307 q 420 309 439 309 q 267 111 353 198 q 197 46 244 88 q 292 3 229 30 q 494 -33 396 -33 q 613 -4 549 -33 q 702 59 673 24 q 716 72 707 64 q 733 81 724 81 q 750 65 750 81 q 743 48 750 56 l 730 32 q 628 -40 696 -8 q 492 -73 556 -73 q 286 -29 414 -73 q 167 24 249 -9 q 50 -10 110 -10 q 12 29 9 -10 q 49 56 14 46 q 106 65 77 65 q 158 58 131 65 q 245 131 194 80 q 379 311 319 207 l 324 313 q 295 315 317 313 q 278 328 278 316 q 300 346 278 345 q 331 346 306 348 l 399 346 l 427 399 q 489 527 458 463 q 560 644 526 601 q 740 769 656 769 q 793 755 769 769 q 829 713 813 743 q 844 656 845 683 m 95 34 q 51 29 52 38 q 53 30 51 29 q 95 34 72 30 z "},"":{"ha":474,"x_min":-59,"x_max":585,"o":"m 583 700 q 555 629 581 652 q 496 603 537 614 q 473 623 473 596 q 494 640 473 635 q 532 652 524 646 q 556 698 554 665 q 506 746 558 746 q 407 705 456 746 q 341 561 345 651 q 359 407 337 488 q 378 276 381 327 q 330 156 374 198 q 238 119 291 119 q 203 130 218 119 q 217 -35 220 43 q 138 -206 211 -145 q 20 -254 81 -254 q -55 -170 -59 -254 q 33 -72 -50 -87 q 56 -87 56 -69 q 39 -104 56 -101 q -27 -169 -24 -116 q -12 -204 -28 -191 q 22 -217 4 -217 q 121 -178 73 -217 q 189 -37 184 -127 q 170 119 193 36 q 151 254 148 203 q 199 368 155 320 q 296 415 243 415 q 325 409 313 415 q 311 565 307 495 q 390 736 318 675 q 508 783 446 783 q 561 764 540 783 q 583 700 585 741 m 348 267 q 334 345 351 313 q 294 378 318 378 q 219 340 255 378 q 182 257 184 302 q 194 195 181 228 q 240 156 212 156 q 348 267 342 156 z "},"":{"ha":359,"x_min":109,"x_max":425,"o":"m 420 358 q 369 244 425 298 q 190 160 280 160 q 145 169 166 160 q 116 205 124 178 q 114 248 109 228 q 194 360 129 310 q 310 423 241 405 q 339 427 324 427 q 406 401 388 427 q 420 358 418 393 z "},"":{"ha":606,"x_min":122,"x_max":867,"o":"m 859 730 q 862 717 867 728 q 850 706 857 705 q 756 715 819 709 q 747 716 754 715 q 745 709 747 713 q 663 544 718 651 q 428 82 587 392 q 314 -130 382 -2 q 297 -140 308 -140 q 276 -120 276 -140 q 279 -111 276 -116 q 393 101 324 -27 q 630 560 469 253 q 714 719 686 665 q 693 719 706 719 q 654 720 680 719 q 614 721 628 721 l 594 721 q 592 709 594 717 q 509 544 564 651 q 274 82 433 392 q 160 -130 229 -2 q 144 -140 155 -140 q 122 -120 122 -140 q 125 -111 122 -116 q 182 -5 137 -89 q 239 101 228 80 q 476 560 316 253 q 561 719 506 616 q 254 631 361 706 q 191 513 191 588 q 226 406 191 452 q 319 357 263 357 q 327 350 327 357 q 319 343 327 343 q 201 397 254 343 q 149 517 149 452 q 228 649 149 593 q 614 750 369 750 q 656 749 628 750 q 696 747 683 747 q 751 746 734 747 q 859 730 777 744 z "},"":{"ha":607,"x_min":57,"x_max":679,"o":"m 679 648 q 619 549 679 594 q 510 479 565 514 q 451 394 451 438 q 501 229 451 339 q 551 81 551 119 q 492 -39 551 15 q 382 -88 437 -88 q 301 -49 337 -88 q 258 78 258 -3 q 320 211 258 159 q 332 216 326 216 q 351 196 351 216 q 344 183 351 189 q 295 78 295 142 q 324 -21 295 14 q 396 -56 352 -56 q 475 -14 437 -56 q 514 81 514 28 q 464 238 514 135 q 414 394 414 342 q 473 479 414 438 q 582 549 528 514 q 642 648 642 594 q 581 740 642 740 q 435 622 492 740 q 94 -58 392 531 q 78 -69 88 -69 q 57 -51 57 -69 q 60 -42 57 -46 l 410 639 q 581 777 478 777 q 650 742 622 777 q 679 648 679 706 z "},"":{"ha":606,"x_min":189,"x_max":657,"o":"m 657 596 q 577 406 657 505 q 342 288 480 288 q 189 462 189 288 q 282 641 189 544 q 500 748 384 748 q 614 706 571 748 q 657 596 657 663 m 637 596 q 600 691 637 655 q 500 728 562 728 q 296 628 392 728 q 209 462 209 538 q 342 308 209 308 q 561 419 471 308 q 637 596 637 511 m 549 646 q 518 594 549 625 q 474 561 501 577 q 436 539 461 551 q 440 516 443 528 q 429 452 439 493 q 419 400 419 412 q 428 375 419 383 l 432 375 q 452 391 442 376 q 459 394 452 394 q 461 387 462 387 q 427 357 453 357 q 418 361 419 357 q 404 413 397 376 q 419 471 406 429 q 423 526 426 494 q 422 533 422 537 l 417 531 q 361 442 409 517 q 322 401 347 420 q 318 400 317 400 q 309 404 312 400 q 306 423 306 414 q 311 453 307 431 q 322 454 317 456 q 319 433 320 444 q 321 419 317 421 l 324 419 q 391 514 336 428 q 398 525 394 519 q 381 523 394 525 q 367 533 367 523 q 377 547 368 538 q 414 556 397 559 q 428 581 421 569 q 459 656 448 625 q 394 626 432 649 l 394 625 q 414 621 394 626 q 419 618 419 621 q 414 612 419 614 q 380 617 390 608 q 376 625 369 617 q 382 633 376 630 q 466 672 409 650 q 466 677 466 673 q 474 681 467 681 q 478 673 481 681 q 477 672 477 673 q 549 646 549 687 m 530 641 q 509 663 531 661 q 473 659 496 665 l 473 661 l 475 660 q 428 551 457 611 q 430 550 428 550 q 460 567 445 557 q 530 641 527 610 m 408 545 q 405 545 406 546 q 384 538 387 544 q 406 542 385 536 q 408 545 407 544 z "},"":{"ha":700,"x_min":92,"x_max":867,"o":"m 867 489 q 806 285 867 400 q 631 75 739 156 q 344 -22 502 -22 q 92 264 92 -22 q 164 458 92 347 q 351 651 240 575 q 608 739 479 739 q 797 668 725 739 q 867 489 867 598 m 839 489 q 776 649 839 587 q 608 711 713 711 q 365 629 486 711 q 188 447 260 556 q 119 264 119 342 q 344 6 119 6 q 616 97 493 6 q 782 296 718 174 q 839 489 839 405 m 741 659 q 737 652 740 652 q 638 597 704 635 q 633 594 637 595 q 648 553 648 576 q 626 500 648 522 q 569 469 595 469 q 553 479 557 469 q 551 499 549 489 q 600 588 561 551 q 525 570 567 598 q 347 389 419 500 q 278 199 278 281 q 295 144 278 163 q 372 114 327 110 q 565 249 468 121 q 580 250 569 258 q 580 238 583 246 q 373 82 479 89 q 281 108 314 79 q 247 194 247 138 q 262 278 247 230 q 507 582 316 451 q 591 612 550 612 q 619 606 607 612 q 733 662 667 644 q 741 659 737 666 m 619 531 q 616 577 632 553 q 581 512 594 556 q 585 502 578 504 q 619 531 606 509 z "},"":{"ha":607,"x_min":235,"x_max":805,"o":"m 706 694 q 706 681 712 688 q 696 674 699 675 q 542 646 638 640 q 526 621 537 638 q 460 514 494 568 q 381 415 419 447 q 363 414 368 408 q 369 435 356 423 q 453 536 411 470 q 522 648 488 593 q 508 651 516 651 q 343 680 363 680 q 267 660 296 680 q 286 658 274 660 q 290 653 289 650 q 285 647 290 647 q 256 644 273 644 q 237 654 238 645 q 244 668 235 660 q 341 695 284 695 q 489 672 356 695 q 532 669 504 671 q 589 741 548 694 l 592 736 l 590 735 l 587 740 q 603 744 594 750 q 601 728 609 733 q 556 669 578 706 q 605 668 588 667 q 694 696 629 669 q 706 694 699 702 m 805 495 q 751 450 782 473 q 704 438 716 436 q 681 458 684 442 q 691 500 676 481 q 728 549 728 548 q 725 548 727 550 q 663 512 701 542 q 615 462 626 481 q 598 447 606 447 q 592 456 592 447 q 616 501 592 462 q 641 544 641 540 q 638 543 640 544 q 563 495 602 531 q 510 444 536 470 q 502 439 506 442 q 494 436 497 436 q 483 444 486 436 q 486 456 481 450 l 491 460 q 555 540 556 526 q 471 473 553 540 q 461 479 467 469 q 464 485 462 484 q 562 561 504 521 q 583 547 574 563 q 578 531 584 543 q 574 524 577 528 q 637 565 603 549 q 644 566 638 565 q 653 567 649 567 q 668 556 667 567 q 663 542 669 552 q 644 513 657 531 q 725 570 669 535 q 741 572 732 573 q 757 563 756 573 q 751 548 758 560 q 722 506 744 535 q 705 470 704 481 q 716 458 705 461 q 740 463 722 456 q 796 501 759 474 q 803 502 799 503 q 805 495 805 500 z "},"":{"ha":221,"x_min":196,"x_max":385,"o":"m 381 735 q 211 612 307 673 q 200 613 203 606 q 204 626 196 619 q 347 769 250 672 q 356 772 351 772 q 376 763 367 772 q 385 744 385 755 q 381 735 385 739 z "},"":{"ha":197,"x_min":198,"x_max":386,"o":"m 386 729 q 369 696 386 717 q 343 675 352 675 q 323 688 326 675 q 334 729 319 706 q 371 756 349 751 q 386 729 386 760 m 264 729 q 247 696 264 717 q 221 675 231 675 q 202 688 203 675 q 213 729 198 706 q 250 756 227 751 q 264 729 264 760 z "},"":{"ha":1161,"x_min":37,"x_max":1426,"o":"m 1425 862 q 1417 851 1426 853 q 1260 771 1338 844 q 1311 701 1313 753 q 1291 667 1310 682 q 1234 645 1256 645 q 1208 650 1222 645 q 1184 689 1184 659 q 1188 714 1184 701 q 1206 745 1194 724 q 1138 734 1161 747 q 903 494 903 626 q 906 460 903 477 q 1044 503 981 497 q 1119 472 1101 508 q 1120 443 1126 461 q 1104 419 1115 430 q 988 372 1056 372 q 891 417 923 372 q 650 232 753 344 q 589 89 589 166 q 610 15 589 48 q 700 -12 633 -12 q 730 -9 718 -12 q 943 84 842 19 q 1120 219 972 104 q 1135 219 1125 225 q 1132 206 1137 211 q 681 -48 899 -15 q 665 -49 674 -49 q 606 -38 635 -49 q 568 -13 576 -27 q 544 76 543 29 q 687 414 545 198 q 616 339 657 379 q 529 251 564 290 q 342 87 464 180 q 225 0 237 7 q 90 -37 157 -41 q 56 -11 74 -36 q 41 41 37 15 q 369 506 71 259 q 666 686 470 589 q 810 729 752 729 q 831 718 831 729 q 819 705 831 703 q 674 663 774 711 q 419 506 533 594 q 217 318 286 404 q 93 77 132 213 q 107 31 92 52 q 127 15 119 15 q 225 44 177 17 q 323 112 256 60 q 506 271 447 207 q 705 485 606 379 q 888 707 817 608 q 907 719 896 725 q 914 703 919 711 q 783 503 849 603 q 655 287 706 381 q 731 350 676 310 q 876 444 819 412 q 870 482 870 461 q 931 626 870 557 q 1131 761 1008 712 q 1233 777 1182 782 q 1407 867 1302 842 q 1425 862 1424 869 m 1281 713 q 1232 743 1271 736 l 1231 742 q 1213 698 1213 723 q 1234 673 1213 678 q 1276 689 1256 669 q 1281 713 1286 703 m 1075 447 q 1066 462 1073 459 q 974 456 1019 474 q 919 431 946 444 q 989 402 946 402 q 1065 429 1028 402 q 1075 447 1075 436 z "},"":{"ha":572,"x_min":-98,"x_max":847,"o":"m 843 727 q 684 587 797 687 q 665 526 677 556 q 514 250 602 372 q 183 -11 385 71 q 110 -28 144 -28 q 48 6 64 -28 q 41 23 46 11 q -70 -71 -52 -55 q -81 -76 -75 -76 q -98 -58 -98 -76 q -92 -46 -98 -51 q 33 60 -58 -18 q 67 204 30 121 q 406 648 194 487 q 405 661 405 655 q 456 749 405 712 q 577 792 517 794 q 670 750 644 790 q 690 701 684 729 q 761 765 729 730 q 772 770 768 771 q 778 759 782 769 q 731 710 766 734 q 693 680 719 700 q 692 633 694 654 q 823 746 770 700 q 833 750 828 750 q 847 736 847 750 q 843 727 847 731 m 598 757 q 567 763 584 761 q 494 743 529 767 q 451 680 453 714 q 598 757 520 727 m 655 676 q 643 726 652 706 q 619 750 636 741 q 456 658 538 718 q 538 630 474 629 q 604 646 573 631 q 655 676 631 661 m 656 652 q 538 603 595 607 q 418 628 446 595 q 259 463 344 569 q 127 253 191 378 q 81 99 86 173 l 194 194 q 522 486 301 292 q 644 592 561 519 q 656 652 656 636 m 630 538 q 544 462 593 506 q 215 169 437 366 q 81 56 150 112 q 137 16 90 16 q 198 31 165 16 q 488 267 377 108 q 630 538 587 408 z "},"":{"ha":423,"x_min":96,"x_max":509,"o":"m 491 302 q 365 301 443 302 q 331 301 365 301 q 322 267 328 290 q 292 156 317 244 q 270 137 286 137 q 258 155 256 137 q 286 267 269 196 q 294 300 291 285 l 266 300 q 208 300 251 300 q 155 301 166 301 q 136 317 136 301 q 154 334 136 331 q 266 336 195 335 q 303 337 306 337 q 309 365 304 340 q 341 483 323 416 q 366 510 347 510 q 381 492 382 510 q 348 366 368 443 q 341 338 344 349 q 352 338 344 338 q 364 339 360 339 q 482 340 415 339 q 509 322 509 341 q 491 302 509 306 m 381 74 q 270 73 340 74 q 181 72 207 72 q 146 72 167 72 q 115 73 126 73 q 96 89 96 73 q 115 106 96 104 q 181 108 133 107 q 269 111 207 109 q 372 112 313 111 q 399 94 399 113 q 381 74 399 78 z "},"":{"ha":556,"x_min":-67,"x_max":856,"o":"m 855 788 q 849 775 856 782 q 834 765 841 767 q 628 627 719 727 q 481 473 555 550 q 326 298 374 361 q 438 299 374 298 q 465 281 465 300 q 446 261 465 265 q 320 260 398 261 q 303 260 320 260 q 266 188 288 231 q 279 189 269 189 q 397 190 330 189 q 424 172 424 191 q 406 152 424 156 q 280 151 357 152 q 245 150 269 151 q 134 -63 214 94 q 132 -61 134 -63 l 128 -75 q 111 -82 124 -87 q 103 -67 100 -78 l 104 -66 l 106 -56 q 208 150 150 36 l 181 150 q 124 150 166 150 q 69 151 81 151 q 51 167 51 151 q 69 184 51 181 q 181 186 110 185 q 227 187 225 187 q 262 259 238 209 l 221 259 q 164 260 206 259 q 110 260 121 260 q 92 276 92 260 q 109 294 92 291 q 221 295 152 294 q 279 296 245 296 q 338 556 315 406 q 321 721 349 631 q 230 789 301 786 q 95 752 181 791 q -28 641 -11 704 l -30 629 q 11 606 -22 606 q 29 609 20 606 q 41 608 37 613 q 32 597 43 602 q -11 588 12 588 q -60 612 -49 588 q -59 653 -67 627 q 0 727 -51 689 q 231 812 112 811 q 351 736 323 813 q 373 598 373 673 q 371 561 373 578 q 323 342 357 458 q 458 493 362 393 q 600 639 584 621 q 838 798 719 770 q 855 788 850 801 z "},"":{"ha":374,"x_min":-118,"x_max":425,"o":"m 420 94 q 320 16 366 44 q 251 -6 285 -6 q 203 8 216 -6 q 201 81 178 36 q 123 19 168 46 q 43 -12 75 -10 q 4 2 18 -14 q -32 -66 -6 -12 q -55 -119 -49 -108 q -85 -148 -69 -145 q -118 -121 -118 -153 q -69 -58 -118 -99 q -6 35 -16 -13 q 54 139 0 68 q 119 220 86 180 q 148 233 136 241 q 152 228 152 231 q 132 203 152 227 q 88 152 110 177 q 33 59 52 106 q 31 52 31 56 q 68 26 31 25 q 190 98 119 28 q 308 231 249 164 q 320 236 313 236 q 336 223 336 236 q 334 218 336 220 q 292 168 323 204 q 229 73 252 122 q 226 57 226 67 q 262 22 226 22 q 306 32 288 22 q 411 101 374 69 q 419 101 415 104 q 420 94 425 98 z "},"":{"ha":306,"x_min":250,"x_max":592,"o":"m 590 583 q 531 528 550 541 q 475 513 511 509 q 446 536 452 518 q 451 590 439 561 q 401 555 426 568 q 332 519 369 531 q 271 514 291 503 q 262 554 250 526 q 328 626 281 595 q 449 675 397 670 q 454 674 451 676 q 457 669 457 671 q 450 663 457 663 q 342 614 380 643 q 303 580 328 604 q 289 548 286 558 q 295 543 290 544 q 348 553 320 539 q 435 601 391 574 q 518 678 479 628 q 533 681 526 689 q 532 666 541 672 q 506 638 521 653 q 493 615 501 630 q 470 547 467 571 q 487 532 472 537 q 519 539 503 530 q 581 589 546 556 q 588 592 584 594 q 590 583 592 588 z "},"":{"ha":233,"x_min":200,"x_max":484,"o":"m 480 588 q 471 580 479 586 q 418 556 456 569 q 395 555 391 556 q 385 556 392 555 q 331 516 355 526 q 261 497 288 497 q 226 505 243 497 q 212 555 200 516 q 275 634 224 592 q 357 677 313 666 q 381 683 366 683 q 423 664 407 683 q 430 635 430 656 q 403 574 430 607 q 416 574 416 574 q 462 594 436 576 q 471 599 462 594 q 481 599 478 604 q 480 588 484 594 m 410 636 q 405 651 410 644 q 381 664 398 664 q 356 625 356 664 q 379 583 356 594 q 410 636 410 618 m 362 568 q 331 624 331 584 q 337 649 331 636 q 293 623 308 634 q 254 585 272 608 q 238 550 241 569 q 256 528 235 531 q 362 568 303 522 z "},"":{"ha":643,"x_min":9,"x_max":699,"o":"m 694 104 q 590 31 655 63 q 511 6 566 19 q 412 -8 451 -8 q 295 69 291 -8 q 319 121 297 99 q 231 59 293 101 q 125 5 197 39 q 63 -9 88 -9 q 29 2 39 -9 q 23 53 9 22 q 123 161 50 113 q 308 237 225 229 q 315 232 313 239 q 308 227 315 227 q 139 150 197 194 q 78 97 117 135 q 56 44 52 64 q 69 33 57 35 q 153 48 110 28 q 281 121 231 86 q 397 240 336 161 q 411 247 401 244 q 424 246 421 250 q 424 227 432 236 q 394 189 415 218 q 609 263 525 272 q 619 256 613 260 q 619 248 621 253 l 617 240 q 607 228 613 236 q 585 209 604 225 q 353 109 484 160 q 332 71 340 98 q 420 21 339 27 q 498 28 444 19 q 574 46 551 37 q 681 111 637 72 q 693 111 686 116 q 694 104 699 108 m 587 237 q 563 239 587 242 q 373 136 447 210 q 568 220 483 179 q 587 237 587 234 z "},"":{"ha":359,"x_min":-52,"x_max":434,"o":"m 431 342 q 326 230 395 303 q 331 223 328 227 q 341 182 341 211 q 296 85 341 142 q 324 84 313 83 q 398 116 356 87 q 412 123 398 116 q 420 122 419 127 q 420 114 423 119 q 406 100 418 109 q 327 65 361 69 q 294 62 296 62 q 277 66 281 64 q 79 -25 175 -30 l 78 -26 q -31 -133 34 -69 q -40 -137 -34 -137 q -52 -125 -52 -137 q -48 -117 -52 -120 q 49 -19 -13 -82 q 41 -17 46 -19 q 33 -14 36 -15 q 12 18 17 -6 q 14 57 7 38 q 109 178 33 117 q 237 243 166 224 q 271 253 252 253 q 307 244 289 253 q 418 355 353 290 q 425 358 421 358 q 434 349 434 358 q 431 342 434 344 m 290 227 q 271 231 279 231 q 228 167 228 231 l 228 164 q 287 224 247 183 l 290 227 m 319 183 q 310 209 319 198 q 308 212 310 210 l 232 136 q 268 96 243 109 q 319 183 319 155 m 211 212 q 132 168 169 195 q 69 105 95 140 q 46 51 52 82 q 53 27 44 39 q 79 13 62 15 l 81 13 q 202 137 82 15 q 198 166 198 148 q 211 212 198 188 m 248 80 q 211 114 224 91 l 115 12 q 248 80 164 17 z "},"":{"ha":561,"x_min":124,"x_max":594,"o":"m 594 761 q 579 728 594 749 q 552 707 564 707 q 538 738 538 714 q 550 770 538 756 q 579 785 562 785 q 594 761 594 785 m 557 631 q 395 348 518 463 q 238 212 317 281 q 157 54 156 131 q 233 10 158 8 q 358 46 287 11 q 391 65 369 53 q 475 177 419 109 l 483 187 q 504 192 493 198 q 506 169 516 184 l 495 147 q 405 47 468 89 q 357 -30 402 43 q 346 -41 351 -41 q 338 -31 331 -41 q 348 -9 342 -24 q 366 26 353 2 q 309 -2 337 12 q 245 -18 277 -16 q 141 6 164 -23 q 124 55 124 27 q 205 206 124 119 q 323 319 233 238 q 433 434 397 385 q 486 544 464 475 q 512 633 499 588 q 539 651 514 649 q 553 644 546 652 q 557 631 559 637 z "},"":{"ha":561,"x_min":201,"x_max":616,"o":"m 616 750 q 601 717 616 738 q 574 696 586 696 q 560 727 560 703 q 572 759 560 744 q 601 774 584 774 q 616 750 616 774 m 556 605 q 550 587 556 594 q 534 566 544 580 q 418 339 506 519 q 250 -19 312 126 q 239 -31 249 -25 q 222 -37 229 -38 q 201 -15 201 -35 q 203 -7 201 -11 q 266 128 222 44 q 343 271 305 199 q 518 599 444 469 q 544 615 529 619 q 556 605 556 610 z "},"":{"ha":407,"x_min":27,"x_max":754,"o":"m 744 740 q 579 600 687 664 q 508 462 556 554 q 365 222 433 320 q 296 132 335 181 q 317 33 312 95 q 326 -68 324 -56 q 392 -248 344 -169 q 394 -266 399 -261 q 380 -263 386 -271 q 303 -81 314 -152 q 269 101 294 -13 q 220 46 254 82 q 79 -37 143 -37 q 42 -9 56 -37 q 30 48 27 19 q 138 186 41 156 q 191 194 164 194 q 260 175 233 194 q 280 156 269 169 q 339 234 303 184 q 440 400 372 290 q 533 576 469 446 q 501 559 515 566 q 174 449 295 462 q 163 453 165 449 q 171 465 159 463 q 383 529 281 481 q 549 606 441 553 q 620 719 583 672 q 677 769 644 748 q 732 791 710 791 q 754 768 754 791 q 744 740 754 754 m 695 729 q 695 739 696 734 q 636 694 665 735 q 598 636 611 659 q 695 729 653 672 m 253 127 q 169 169 219 169 q 146 166 157 169 q 85 119 108 156 q 65 48 64 87 q 75 23 65 33 q 97 12 86 12 q 203 72 147 12 q 253 127 220 91 z "},"":{"ha":631,"x_min":-296,"x_max":760,"o":"m 759 725 q 741 669 760 669 q 730 682 727 669 q 733 729 734 706 q 678 765 732 765 q 633 759 657 765 q 516 681 568 744 q 433 549 483 643 q 383 452 411 506 q 482 431 467 431 q 594 456 558 431 q 600 457 597 457 q 607 452 606 457 q 604 442 609 445 q 482 395 539 395 q 368 418 440 395 q 244 156 326 329 q 86 -145 188 51 q -7 -313 20 -276 q -176 -407 -80 -407 q -296 -287 -296 -407 q -282 -209 -296 -267 q -263 -195 -274 -193 q -255 -217 -256 -197 q -269 -287 -269 -267 q -176 -380 -269 -380 q -48 -292 -106 -380 q 31 -135 -42 -281 q 110 13 55 -90 q 189 166 165 117 q 315 431 231 255 q 286 435 301 435 q 177 399 214 435 q 168 399 172 394 q 168 408 163 404 q 286 470 228 470 q 331 465 297 470 q 379 559 356 516 q 474 704 432 658 q 626 787 539 773 q 662 790 644 790 q 759 725 758 790 z "},"":{"ha":472,"x_min":107,"x_max":534,"o":"m 529 280 q 356 155 479 242 q 328 131 341 144 q 405 90 373 106 q 439 71 417 84 q 444 64 444 69 q 430 53 444 49 q 392 64 418 56 q 280 114 324 86 q 279 135 265 123 q 302 155 285 142 q 518 294 381 205 q 523 296 520 296 q 531 290 529 296 q 529 280 534 283 m 371 280 q 198 155 321 242 q 170 131 183 144 q 247 90 216 106 q 281 71 259 84 q 286 64 286 69 q 272 53 286 49 q 234 64 260 56 q 122 114 167 86 q 121 135 107 123 q 144 155 128 142 q 360 294 223 205 q 366 296 363 296 q 374 290 371 296 q 371 280 377 283 z "},"":{"ha":491,"x_min":89,"x_max":522,"o":"m 508 172 q 485 153 502 166 q 269 13 406 103 q 264 11 267 11 q 256 18 258 11 q 258 28 253 24 q 431 153 308 66 q 459 177 446 163 q 382 218 414 202 q 348 236 370 223 q 344 244 344 239 q 357 255 344 258 q 395 244 369 252 q 507 194 463 221 q 508 172 522 184 m 344 172 q 321 153 338 166 q 106 13 243 103 q 100 11 103 11 q 92 18 94 11 q 94 28 89 24 q 268 153 144 66 q 295 177 282 163 q 219 218 250 202 q 184 236 206 223 q 180 244 180 239 q 194 255 180 258 q 231 244 206 252 q 344 194 299 221 q 344 172 358 184 z "},"":{"ha":574,"x_min":103,"x_max":569,"o":"m 569 51 q 552 20 569 40 q 528 0 536 0 q 509 12 510 0 q 519 51 506 30 q 555 78 533 72 q 569 51 569 81 m 365 51 q 349 20 365 40 q 324 0 332 0 q 306 12 306 0 q 316 51 302 30 q 351 78 330 72 q 365 51 365 81 m 166 51 q 150 20 166 40 q 125 0 133 0 q 106 12 107 0 q 117 51 103 30 q 152 78 131 72 q 166 51 166 81 z "},"":{"ha":401,"x_min":0,"x_max":0,"o":""},"":{"ha":725,"x_min":37,"x_max":919,"o":"m 813 777 q 814 764 819 769 q 802 765 809 758 q 673 931 718 863 q 671 937 671 933 q 701 960 671 960 q 714 954 710 960 q 813 777 747 889 m 914 703 q 666 309 776 488 q 612 193 630 250 q 586 84 586 106 q 607 30 586 49 q 628 22 616 22 q 782 100 690 22 q 786 102 784 101 q 791 100 789 101 q 792 89 799 96 q 606 -21 678 -21 q 545 19 561 -21 q 540 60 540 38 q 561 179 540 78 q 687 414 627 322 q 616 339 657 379 q 529 251 564 290 q 342 87 464 180 q 227 0 229 1 q 94 -37 162 -41 q 53 -12 69 -36 q 41 41 37 12 q 369 506 71 259 q 666 686 470 589 q 810 729 752 729 q 831 718 831 729 q 819 705 831 703 q 674 663 774 711 q 419 506 533 594 q 216 318 284 402 q 93 77 130 212 q 91 62 91 69 q 105 30 91 42 q 132 19 119 19 q 228 46 183 22 q 323 112 258 62 q 506 271 447 207 q 705 485 606 379 q 888 707 817 608 q 907 719 896 725 q 914 703 919 711 z "},"":{"ha":725,"x_min":37,"x_max":945,"o":"m 863 782 q 813 798 836 782 q 776 814 791 814 q 706 784 745 814 q 696 781 702 781 q 680 797 680 781 q 686 809 680 805 q 776 853 744 853 q 813 836 791 853 q 863 819 836 819 q 919 848 899 819 q 933 857 926 857 q 945 844 945 857 q 914 803 945 823 q 863 782 883 782 m 914 703 q 666 309 776 488 q 612 193 630 250 q 586 84 586 106 q 607 30 586 49 q 628 22 616 22 q 782 100 690 22 q 786 102 784 101 q 791 100 789 101 q 792 89 799 96 q 606 -21 678 -21 q 545 19 561 -21 q 540 60 540 38 q 561 179 540 78 q 687 414 627 322 q 616 339 657 379 q 529 251 564 290 q 342 87 464 180 q 227 0 229 1 q 94 -37 162 -41 q 53 -12 69 -36 q 41 41 37 12 q 369 506 71 259 q 666 686 470 589 q 810 729 752 729 q 831 718 831 729 q 819 705 831 703 q 674 663 774 711 q 419 506 533 594 q 216 318 284 402 q 93 77 130 212 q 91 62 91 69 q 105 30 91 42 q 132 19 119 19 q 228 46 183 22 q 323 112 258 62 q 506 271 447 207 q 705 485 606 379 q 888 707 817 608 q 907 719 896 725 q 914 703 919 711 z "},"":{"ha":441,"x_min":33,"x_max":782,"o":"m 682 829 q 633 844 656 829 q 595 860 610 860 q 526 831 565 860 q 516 827 521 827 q 499 844 499 827 q 506 856 499 851 q 595 899 563 899 q 633 882 610 899 q 682 866 656 866 q 739 894 719 866 q 753 904 745 904 q 765 890 765 904 q 734 849 765 869 q 682 829 703 829 m 778 759 q 731 710 766 734 q 693 680 719 700 q 665 526 698 607 q 514 250 601 371 q 183 -11 385 71 q 110 -28 144 -28 q 49 5 64 -28 q 33 74 33 37 q 67 204 33 129 q 406 648 193 486 q 405 661 405 655 q 456 749 405 712 q 577 792 517 794 q 670 750 644 790 q 690 701 684 729 q 761 765 729 730 q 772 770 768 771 q 778 759 782 769 m 598 757 q 567 763 584 761 q 494 743 529 767 q 451 680 453 714 q 598 757 520 727 m 655 676 q 643 726 652 706 q 619 750 636 741 q 456 658 538 718 q 538 630 474 629 q 604 646 573 631 q 655 676 631 661 m 656 652 q 538 603 595 607 q 418 628 446 595 q 259 463 344 569 q 127 253 194 381 q 80 80 80 161 q 95 28 80 41 q 137 16 111 16 q 198 31 165 16 q 488 267 377 108 q 655 636 622 457 q 656 652 656 641 z "},"":{"ha":1050,"x_min":33,"x_max":1222,"o":"m 1219 864 q 1213 853 1222 855 q 1062 771 1132 844 q 1123 699 1119 753 q 1107 665 1123 679 q 1052 643 1073 643 q 1025 647 1039 643 q 996 713 982 662 q 1011 744 1002 724 q 942 733 968 746 q 731 504 731 629 q 741 454 731 479 q 875 497 812 492 q 956 466 933 503 q 961 436 964 455 q 947 411 957 421 q 834 365 903 365 q 730 409 769 365 q 507 221 596 334 q 463 95 463 164 q 494 -1 463 42 q 589 -28 520 -28 q 619 -25 606 -28 q 824 70 730 4 q 989 207 857 94 q 1004 208 994 214 q 1003 194 1007 199 q 559 -66 761 -66 q 496 -53 530 -66 q 454 -29 463 -41 q 417 82 417 22 q 428 151 417 116 q 183 -11 319 44 q 110 -28 143 -28 q 49 5 64 -28 q 33 74 33 37 q 67 204 33 129 q 406 648 193 486 q 405 661 405 655 q 456 749 405 712 q 577 792 517 794 q 670 750 644 790 q 690 701 684 729 q 761 765 729 730 q 772 770 768 771 q 778 759 782 769 q 731 710 766 734 q 693 680 719 700 q 665 526 698 607 q 572 340 624 427 q 575 342 573 340 q 712 437 656 404 q 699 496 699 464 q 745 623 699 564 q 931 761 813 710 q 1035 777 981 782 q 1201 869 1099 844 q 1219 864 1218 872 m 598 757 q 567 763 584 761 q 494 743 529 767 q 451 680 453 714 q 598 757 520 727 m 1091 712 q 1037 742 1077 736 l 1036 741 q 1023 702 1023 723 q 1049 671 1023 677 q 1089 687 1069 668 q 1091 712 1098 699 m 655 676 q 643 726 652 706 q 619 750 636 741 q 456 658 538 718 q 538 630 474 629 q 604 646 573 631 q 655 676 631 661 m 914 441 q 903 456 911 454 q 810 449 856 469 q 757 424 794 443 q 832 394 789 394 q 906 421 873 394 q 914 441 915 429 m 656 652 q 538 603 595 607 q 418 628 446 595 q 259 463 344 569 q 127 253 194 381 q 80 80 80 161 q 95 28 80 41 q 137 16 111 16 q 198 31 165 16 q 488 267 377 108 q 655 636 622 457 q 656 652 656 641 z "},"":{"ha":617,"x_min":7,"x_max":674,"o":"m 669 104 q 565 31 630 63 q 486 6 541 19 q 387 -8 426 -8 q 270 59 274 -8 q 191 3 224 18 q 86 -25 126 -25 q 33 -14 58 -25 q 12 17 17 -6 q 14 57 7 38 q 109 178 33 117 q 237 243 166 224 q 271 253 252 253 q 331 223 308 253 q 341 169 348 202 q 568 264 462 264 q 586 263 577 264 q 595 250 594 261 q 504 139 599 206 q 312 61 412 74 q 395 21 319 27 q 473 28 419 19 q 549 46 526 37 q 656 111 612 72 q 668 111 661 116 q 669 104 674 108 m 319 183 q 310 209 319 197 q 271 231 295 231 q 228 167 228 231 q 268 96 228 116 q 319 183 319 155 m 556 231 q 532 232 554 238 q 310 83 363 191 q 489 155 400 92 q 556 231 564 207 m 248 80 q 198 166 198 103 q 211 212 198 188 q 132 168 169 195 q 69 105 95 140 q 46 51 52 82 q 53 27 44 39 q 79 13 62 15 q 101 12 90 12 q 184 34 144 12 q 248 80 201 44 z "},"":{"ha":472,"x_min":104,"x_max":476,"o":"m 457 259 q 347 258 417 259 q 189 257 284 257 q 155 257 174 257 q 122 258 133 258 q 104 274 104 258 q 122 291 104 289 q 189 294 141 293 q 346 296 250 294 q 449 297 390 296 q 476 280 476 298 q 457 259 476 263 z "},"":{"ha":789,"x_min":104,"x_max":787,"o":"m 769 259 q 658 258 728 259 q 189 257 595 257 q 155 257 174 257 q 122 258 133 258 q 104 274 104 258 q 122 291 104 289 q 189 294 141 293 q 657 296 406 294 q 760 297 701 296 q 787 280 787 298 q 769 259 787 263 z "},"":{"ha":333,"x_min":178,"x_max":424,"o":"m 421 751 q 380 701 401 726 q 340 630 350 662 q 361 612 350 630 q 369 572 372 594 q 339 536 361 536 q 296 589 296 536 q 410 760 296 654 q 419 762 414 764 q 424 756 424 760 q 421 751 424 753 m 303 751 q 261 701 282 726 q 221 630 231 662 q 243 612 231 630 q 250 572 254 594 q 220 536 243 536 q 178 589 178 536 q 292 760 178 654 q 300 762 295 764 q 306 756 306 760 q 303 751 306 753 z "},"":{"ha":366,"x_min":183,"x_max":418,"o":"m 418 697 q 304 526 418 632 q 295 524 300 522 q 290 530 290 526 q 293 535 290 533 q 334 585 313 560 q 374 656 364 624 q 352 676 364 656 q 345 714 342 693 q 375 750 353 750 q 418 697 418 750 m 311 697 q 197 526 311 632 q 189 524 194 522 q 183 530 183 526 q 186 535 183 533 q 228 585 206 560 q 268 656 257 624 q 245 676 257 656 q 239 714 235 693 q 269 750 246 750 q 311 697 311 750 z "},"":{"ha":227,"x_min":178,"x_max":306,"o":"m 303 751 q 261 701 282 726 q 221 630 231 662 q 243 612 231 630 q 250 572 254 594 q 220 536 243 536 q 178 589 178 536 q 292 760 178 654 q 300 762 295 764 q 306 756 306 760 q 303 751 306 753 z "},"":{"ha":227,"x_min":183,"x_max":311,"o":"m 311 697 q 197 526 311 632 q 189 524 194 522 q 183 530 183 526 q 186 535 183 533 q 228 585 206 560 q 268 656 257 624 q 245 676 257 656 q 239 714 235 693 q 269 750 246 750 q 311 697 311 750 z "},"":{"ha":423,"x_min":136,"x_max":439,"o":"m 366 486 q 350 455 366 475 q 325 435 333 435 q 306 447 307 435 q 317 486 303 465 q 352 513 331 507 q 366 486 366 517 m 420 333 q 310 332 380 333 q 221 331 247 331 q 186 332 206 331 q 155 332 166 332 q 136 348 136 332 q 155 365 136 363 q 221 368 173 367 q 309 370 247 369 q 412 371 353 370 q 439 354 439 372 q 420 333 439 337 m 281 226 q 264 195 281 215 q 240 175 248 175 q 221 187 222 175 q 231 226 218 205 q 267 253 245 247 q 281 226 281 256 z "},"":{"ha":356,"x_min":-380,"x_max":413,"o":"m 340 372 q 323 339 340 360 q 296 319 306 319 q 277 331 280 319 q 288 372 273 350 q 325 400 303 394 q 340 372 340 404 m 218 372 q 201 339 218 360 q 175 319 184 319 q 156 331 156 319 q 166 372 152 350 q 204 400 181 394 q 218 372 218 404 m 409 108 q 407 102 413 106 q 305 18 374 71 q 105 -125 227 -43 q -59 -383 13 -277 q -288 -642 -186 -570 q -334 -659 -317 -659 q -378 -619 -376 -659 q -333 -493 -380 -567 q -207 -341 -308 -452 q 18 -154 -128 -252 q 96 -100 44 -135 q 242 130 144 -23 q 48 18 129 21 q 19 27 31 17 q 10 53 8 38 q 56 154 14 87 q 111 231 86 203 q 132 250 120 243 q 148 252 140 255 q 151 245 149 249 q 144 219 155 235 q 102 160 116 181 q 53 68 67 106 q 53 54 50 61 q 64 46 56 46 q 313 243 149 50 q 323 248 318 248 q 332 239 332 248 q 330 231 332 235 q 134 -75 258 122 q 289 25 199 -33 q 404 107 364 73 q 409 108 406 110 m 64 -151 q 23 -179 49 -161 q -188 -352 -113 -269 q -294 -485 -239 -407 q -334 -588 -334 -543 q -331 -606 -334 -598 q -317 -614 -329 -613 q -294 -607 -304 -615 q -81 -375 -195 -543 q 64 -151 -19 -285 z "},"":{"ha":455,"x_min":-19,"x_max":604,"o":"m 553 803 q 536 770 553 791 q 509 749 519 749 q 490 762 493 749 q 501 803 486 781 q 538 831 516 825 q 553 803 553 834 m 431 803 q 414 770 431 791 q 388 749 397 749 q 369 762 369 749 q 379 803 365 781 q 417 831 394 825 q 431 803 431 834 m 595 580 q 580 543 591 569 q 564 504 575 530 q 328 -26 451 243 q 490 108 411 30 q 493 110 492 109 q 498 107 494 109 q 497 102 501 106 q 402 12 479 81 q 306 -71 325 -58 l 226 -241 q 127 -444 141 -418 q 14 -621 74 -544 q -9 -635 4 -639 q -18 -616 -19 -632 q 83 -316 -4 -505 q 211 -131 121 -234 q 285 -56 239 -98 q 333 56 301 -19 q 391 184 357 112 q 128 -25 267 -6 q 59 49 59 -26 q 93 180 59 104 q 167 328 112 224 q 236 476 215 419 q 281 653 281 597 q 256 719 281 699 q 173 726 223 744 q 94 689 146 717 q 43 631 43 650 q 44 623 43 627 q 58 615 47 617 q 79 620 69 614 q 85 621 83 623 q 87 617 88 619 q 81 611 87 611 q 56 604 70 604 q 28 624 28 604 q 134 735 28 673 q 223 762 181 762 q 276 748 254 762 q 308 654 311 727 q 258 474 306 600 q 164 271 244 435 q 97 84 107 154 q 106 39 94 58 q 147 20 120 17 q 385 213 278 37 q 485 401 408 251 q 567 587 534 497 q 583 600 571 600 q 595 580 604 600 m 257 -119 q 194 -192 219 -155 q 102 -351 161 -243 q 52 -459 77 -406 q 18 -569 27 -519 q 117 -405 68 -498 q 202 -232 159 -319 q 257 -119 226 -185 z "},"":{"ha":674,"x_min":97,"x_max":596,"o":"m 596 469 l 514 388 q 557 260 557 330 q 513 133 557 188 l 594 53 l 558 14 l 475 96 q 346 50 419 50 q 219 94 279 50 l 139 14 l 103 52 l 181 131 q 135 260 135 191 q 180 386 135 330 l 97 469 l 138 506 l 216 428 q 347 472 274 472 q 477 428 419 472 l 557 506 l 596 469 m 502 260 q 456 371 502 325 q 346 417 411 417 q 236 371 281 417 q 191 260 191 325 q 237 150 191 196 q 346 105 282 105 q 456 150 411 105 q 502 260 502 195 z "},"":{"ha":331,"x_min":107,"x_max":377,"o":"m 371 280 q 198 155 321 242 q 170 131 183 144 q 247 90 216 106 q 281 71 259 84 q 286 64 286 69 q 272 53 286 49 q 234 64 260 56 q 122 114 167 86 q 121 135 107 123 q 144 155 128 142 q 360 294 223 205 q 366 296 363 296 q 374 290 371 296 q 371 280 377 283 z "},"":{"ha":331,"x_min":89,"x_max":358,"o":"m 344 172 q 321 153 338 166 q 106 13 243 103 q 100 11 103 11 q 92 18 94 11 q 94 28 89 24 q 268 153 144 66 q 295 177 282 163 q 219 218 250 202 q 184 236 206 223 q 180 244 180 239 q 194 255 180 258 q 231 244 206 252 q 344 194 299 221 q 344 172 358 184 z "},"":{"ha":541,"x_min":49,"x_max":498,"o":"m 498 481 q 446 444 478 440 q 281 470 391 453 q 280 433 280 452 q 338 234 280 330 q 281 -8 281 110 q 360 7 303 -6 q 440 20 412 20 q 466 18 454 20 q 492 -20 492 12 q 480 -47 492 -39 q 441 -58 457 -58 q 281 -31 346 -34 l 315 -248 q 284 -305 315 -282 q 257 -302 275 -307 q 231 -238 231 -278 q 232 -219 231 -229 q 263 -31 259 -124 q 169 -44 232 -31 q 76 -56 108 -58 q 49 -18 49 -43 q 63 12 49 0 q 99 20 77 24 q 263 -8 176 -8 q 265 29 265 10 q 207 234 265 138 q 263 470 263 340 q 189 456 242 469 q 115 446 142 446 q 70 453 92 446 q 52 483 52 465 q 69 513 52 501 q 107 522 85 526 q 263 493 174 502 q 227 726 255 577 q 266 772 232 769 q 312 737 296 772 q 313 727 312 734 q 315 715 315 719 l 284 493 q 364 508 307 494 q 443 519 415 519 q 469 518 456 519 q 498 481 482 510 z "},"":{"ha":197,"x_min":156,"x_max":219,"o":"m 219 352 q 202 321 219 341 q 178 301 186 301 q 159 313 160 301 q 169 352 156 331 q 205 379 183 373 q 219 352 219 382 z "},"":{"ha":197,"x_min":18,"x_max":144,"o":"m 144 51 q 107 -13 144 38 q 24 -111 68 -69 q 24 -101 18 -107 q 75 -24 52 -69 q 93 22 94 14 q 131 78 84 65 q 144 51 144 81 z "},"":{"ha":273,"x_min":18,"x_max":237,"o":"m 237 51 q 200 -13 237 38 q 117 -111 160 -69 q 117 -101 110 -107 q 168 -24 144 -69 q 185 22 187 14 q 223 78 177 65 q 237 51 237 81 m 144 51 q 107 -13 144 38 q 24 -111 68 -69 q 24 -101 18 -107 q 75 -24 52 -69 q 93 22 94 14 q 131 78 84 65 q 144 51 144 81 z "},"":{"ha":928,"x_min":86,"x_max":967,"o":"m 958 830 l 932 801 l 899 767 q 125 -132 530 387 q 98 -140 112 -149 q 94 -119 86 -133 q 433 290 203 20 q 762 659 544 414 q 661 598 727 632 q 462 526 521 526 q 409 535 433 526 q 193 424 305 424 q 168 426 181 424 q 143 440 155 428 q 128 474 128 455 q 133 497 128 485 q 429 697 215 624 q 469 711 450 712 q 502 687 494 710 q 497 656 506 672 q 432 562 469 607 q 473 557 452 557 q 702 649 568 557 q 914 822 771 697 l 938 848 q 956 848 947 857 q 958 830 967 838 m 672 308 q 671 304 673 306 q 656 293 662 296 q 674 224 674 264 q 656 144 674 183 q 481 -10 588 -11 q 447 0 458 -10 q 442 58 427 18 q 633 289 490 194 q 637 302 631 294 q 651 300 644 305 q 659 305 654 302 q 667 309 664 307 q 672 308 670 312 m 792 3 q 732 -12 770 -12 q 681 52 681 -12 q 685 87 681 69 q 780 243 702 161 q 855 286 821 286 q 906 205 906 285 q 792 3 906 81 m 475 667 q 473 681 478 677 q 444 681 460 692 q 391 603 391 645 q 407 574 391 584 q 475 667 446 619 m 394 669 q 166 507 264 618 q 163 467 152 483 q 202 453 170 456 q 383 549 304 467 q 364 593 364 561 q 381 653 364 627 q 394 669 386 661 m 638 278 q 469 52 503 168 q 477 29 467 37 q 510 29 485 21 q 608 106 569 51 q 647 222 647 160 q 638 278 647 251 m 876 172 q 881 221 881 208 q 850 268 881 267 q 791 231 827 269 q 712 87 737 177 q 712 42 706 66 q 736 16 719 16 q 778 25 764 16 q 876 172 865 83 z "},"":{"ha":725,"x_min":37,"x_max":936,"o":"m 931 797 q 936 781 936 791 q 922 763 936 763 q 913 766 918 763 q 881 799 909 769 q 847 827 856 827 q 694 767 823 827 q 681 778 681 762 q 689 791 681 786 q 783 848 709 801 q 855 879 832 879 q 895 842 865 879 q 931 797 913 819 m 914 703 q 666 309 776 488 q 612 193 630 250 q 586 84 586 106 q 607 30 586 49 q 628 22 616 22 q 782 100 690 22 q 786 102 784 101 q 791 100 789 101 q 792 89 799 96 q 606 -21 678 -21 q 545 19 561 -21 q 540 60 540 38 q 561 179 540 78 q 687 414 627 322 q 616 339 657 379 q 529 251 564 290 q 342 87 464 180 q 227 0 229 1 q 94 -37 162 -41 q 53 -12 69 -36 q 41 41 37 12 q 369 506 71 259 q 666 686 470 589 q 810 729 752 729 q 831 718 831 729 q 819 705 831 703 q 674 663 774 711 q 419 506 533 594 q 216 318 284 402 q 93 77 130 212 q 91 62 91 69 q 105 30 91 42 q 132 19 119 19 q 228 46 183 22 q 323 112 258 62 q 506 271 447 207 q 705 485 606 379 q 888 707 817 608 q 907 719 896 725 q 914 703 919 711 z "},"":{"ha":617,"x_min":48,"x_max":854,"o":"m 851 864 q 844 853 854 855 q 788 838 819 850 q 793 823 793 831 q 779 805 793 805 q 756 821 769 805 q 694 771 721 801 q 755 699 750 753 q 739 665 755 679 q 683 643 705 643 q 656 647 670 643 q 628 713 614 662 q 643 744 632 724 q 573 733 599 746 q 363 504 363 629 q 372 454 363 479 q 506 497 444 492 q 587 466 565 503 q 593 436 595 455 q 579 411 589 421 q 466 365 534 365 q 361 409 400 365 q 139 221 228 334 q 94 95 94 164 q 126 -1 94 42 q 220 -28 152 -28 q 250 -25 238 -28 q 456 70 361 4 q 620 207 489 94 q 635 208 625 214 q 634 194 639 199 q 191 -66 393 -66 q 128 -53 161 -66 q 85 -29 94 -41 q 48 82 48 22 q 206 342 48 222 q 344 437 294 408 q 331 496 331 464 q 377 623 331 564 q 563 761 444 710 q 667 777 613 782 q 744 834 698 810 q 704 869 713 869 q 551 808 680 869 q 537 819 537 804 q 545 832 537 828 q 640 890 566 843 q 711 920 689 920 q 778 851 722 920 q 832 869 804 862 q 851 864 849 872 m 722 712 q 669 742 708 736 l 668 741 q 655 702 655 723 q 681 671 655 677 q 720 687 701 668 q 722 712 730 699 m 545 441 q 534 456 543 454 q 442 449 487 469 q 389 424 425 443 q 464 394 420 394 q 538 421 505 394 q 545 441 546 429 z "},"":{"ha":725,"x_min":37,"x_max":996,"o":"m 992 893 q 822 769 919 831 q 811 770 814 764 q 815 783 807 777 q 958 927 861 830 q 968 930 962 930 q 987 921 978 930 q 996 902 996 912 q 992 893 996 896 m 914 703 q 666 309 776 488 q 612 193 630 250 q 586 84 586 106 q 607 30 586 49 q 628 22 616 22 q 782 100 690 22 q 786 102 784 101 q 791 100 789 101 q 792 89 799 96 q 606 -21 678 -21 q 545 19 561 -21 q 540 60 540 38 q 561 179 540 78 q 687 414 627 322 q 616 339 657 379 q 529 251 564 290 q 342 87 464 180 q 227 0 229 1 q 94 -37 162 -41 q 53 -12 69 -36 q 41 41 37 12 q 369 506 71 259 q 666 686 470 589 q 810 729 752 729 q 831 718 831 729 q 819 705 831 703 q 674 663 774 711 q 419 506 533 594 q 216 318 284 402 q 93 77 130 212 q 91 62 91 69 q 105 30 91 42 q 132 19 119 19 q 228 46 183 22 q 323 112 258 62 q 506 271 447 207 q 705 485 606 379 q 888 707 817 608 q 907 719 896 725 q 914 703 919 711 z "},"":{"ha":617,"x_min":48,"x_max":854,"o":"m 736 887 q 719 854 736 875 q 693 833 702 833 q 673 846 676 833 q 684 887 669 865 q 721 915 699 909 q 736 887 736 919 m 614 887 q 597 854 614 875 q 571 833 581 833 q 552 846 553 833 q 563 887 548 865 q 600 915 577 909 q 614 887 614 919 m 851 864 q 844 853 854 855 q 694 771 764 844 q 755 699 750 753 q 739 665 755 679 q 683 643 705 643 q 656 647 670 643 q 628 713 614 662 q 643 744 632 724 q 573 733 599 746 q 363 504 363 629 q 372 454 363 479 q 506 497 444 492 q 587 466 565 503 q 593 436 595 455 q 579 411 589 421 q 466 365 534 365 q 361 409 400 365 q 139 221 228 334 q 94 95 94 164 q 126 -1 94 42 q 220 -28 152 -28 q 250 -25 238 -28 q 456 70 361 4 q 620 207 489 94 q 635 208 625 214 q 634 194 639 199 q 191 -66 393 -66 q 128 -53 161 -66 q 85 -29 94 -41 q 48 82 48 22 q 206 342 48 222 q 344 437 294 408 q 331 496 331 464 q 377 623 331 564 q 563 761 444 710 q 667 777 613 782 q 832 869 731 844 q 851 864 849 872 m 722 712 q 669 742 708 736 l 668 741 q 655 702 655 723 q 681 671 655 677 q 720 687 701 668 q 722 712 730 699 m 545 441 q 534 456 543 454 q 442 449 487 469 q 389 424 425 443 q 464 394 420 394 q 538 421 505 394 q 545 441 546 429 z "},"":{"ha":617,"x_min":48,"x_max":854,"o":"m 660 832 q 661 819 666 824 q 649 820 656 814 q 520 986 565 919 q 519 993 519 989 q 548 1016 519 1016 q 561 1009 557 1016 q 660 832 594 944 m 851 864 q 844 853 854 855 q 694 771 764 844 q 755 699 750 753 q 739 665 755 679 q 683 643 705 643 q 656 647 670 643 q 628 713 614 662 q 643 744 632 724 q 573 733 599 746 q 363 504 363 629 q 372 454 363 479 q 506 497 444 492 q 587 466 565 503 q 593 436 595 455 q 579 411 589 421 q 466 365 534 365 q 361 409 400 365 q 139 221 228 334 q 94 95 94 164 q 126 -1 94 42 q 220 -28 152 -28 q 250 -25 238 -28 q 456 70 361 4 q 620 207 489 94 q 635 208 625 214 q 634 194 639 199 q 191 -66 393 -66 q 128 -53 161 -66 q 85 -29 94 -41 q 48 82 48 22 q 206 342 48 222 q 344 437 294 408 q 331 496 331 464 q 377 623 331 564 q 563 761 444 710 q 667 777 613 782 q 832 869 731 844 q 851 864 849 872 m 722 712 q 669 742 708 736 l 668 741 q 655 702 655 723 q 681 671 655 677 q 720 687 701 668 q 722 712 730 699 m 545 441 q 534 456 543 454 q 442 449 487 469 q 389 424 425 443 q 464 394 420 394 q 538 421 505 394 q 545 441 546 429 z "},"":{"ha":586,"x_min":6,"x_max":987,"o":"m 982 976 q 813 853 909 914 q 802 854 805 847 q 806 867 798 860 q 949 1010 852 913 q 958 1013 953 1013 q 978 1004 969 1013 q 987 985 987 995 q 982 976 987 980 m 829 782 q 704 513 791 660 q 518 254 619 370 q 491 -94 483 110 q 474 -115 492 -115 q 456 -102 461 -115 q 456 81 446 -65 q 469 206 460 156 q 116 -30 272 19 q 76 -35 98 -35 q 14 -12 27 -35 q 6 22 6 3 q 27 84 6 54 q 81 127 48 115 q 159 146 123 143 q 178 137 173 150 q 164 120 178 124 q 123 109 144 115 q 74 81 91 99 q 53 37 53 59 q 66 11 53 21 q 130 6 95 -6 q 479 255 291 67 q 515 374 494 318 q 804 803 624 660 q 819 808 813 809 q 829 782 841 806 m 781 750 q 536 319 616 569 q 781 750 731 564 z "},"":{"ha":586,"x_min":6,"x_max":931,"o":"m 926 829 q 931 813 931 822 q 918 794 931 794 q 909 797 913 794 q 876 831 905 800 q 843 858 851 858 q 690 798 819 858 q 676 809 676 794 q 684 822 676 818 q 779 880 705 832 q 850 910 828 910 q 891 873 860 910 q 926 829 908 851 m 829 782 q 704 513 791 660 q 518 254 619 370 q 491 -94 483 110 q 474 -115 492 -115 q 456 -102 461 -115 q 456 81 446 -65 q 469 206 460 156 q 116 -30 272 19 q 76 -35 98 -35 q 14 -12 27 -35 q 6 22 6 3 q 27 84 6 54 q 81 127 48 115 q 159 146 123 143 q 178 137 173 150 q 164 120 178 124 q 123 109 144 115 q 74 81 91 99 q 53 37 53 59 q 66 11 53 21 q 130 6 95 -6 q 479 255 291 67 q 515 374 494 318 q 804 803 624 660 q 819 808 813 809 q 829 782 841 806 m 781 750 q 536 319 616 569 q 781 750 731 564 z "},"":{"ha":586,"x_min":6,"x_max":928,"o":"m 928 891 q 911 858 928 879 q 884 837 894 837 q 865 850 868 837 q 876 891 861 869 q 913 919 891 913 q 928 891 928 922 m 806 891 q 789 858 806 879 q 763 837 772 837 q 744 850 744 837 q 754 891 740 869 q 792 919 769 913 q 806 891 806 922 m 829 782 q 704 513 791 660 q 518 254 619 370 q 491 -94 483 110 q 474 -115 492 -115 q 456 -102 461 -115 q 456 81 446 -65 q 469 206 460 156 q 116 -30 272 19 q 76 -35 98 -35 q 14 -12 27 -35 q 6 22 6 3 q 27 84 6 54 q 81 127 48 115 q 159 146 123 143 q 178 137 173 150 q 164 120 178 124 q 123 109 144 115 q 74 81 91 99 q 53 37 53 59 q 66 11 53 21 q 130 6 95 -6 q 479 255 291 67 q 515 374 494 318 q 804 803 624 660 q 819 808 813 809 q 829 782 841 806 m 781 750 q 536 319 616 569 q 781 750 731 564 z "},"":{"ha":586,"x_min":6,"x_max":841,"o":"m 793 844 q 794 831 798 835 q 781 831 789 825 q 653 997 697 930 q 651 1004 651 1000 q 681 1027 651 1027 q 694 1020 690 1027 q 793 844 727 956 m 829 782 q 704 513 791 660 q 518 254 619 370 q 491 -94 483 110 q 474 -115 492 -115 q 456 -102 461 -115 q 456 81 446 -65 q 469 206 460 156 q 116 -30 272 19 q 76 -35 98 -35 q 14 -12 27 -35 q 6 22 6 3 q 27 84 6 54 q 81 127 48 115 q 159 146 123 143 q 178 137 173 150 q 164 120 178 124 q 123 109 144 115 q 74 81 91 99 q 53 37 53 59 q 66 11 53 21 q 130 6 95 -6 q 479 255 291 67 q 515 374 494 318 q 804 803 624 660 q 819 808 813 809 q 829 782 841 806 m 781 750 q 536 319 616 569 q 781 750 731 564 z "},"":{"ha":441,"x_min":33,"x_max":820,"o":"m 816 943 q 646 819 743 881 q 635 820 638 814 q 639 833 631 827 q 782 977 685 880 q 792 980 786 980 q 811 971 802 980 q 820 952 820 962 q 816 943 820 946 m 778 759 q 731 710 766 734 q 693 680 719 700 q 665 526 698 607 q 514 250 601 371 q 183 -11 385 71 q 110 -28 144 -28 q 49 5 64 -28 q 33 74 33 37 q 67 204 33 129 q 406 648 193 486 q 405 661 405 655 q 456 749 405 712 q 577 792 517 794 q 670 750 644 790 q 690 701 684 729 q 761 765 729 730 q 772 770 768 771 q 778 759 782 769 m 598 757 q 567 763 584 761 q 494 743 529 767 q 451 680 453 714 q 598 757 520 727 m 655 676 q 643 726 652 706 q 619 750 636 741 q 456 658 538 718 q 538 630 474 629 q 604 646 573 631 q 655 676 631 661 m 656 652 q 538 603 595 607 q 418 628 446 595 q 259 463 344 569 q 127 253 194 381 q 80 80 80 161 q 95 28 80 41 q 137 16 111 16 q 198 31 165 16 q 488 267 377 108 q 655 636 622 457 q 656 652 656 641 z "},"":{"ha":441,"x_min":33,"x_max":782,"o":"m 736 842 q 742 826 742 835 q 728 807 742 807 q 719 810 723 807 q 686 844 715 813 q 653 871 661 871 q 500 811 629 871 q 486 822 486 806 q 494 835 486 831 q 589 893 515 845 q 660 923 638 923 q 701 886 670 923 q 736 842 719 864 m 778 759 q 731 710 766 734 q 693 680 719 700 q 665 526 698 607 q 514 250 601 371 q 183 -11 385 71 q 110 -28 144 -28 q 49 5 64 -28 q 33 74 33 37 q 67 204 33 129 q 406 648 193 486 q 405 661 405 655 q 456 749 405 712 q 577 792 517 794 q 670 750 644 790 q 690 701 684 729 q 761 765 729 730 q 772 770 768 771 q 778 759 782 769 m 598 757 q 567 763 584 761 q 494 743 529 767 q 451 680 453 714 q 598 757 520 727 m 655 676 q 643 726 652 706 q 619 750 636 741 q 456 658 538 718 q 538 630 474 629 q 604 646 573 631 q 655 676 631 661 m 656 652 q 538 603 595 607 q 418 628 446 595 q 259 463 344 569 q 127 253 194 381 q 80 80 80 161 q 95 28 80 41 q 137 16 111 16 q 198 31 165 16 q 488 267 377 108 q 655 636 622 457 q 656 652 656 641 z "},"":{"ha":441,"x_min":33,"x_max":782,"o":"m 632 828 q 633 815 638 819 q 621 816 629 809 q 493 981 537 914 q 491 988 491 984 q 520 1011 491 1011 q 533 1005 530 1011 q 632 828 567 940 m 778 759 q 731 710 766 734 q 693 680 719 700 q 665 526 698 607 q 514 250 601 371 q 183 -11 385 71 q 110 -28 144 -28 q 49 5 64 -28 q 33 74 33 37 q 67 204 33 129 q 406 648 193 486 q 405 661 405 655 q 456 749 405 712 q 577 792 517 794 q 670 750 644 790 q 690 701 684 729 q 761 765 729 730 q 772 770 768 771 q 778 759 782 769 m 598 757 q 567 763 584 761 q 494 743 529 767 q 451 680 453 714 q 598 757 520 727 m 655 676 q 643 726 652 706 q 619 750 636 741 q 456 658 538 718 q 538 630 474 629 q 604 646 573 631 q 655 676 631 661 m 656 652 q 538 603 595 607 q 418 628 446 595 q 259 463 344 569 q 127 253 194 381 q 80 80 80 161 q 95 28 80 41 q 137 16 111 16 q 198 31 165 16 q 488 267 377 108 q 655 636 622 457 q 656 652 656 641 z "},"":{"ha":532,"x_min":44,"x_max":826,"o":"m 779 944 q 609 820 706 881 q 598 821 601 815 q 602 834 594 828 q 745 978 648 881 q 755 981 749 981 q 774 972 765 981 q 783 953 783 963 q 779 944 783 947 m 824 828 q 817 812 824 821 q 489 276 706 642 q 433 134 456 216 q 409 -6 409 52 q 411 -35 409 -22 q 391 -62 411 -64 q 376 -49 380 -63 q 373 -19 373 -35 q 498 347 373 143 q 206 8 350 137 q 94 -44 149 -44 q 44 35 44 -44 q 192 379 44 144 q 258 479 220 425 q 294 536 269 498 q 430 779 386 667 q 431 813 437 798 q 382 818 424 827 q 335 797 356 812 q 253 684 260 744 q 243 671 251 680 q 231 676 234 668 q 331 818 234 746 q 421 854 381 854 q 464 812 464 854 q 400 663 464 783 q 285 477 364 596 q 168 291 202 353 q 96 102 111 188 q 92 56 92 73 q 127 -1 92 6 q 192 30 150 -6 q 508 388 348 161 q 766 781 594 519 q 793 820 775 794 q 820 840 810 847 q 824 828 826 838 z "},"":{"ha":532,"x_min":44,"x_max":826,"o":"m 751 867 q 756 851 756 860 q 743 832 756 832 q 734 835 738 832 q 701 869 730 838 q 668 896 676 896 q 515 836 644 896 q 501 847 501 831 q 509 860 501 856 q 604 918 530 870 q 675 948 653 948 q 716 911 685 948 q 751 867 733 889 m 824 828 q 817 812 824 821 q 489 276 706 642 q 433 134 456 216 q 409 -6 409 52 q 411 -35 409 -22 q 391 -62 411 -64 q 376 -49 380 -63 q 373 -19 373 -35 q 498 347 373 143 q 206 8 350 137 q 94 -44 149 -44 q 44 35 44 -44 q 192 379 44 144 q 258 479 220 425 q 294 536 269 498 q 430 779 386 667 q 431 813 437 798 q 382 818 424 827 q 335 797 356 812 q 253 684 260 744 q 243 671 251 680 q 231 676 234 668 q 331 818 234 746 q 421 854 381 854 q 464 812 464 854 q 400 663 464 783 q 285 477 364 596 q 168 291 202 353 q 96 102 111 188 q 92 56 92 73 q 127 -1 92 6 q 192 30 150 -6 q 508 388 348 161 q 766 781 594 519 q 793 820 775 794 q 820 840 810 847 q 824 828 826 838 z "},"":{"ha":532,"x_min":44,"x_max":826,"o":"m 623 800 q 624 787 629 792 q 612 788 619 781 q 483 954 528 886 q 481 960 481 956 q 511 983 481 983 q 524 977 520 983 q 623 800 557 912 m 824 828 q 817 812 824 821 q 489 276 706 642 q 433 134 456 216 q 409 -6 409 52 q 411 -35 409 -22 q 391 -62 411 -64 q 376 -49 380 -63 q 373 -19 373 -35 q 498 347 373 143 q 206 8 350 137 q 94 -44 149 -44 q 44 35 44 -44 q 192 379 44 144 q 258 479 220 425 q 294 536 269 498 q 430 779 386 667 q 431 813 437 798 q 382 818 424 827 q 335 797 356 812 q 253 684 260 744 q 243 671 251 680 q 231 676 234 668 q 331 818 234 746 q 421 854 381 854 q 464 812 464 854 q 400 663 464 783 q 285 477 364 596 q 168 291 202 353 q 96 102 111 188 q 92 56 92 73 q 127 -1 92 6 q 192 30 150 -6 q 508 388 348 161 q 766 781 594 519 q 793 820 775 794 q 820 840 810 847 q 824 828 826 838 z "},"":{"ha":403,"x_min":259,"x_max":515,"o":"m 509 714 q 515 698 515 707 q 501 680 515 680 q 492 682 496 680 q 459 716 488 685 q 426 744 434 744 q 273 683 402 744 q 259 694 259 679 q 268 707 259 703 q 362 765 288 718 q 433 795 411 795 q 474 758 444 795 q 509 714 492 736 z "},"":{"ha":300,"x_min":212,"x_max":478,"o":"m 395 694 q 346 710 369 694 q 308 726 323 726 q 239 696 278 726 q 229 693 234 693 q 212 709 212 693 q 219 721 212 717 q 308 765 276 765 q 346 748 323 765 q 395 731 369 731 q 452 760 431 731 q 466 769 458 769 q 478 756 478 769 q 447 715 478 735 q 395 694 416 694 z "},"":{"ha":300,"x_min":225,"x_max":471,"o":"m 467 720 q 450 715 463 715 l 274 715 q 237 717 246 715 q 226 731 227 719 q 235 745 225 743 q 272 747 243 747 l 448 747 q 467 736 456 745 q 467 720 471 727 z "},"":{"ha":250,"x_min":39,"x_max":231,"o":"m 231 -54 q 176 -136 231 -102 q 60 -174 129 -164 q 39 -158 39 -177 q 47 -150 39 -152 q 193 -51 193 -119 q 174 -23 193 -23 q 147 -31 158 -23 q 129 -44 129 -44 q 120 -46 124 -46 q 108 -35 108 -46 q 112 -24 108 -30 q 167 80 114 -21 q 177 86 170 86 q 189 74 189 86 q 187 69 189 71 q 162 9 180 49 q 183 12 171 12 q 231 -54 231 12 z "},"":{"ha":537,"x_min":-80,"x_max":990,"o":"m 981 905 q 887 847 961 894 q 816 817 838 817 q 775 854 806 817 q 740 898 757 876 q 734 914 734 905 q 748 932 734 932 q 758 929 753 932 q 790 896 761 927 q 823 869 815 869 q 976 929 847 869 q 990 918 990 933 q 981 905 990 909 m 847 760 q 848 749 848 755 q 795 641 848 709 q 698 531 774 614 q 568 411 653 489 q 541 324 553 369 q 515 199 528 261 q 463 72 496 118 q 213 -58 375 -46 q 90 -31 133 -64 q 36 30 55 -4 q -50 -31 6 9 q -69 -31 -59 -37 q -70 -19 -80 -26 q 28 55 -38 6 q 44 136 21 100 q 147 207 77 192 q 262 209 195 219 q 323 248 284 222 q 426 330 358 274 q 531 417 463 359 q 624 621 587 564 q 806 772 693 728 q 823 777 810 774 q 845 769 843 782 l 847 760 m 801 729 q 706 669 756 725 q 595 480 632 586 l 589 461 l 676 541 q 759 648 716 584 q 802 726 802 711 q 801 729 802 728 m 522 378 l 506 364 q 448 317 484 348 q 297 201 367 251 q 313 194 299 200 q 324 177 327 184 q 312 169 322 172 q 296 169 303 167 q 258 176 282 172 q 68 49 194 132 q 113 -16 81 7 q 192 -36 142 -36 q 280 -20 236 -36 q 418 73 368 11 q 480 194 456 120 q 512 318 495 256 q 522 378 512 303 m 224 181 q 169 179 180 181 q 66 80 77 161 q 224 181 119 113 z "},"":{"ha":343,"x_min":-16,"x_max":460,"o":"m 452 455 q 357 397 431 444 q 286 367 308 367 q 245 404 276 367 q 210 448 228 426 q 205 464 205 455 q 219 482 205 482 q 229 479 223 482 q 260 446 231 477 q 294 419 285 419 q 446 479 318 419 q 460 468 460 483 q 452 455 460 459 m 381 99 q 342 58 362 79 q 276 10 302 20 q 214 -6 258 4 q 133 -31 182 -33 q 84 4 83 -30 q 131 35 85 35 q 180 20 129 35 q 219 92 209 38 q 219 203 219 136 q 223 236 220 213 q -4 53 141 169 q -10 54 -5 52 q -16 57 -15 56 q -13 69 -15 67 q 165 212 89 153 q 225 265 191 235 q 249 300 231 283 q 286 316 268 316 q 305 297 301 317 q 292 272 307 281 q 254 250 277 264 q 244 206 244 235 q 249 153 244 190 q 254 101 254 117 q 229 17 254 46 q 272 30 254 20 q 376 106 342 64 q 382 106 379 110 q 381 99 385 103 z "},"":{"ha":552,"x_min":227,"x_max":577,"o":"m 517 621 q 446 419 487 544 q 438 416 445 416 q 419 421 429 416 q 410 432 408 427 q 481 633 433 499 l 545 807 q 560 819 549 819 q 577 803 577 819 q 517 621 577 780 m 420 328 q 348 131 398 268 q 265 -94 315 42 q 247 -106 260 -106 q 227 -88 227 -106 q 228 -81 227 -84 l 311 145 q 384 342 335 206 q 394 346 386 346 q 420 328 427 346 z "},"":{"ha":929,"x_min":6,"x_max":1001,"o":"m 980 594 q 1001 484 1001 546 q 893 168 1001 323 q 754 34 839 90 q 558 -31 655 -31 q 495 -23 526 -31 q 373 20 494 -23 q 140 -94 268 -72 q 30 -82 60 -106 q 6 -31 6 -63 q 29 25 6 1 q 181 81 81 81 q 283 69 224 81 q 356 51 317 63 q 547 309 460 142 q 513 308 536 309 q 476 308 491 308 q 441 308 461 308 q 409 309 420 309 q 391 325 391 309 q 409 342 391 340 q 476 344 428 344 q 564 347 502 345 q 567 347 565 347 q 657 529 613 433 q 564 513 608 513 q 495 524 527 513 q 434 587 433 545 q 532 714 436 661 q 712 763 617 759 q 882 715 808 767 q 980 594 947 669 m 945 585 q 701 731 860 744 q 561 693 631 725 q 471 594 471 651 q 517 548 471 560 q 569 542 540 542 q 671 561 624 542 q 715 661 696 616 q 727 668 718 669 q 736 657 736 667 q 734 651 736 655 q 702 576 723 625 q 745 619 732 594 q 762 630 749 630 q 770 616 773 629 q 732 564 769 585 q 686 540 709 550 q 600 348 658 474 l 667 348 q 694 331 694 349 q 675 310 694 314 q 581 309 644 310 q 444 96 523 201 q 392 38 419 63 q 471 12 453 17 q 557 -1 517 -1 q 681 30 621 -2 q 895 240 815 101 q 967 483 967 364 q 945 585 967 545 m 334 33 q 199 56 263 56 q 129 50 165 56 q 57 11 75 42 q 48 -18 48 -4 q 71 -50 48 -40 q 119 -58 91 -58 q 264 -16 194 -58 q 334 33 306 10 z "},"":{"ha":611,"x_min":97,"x_max":697,"o":"m 694 742 q 638 673 686 731 q 655 526 665 607 q 498 163 631 337 q 202 -22 356 -22 q 123 19 152 -22 q 97 110 97 56 q 187 285 97 206 q 370 360 273 360 q 487 240 487 360 q 471 173 487 211 q 615 529 589 325 q 609 638 622 587 q 568 588 601 629 q 524 537 554 572 q 510 531 519 531 q 494 546 494 531 q 498 558 494 552 q 540 611 510 574 q 594 680 556 631 q 474 800 556 763 q 469 808 469 803 q 484 820 469 827 q 619 710 571 787 q 660 759 635 731 q 681 772 669 772 q 697 753 697 772 q 694 742 697 747 m 441 227 q 365 325 441 320 q 215 267 285 330 q 144 122 144 204 q 218 25 144 25 q 406 104 318 25 q 441 227 441 165 z "},"":{"ha":455,"x_min":-19,"x_max":607,"o":"m 603 763 q 433 640 530 701 q 422 641 425 634 q 426 654 419 647 q 569 797 472 700 q 579 800 573 800 q 598 791 589 800 q 607 772 607 782 q 603 763 607 767 m 595 580 q 580 543 591 569 q 564 504 575 530 q 328 -26 451 243 q 490 108 411 30 q 493 110 492 109 q 498 107 494 109 q 497 102 501 106 q 402 12 479 81 q 306 -71 325 -58 l 226 -241 q 127 -444 141 -418 q 14 -621 74 -544 q -9 -635 4 -639 q -18 -616 -19 -632 q 83 -316 -4 -505 q 211 -131 121 -234 q 285 -56 239 -98 q 333 56 301 -19 q 391 184 357 112 q 128 -25 267 -6 q 59 49 59 -26 q 93 180 59 104 q 167 328 112 224 q 236 476 215 419 q 281 653 281 597 q 256 719 281 699 q 173 726 223 744 q 94 689 146 717 q 43 631 43 650 q 44 623 43 627 q 58 615 47 617 q 79 620 69 614 q 85 621 83 623 q 87 617 88 619 q 81 611 87 611 q 56 604 70 604 q 28 624 28 604 q 134 735 28 673 q 223 762 181 762 q 276 748 254 762 q 308 654 311 727 q 258 474 306 600 q 164 271 244 435 q 97 84 107 154 q 106 39 94 58 q 147 20 120 17 q 385 213 278 37 q 485 401 408 251 q 567 587 534 497 q 583 600 571 600 q 595 580 604 600 m 257 -119 q 194 -192 219 -155 q 102 -351 161 -243 q 52 -459 77 -406 q 18 -569 27 -519 q 117 -405 68 -498 q 202 -232 159 -319 q 257 -119 226 -185 z "},"":{"ha":356,"x_min":-380,"x_max":413,"o":"m 404 406 q 234 283 331 344 q 223 284 226 278 q 227 297 219 291 q 370 441 273 344 q 380 444 374 444 q 399 435 390 444 q 408 416 408 426 q 404 406 408 410 m 409 108 q 407 102 413 106 q 305 18 374 71 q 105 -125 227 -43 q -59 -383 13 -277 q -288 -642 -186 -570 q -334 -659 -317 -659 q -378 -619 -376 -659 q -333 -493 -380 -567 q -207 -341 -308 -452 q 18 -154 -128 -252 q 96 -100 44 -135 q 242 130 144 -23 q 48 18 129 21 q 19 27 31 17 q 10 53 8 38 q 56 154 14 87 q 111 231 86 203 q 132 250 120 243 q 148 252 140 255 q 151 245 149 249 q 144 219 155 235 q 102 160 116 181 q 53 68 67 106 q 53 54 50 61 q 64 46 56 46 q 313 243 149 50 q 323 248 318 248 q 332 239 332 248 q 330 231 332 235 q 134 -75 258 122 q 289 25 199 -33 q 404 107 364 73 q 409 108 406 110 m 64 -151 q 23 -179 49 -161 q -188 -352 -113 -269 q -294 -485 -239 -407 q -334 -588 -334 -543 q -331 -606 -334 -598 q -317 -614 -329 -613 q -294 -607 -304 -615 q -81 -375 -195 -543 q 64 -151 -19 -285 z "},"":{"ha":593,"x_min":-16,"x_max":729,"o":"m 718 716 q 729 644 729 683 q 694 510 729 575 q 573 344 642 417 q 336 228 461 227 q 245 262 280 228 q 182 155 223 223 q 121 60 141 86 q 48 -21 85 8 q 24 -30 36 -31 q 6 -19 13 -29 q 6 86 -16 18 q 18 92 8 95 q 25 81 23 89 q 34 21 23 30 q 52 29 39 18 q 138 131 100 70 q 230 283 184 204 q 219 366 211 317 q 250 425 223 397 q 309 450 278 453 q 319 448 316 449 q 418 635 352 510 q 494 778 442 683 q 344 722 435 768 q 230 636 262 681 q 215 596 209 607 q 210 589 215 591 q 204 590 206 586 q 212 644 194 612 q 324 741 237 693 q 516 820 446 808 q 569 904 550 876 q 637 973 611 963 q 651 968 648 978 q 643 954 654 959 q 550 822 610 931 q 619 815 584 825 q 718 716 690 794 m 676 539 q 696 631 696 585 q 673 716 696 679 q 594 777 643 765 q 529 782 566 784 q 519 764 526 778 q 345 435 453 623 q 382 384 369 418 q 378 369 386 375 q 361 376 369 364 q 332 411 352 388 l 268 299 q 354 265 295 269 q 528 345 429 260 q 676 539 628 430 m 306 421 q 266 400 283 421 q 247 356 248 380 q 253 324 247 345 l 306 421 z "},"":{"ha":376,"x_min":-454,"x_max":438,"o":"m 433 102 q 331 18 365 39 q 161 -21 263 -25 q 92 -7 121 -19 q 8 -19 39 -27 q -108 -267 -31 -104 q -192 -439 -129 -306 q -419 -885 -267 -586 l -421 -883 l -426 -897 q -443 -905 -430 -909 q -451 -889 -454 -900 l -450 -888 l -448 -878 q -223 -423 -379 -720 q 203 511 3 8 q 212 518 204 514 q 224 515 219 519 q 152 317 214 477 q 73 116 96 169 q 312 278 168 229 q 347 281 329 283 q 369 265 363 278 q 366 228 375 254 q 285 118 350 183 q 144 12 215 46 q 178 2 158 2 q 316 27 273 2 q 430 107 379 64 q 432 108 431 109 q 433 102 438 106 m 334 241 q 329 248 336 246 q 316 247 322 249 q 34 36 157 194 q 108 31 65 44 q 181 65 144 38 q 334 241 307 154 z "},"":{"ha":423,"x_min":136,"x_max":439,"o":"m 420 333 q 310 332 380 333 q 221 331 247 331 q 186 332 206 331 q 155 332 166 332 q 136 348 136 332 q 155 365 136 363 q 221 368 173 367 q 309 370 247 369 q 412 371 353 370 q 439 354 439 372 q 420 333 439 337 z "},"":{"ha":423,"x_min":184,"x_max":456,"o":"m 444 441 q 405 391 439 434 q 360 335 371 348 q 341 311 353 326 q 360 284 350 298 q 420 204 384 253 q 422 194 422 199 q 404 174 422 174 q 392 181 396 174 q 330 258 369 210 q 313 279 319 270 q 290 249 306 269 q 208 150 258 210 q 194 143 201 143 q 184 156 184 143 q 191 174 184 166 q 269 275 212 203 q 294 305 278 285 q 275 329 287 312 q 206 419 247 364 q 204 428 204 423 q 225 451 204 451 q 243 440 235 451 q 307 356 268 407 q 319 338 310 353 q 340 363 326 346 q 429 475 375 407 q 448 481 439 484 q 456 468 456 479 q 444 441 456 455 z "},"":{"ha":264,"x_min":89,"x_max":370,"o":"m 370 727 q 365 713 370 724 q 356 700 359 707 q 122 262 196 432 q 107 248 120 248 q 96 254 103 248 q 90 263 89 259 q 177 436 94 273 q 313 675 194 468 q 229 661 278 661 q 223 673 220 663 q 233 680 225 677 q 291 694 278 689 q 346 728 325 705 q 362 734 356 737 q 370 727 369 733 z "},"":{"ha":491,"x_min":121,"x_max":608,"o":"m 606 669 q 608 646 608 657 q 582 570 608 619 q 369 334 509 434 q 373 331 371 333 q 460 256 417 294 q 560 202 511 214 q 570 187 578 202 q 554 178 568 171 q 447 231 499 186 q 358 309 403 269 q 344 318 350 315 q 323 304 341 315 q 240 256 266 269 q 151 228 191 231 q 121 256 121 225 q 125 274 121 266 q 274 357 162 351 q 347 346 316 360 q 555 576 475 439 q 575 658 579 618 q 557 681 573 675 q 510 682 535 688 q 419 590 475 616 q 392 593 399 585 q 398 626 382 605 q 408 638 401 630 q 497 701 444 681 q 521 764 503 714 q 531 772 525 775 q 539 760 544 772 q 521 706 530 729 q 569 705 546 712 q 606 669 598 695 m 461 655 q 417 619 456 654 q 430 622 421 617 q 461 655 455 639 m 319 329 q 272 335 298 335 q 156 268 188 334 q 157 264 156 266 q 313 324 203 263 q 319 329 315 326 z "},"":{"ha":417,"x_min":105,"x_max":524,"o":"m 522 706 q 456 613 518 659 q 479 600 471 606 q 509 531 509 575 q 483 442 509 490 q 277 250 412 312 q 199 232 238 232 q 138 247 166 232 q 105 295 105 265 q 148 381 105 336 q 167 382 159 386 q 169 363 180 373 q 146 302 144 331 q 204 262 150 262 q 268 277 235 262 q 457 450 393 334 q 479 523 479 489 q 457 576 479 557 q 428 592 445 586 q 343 553 376 562 q 314 558 325 546 q 313 573 313 561 q 366 614 321 602 q 428 619 398 622 l 429 620 q 489 703 485 662 q 476 709 487 709 q 372 663 412 700 q 367 656 370 661 q 343 658 353 648 q 345 672 340 667 l 347 675 q 408 737 366 696 q 421 740 414 743 q 429 731 429 738 q 427 724 429 728 q 478 740 455 736 q 511 733 498 743 q 522 706 524 723 m 386 595 q 382 594 385 595 q 379 594 381 594 q 350 581 362 592 q 386 595 367 585 z "},"":{"ha":718,"x_min":35,"x_max":756,"o":"m 407 727 q 402 713 407 724 q 394 700 396 707 q 159 262 233 432 q 144 248 157 248 q 133 254 140 248 q 127 263 126 259 q 214 436 131 273 q 350 675 231 468 q 266 661 315 661 q 260 673 257 663 q 270 680 262 677 q 328 694 315 689 q 383 728 362 705 q 399 734 393 737 q 407 727 406 733 m 722 723 l 696 694 l 663 660 q 340 309 470 462 q 74 -21 244 197 q 47 -29 61 -38 q 43 -7 35 -22 q 290 290 106 76 q 523 555 352 362 q 702 742 573 609 q 720 742 711 751 q 722 723 731 731 m 754 446 q 756 424 756 435 q 731 348 756 397 q 518 112 657 212 q 521 109 519 111 q 608 34 565 72 q 708 -20 659 -8 q 719 -35 726 -20 q 702 -44 716 -51 q 595 8 647 -36 q 506 87 551 47 q 493 95 498 93 q 471 81 489 93 q 388 33 414 46 q 299 6 339 9 q 269 33 269 3 q 273 52 269 44 q 422 135 310 129 q 495 124 464 138 q 703 354 623 217 q 723 436 727 395 q 706 458 721 453 q 658 460 683 466 q 568 368 623 394 q 540 370 547 363 q 546 404 531 382 q 556 416 549 407 q 645 479 593 458 q 669 542 651 492 q 680 550 673 553 q 687 538 693 550 q 669 484 678 506 q 718 482 694 490 q 754 446 746 473 m 609 432 q 565 396 605 431 q 578 400 569 394 q 609 432 603 417 m 467 106 q 420 113 446 113 q 305 45 336 112 q 306 42 305 44 q 461 102 351 41 q 464 104 462 103 q 467 106 466 106 z "},"":{"ha":718,"x_min":35,"x_max":731,"o":"m 407 727 q 402 713 407 724 q 394 700 396 707 q 159 262 233 432 q 144 248 157 248 q 133 254 140 248 q 127 263 126 259 q 214 436 131 273 q 350 675 231 468 q 266 661 315 661 q 260 673 257 663 q 270 680 262 677 q 328 694 315 689 q 383 728 362 705 q 399 734 393 737 q 407 727 406 733 m 722 723 l 696 694 l 663 660 q 340 309 470 462 q 74 -21 244 197 q 47 -29 61 -38 q 43 -7 35 -22 q 290 290 106 76 q 523 555 352 362 q 702 742 573 609 q 720 742 711 751 q 722 723 731 731 m 721 201 q 715 181 728 189 q 578 170 654 153 q 531 79 561 138 q 503 -2 505 26 q 484 -19 502 -19 q 467 -7 467 -25 q 505 89 472 32 q 552 177 528 128 q 492 198 532 183 q 455 205 476 205 q 371 184 414 205 q 341 164 363 178 q 322 155 323 155 q 308 165 309 155 q 315 181 305 175 l 333 191 q 376 219 346 200 q 506 306 465 271 q 603 425 573 360 q 608 465 612 445 q 580 479 605 484 q 569 487 574 479 q 576 496 569 493 q 594 499 583 499 q 632 474 623 499 q 631 415 644 444 q 451 232 590 323 q 502 223 476 232 q 566 204 533 212 q 669 401 601 271 q 683 409 670 411 q 692 392 699 407 q 592 198 657 328 q 703 208 650 188 q 721 201 714 214 z "},"":{"ha":832,"x_min":56,"x_max":835,"o":"m 474 706 q 407 613 469 659 q 431 600 423 606 q 461 531 461 575 q 435 442 461 490 q 229 250 364 312 q 151 232 190 232 q 90 247 118 232 q 56 295 56 265 q 100 381 56 336 q 119 382 111 386 q 120 363 131 373 q 98 302 95 331 q 156 262 102 262 q 219 277 187 262 q 409 450 344 334 q 431 523 431 489 q 409 576 431 557 q 380 592 397 586 q 294 553 328 562 q 266 558 277 546 q 265 573 265 561 q 318 614 273 602 q 380 619 350 622 l 381 620 q 441 703 437 662 q 428 709 439 709 q 324 663 364 700 q 319 656 322 661 q 294 658 305 648 q 297 672 292 667 l 299 675 q 360 737 318 696 q 373 740 366 743 q 381 731 381 738 q 379 724 381 728 q 430 740 406 736 q 463 733 450 743 q 474 706 476 723 m 827 723 l 801 694 l 768 660 q 444 309 575 462 q 179 -21 349 197 q 152 -29 166 -38 q 147 -7 140 -22 q 394 290 210 76 q 628 555 456 362 q 806 742 678 609 q 825 742 816 751 q 827 723 835 731 m 826 201 q 819 181 832 189 q 682 170 758 153 q 636 79 666 138 q 607 -2 609 26 q 589 -19 606 -19 q 571 -7 571 -25 q 609 89 577 32 q 656 177 632 128 q 596 198 637 183 q 559 205 581 205 q 476 184 519 205 q 445 164 468 178 q 427 155 428 155 q 413 165 414 155 q 419 181 409 175 l 438 191 q 481 219 451 200 q 611 306 569 271 q 707 425 678 360 q 713 465 717 445 q 684 479 709 484 q 674 487 678 479 q 681 496 674 493 q 698 499 688 499 q 737 474 728 499 q 735 415 748 444 q 556 232 694 323 q 606 223 581 232 q 670 204 638 212 q 774 401 706 271 q 788 409 775 411 q 796 392 804 407 q 696 198 763 328 q 807 208 755 188 q 826 201 819 214 m 338 595 q 334 594 337 595 q 331 594 332 594 q 302 581 314 592 q 338 595 319 585 z "},"":{"ha":513,"x_min":31,"x_max":891,"o":"m 891 -103 q 851 -197 891 -156 q 758 -238 811 -238 q 624 -212 677 -238 q 531 -144 593 -196 q 459 -70 503 -119 q 388 5 413 -19 q 307 82 363 31 q 231 15 290 65 q 112 -54 153 -54 q 52 -27 74 -54 q 31 41 31 -1 q 81 132 31 96 q 194 167 130 167 q 311 129 260 167 q 417 267 359 181 q 407 264 413 266 q 344 243 387 257 q 337 241 341 241 q 321 256 321 241 q 332 273 321 267 l 395 298 q 451 319 425 310 q 505 404 469 347 q 406 387 448 387 q 286 416 341 387 q 216 499 224 447 q 227 513 214 513 q 239 503 237 513 q 408 428 252 428 q 534 453 465 428 q 594 554 573 515 q 685 674 628 619 q 811 740 754 740 q 869 689 869 740 q 841 618 869 654 q 789 566 831 605 q 551 419 694 477 q 501 340 532 388 q 573 367 544 358 q 588 370 581 370 q 606 353 606 370 q 594 334 606 341 q 491 295 556 320 q 465 286 482 292 q 399 190 452 266 q 333 109 369 145 q 407 27 358 81 q 549 -120 452 -24 q 628 -175 601 -164 q 745 -192 668 -192 q 827 -170 791 -192 q 867 -107 867 -146 q 842 -80 867 -80 q 790 -117 795 -80 q 786 -134 789 -123 q 774 -142 783 -144 q 766 -126 764 -138 l 768 -112 q 842 -38 778 -38 q 877 -60 863 -38 q 891 -103 891 -81 m 833 673 q 801 698 833 698 q 694 644 750 698 q 619 540 650 599 q 581 470 606 517 q 771 584 699 519 q 813 621 792 603 q 833 673 833 644 m 283 100 q 183 128 239 128 q 56 41 56 128 q 115 -13 56 -13 q 214 38 150 -13 q 283 100 242 60 z "},"":{"ha":586,"x_min":6,"x_max":841,"o":"m 829 782 q 704 513 791 660 q 518 254 619 370 q 491 -94 483 110 q 474 -115 492 -115 q 456 -102 461 -115 q 456 81 446 -65 q 469 206 460 156 q 116 -30 272 19 q 76 -35 98 -35 q 14 -12 27 -35 q 6 22 6 3 q 27 84 6 54 q 81 127 48 115 q 159 146 123 143 q 178 137 173 150 q 164 120 178 124 q 123 109 144 115 q 74 81 91 99 q 53 37 53 59 q 66 11 53 21 q 130 6 95 -6 q 479 255 291 67 q 515 374 494 318 q 804 803 624 660 q 819 808 813 809 q 829 782 841 806 m 781 750 q 536 319 616 569 q 781 750 731 564 z "},"":{"ha":427,"x_min":-11,"x_max":767,"o":"m 755 855 q 660 797 734 844 q 589 767 611 767 q 548 804 579 767 q 513 848 531 826 q 507 864 507 855 q 521 882 507 882 q 531 879 526 882 q 563 846 534 877 q 596 819 588 819 q 749 879 620 819 q 763 868 763 883 q 755 855 763 859 m 755 710 q 566 542 662 650 q 396 347 481 444 q 204 146 329 279 q 133 67 180 119 q 239 -9 184 52 q 322 -94 304 -82 q 544 -158 422 -158 q 619 -157 595 -158 l 644 -156 q 655 -168 655 -159 q 639 -181 655 -180 l 619 -183 q 538 -190 552 -190 q 304 -122 411 -190 q 213 -39 296 -118 q 94 23 156 16 q 35 -13 57 -11 q -6 5 -11 -18 q 25 47 -3 22 q 76 72 53 71 q 89 72 76 72 q 378 367 189 167 q 522 534 405 394 q 673 690 605 632 q 610 681 631 681 q 503 694 571 681 q 411 706 435 706 q 308 677 379 706 q 300 675 304 675 q 287 685 287 675 q 305 704 287 695 q 408 768 311 706 q 419 770 413 770 q 435 760 435 770 q 430 752 435 756 q 416 742 425 749 l 424 742 q 513 727 448 742 q 616 712 577 712 q 685 720 654 712 q 746 737 717 729 q 767 727 767 742 q 755 710 767 718 z "},"":{"ha":383,"x_min":-406,"x_max":457,"o":"m 449 382 q 355 325 429 372 q 283 294 306 294 q 243 331 273 294 q 207 376 225 354 q 202 392 202 382 q 216 410 202 410 q 226 406 220 410 q 257 374 229 405 q 291 346 282 346 q 444 406 315 346 q 457 395 457 411 q 449 382 457 387 m 429 99 q 425 88 433 94 q 163 -157 342 12 q -35 -662 166 -341 q -124 -811 -80 -736 q -222 -956 -178 -900 q -293 -1045 -257 -1000 q -372 -1096 -336 -1095 q -405 -1062 -404 -1097 q -370 -875 -406 -994 q -255 -625 -327 -734 q -174 -503 -215 -564 q -83 -383 -127 -432 q 130 -164 6 -283 q 119 -90 128 -122 q 36 -47 108 -47 q 11 -49 23 -47 q -19 -45 -17 -54 q -14 -27 -23 -33 l 1 -19 q 175 66 88 23 q 317 192 267 119 q 317 212 329 209 q 203 187 287 219 q 47 97 107 150 q 39 98 43 94 q 40 106 37 103 q 189 206 97 163 q 330 248 276 248 q 348 246 341 248 q 366 232 355 244 q 367 194 374 214 q 347 167 362 181 q 73 -14 269 77 q 157 -94 144 -27 q 162 -132 160 -108 q 416 99 297 -4 q 429 99 423 106 m 130 -190 q -65 -396 6 -314 q -225 -629 -104 -443 q -351 -976 -306 -755 q -354 -1005 -354 -991 q -343 -1026 -353 -1026 q -240 -935 -310 -1025 q 12 -534 -125 -789 q 130 -190 125 -325 z "},"":{"ha":609,"x_min":13,"x_max":640,"o":"m 636 790 q 601 681 640 735 q 467 538 557 619 q 447 338 445 435 q 536 369 498 369 q 554 367 546 369 q 580 315 580 353 q 560 236 580 279 q 468 110 531 171 q 515 -95 487 -9 q 511 -113 519 -107 q 496 -108 502 -116 q 444 88 466 -37 q 285 -12 371 25 q 161 -39 223 -39 q 38 11 78 -39 q 13 89 13 43 q 67 236 13 161 q 168 344 110 296 q 289 431 229 387 q 441 550 341 469 q 525 768 467 682 q 606 826 565 826 q 636 790 633 826 m 601 763 q 592 781 602 781 q 539 740 563 781 q 476 582 496 669 q 570 683 524 628 q 601 763 597 716 m 439 119 q 421 285 425 212 q 387 258 412 279 q 368 256 379 250 q 369 271 368 269 q 419 319 389 295 q 433 509 417 408 q 396 478 420 498 q 217 348 306 413 q 72 174 120 270 q 55 103 55 139 q 107 14 55 37 q 193 -4 148 -4 q 278 15 238 -4 q 439 119 376 61 m 534 245 q 546 292 546 269 q 525 329 546 319 q 515 330 520 330 q 448 304 490 330 q 463 143 451 231 q 534 245 506 188 z "},"":{"ha":594,"x_min":99,"x_max":650,"o":"m 647 305 q 500 213 620 213 q 362 265 427 213 q 198 206 274 206 q 99 265 99 206 q 106 298 99 280 q 158 356 119 332 q 227 379 194 379 q 310 354 269 379 q 378 302 325 345 q 385 306 383 304 q 581 378 512 378 q 630 363 609 378 q 650 322 650 347 q 647 305 650 314 m 617 306 q 607 331 621 320 q 575 342 593 342 q 399 286 499 342 l 403 284 q 509 250 451 250 q 617 306 600 250 m 343 281 q 285 327 297 319 q 220 349 253 349 q 175 335 198 349 q 141 296 149 319 q 137 277 137 285 q 207 243 137 243 q 343 281 273 243 z "},"":{"ha":570,"x_min":108,"x_max":662,"o":"m 656 523 q 283 316 532 455 q 183 259 256 301 q 209 254 195 256 q 319 224 245 244 q 513 183 394 209 q 528 169 520 181 q 519 154 529 159 q 503 150 514 149 q 311 192 434 164 q 191 220 272 202 q 130 236 189 220 q 112 253 112 241 q 131 277 112 267 l 263 348 q 644 543 392 408 q 650 544 646 544 q 662 532 662 544 q 656 523 662 527 m 393 56 q 282 55 352 56 q 194 54 219 54 q 158 55 179 54 q 127 55 138 55 q 108 70 108 55 q 127 87 108 85 q 194 90 145 89 q 281 93 219 91 q 384 94 325 93 q 411 76 411 94 q 393 56 411 59 z "},"":{"ha":570,"x_min":73,"x_max":623,"o":"m 606 323 q 623 306 623 319 q 605 282 623 293 l 472 211 q 92 17 344 151 q 85 15 89 15 q 73 27 73 15 q 79 36 73 32 q 452 244 203 105 q 552 300 479 258 q 526 306 524 306 q 416 335 490 316 q 222 376 343 351 q 207 390 216 379 q 217 406 206 400 q 232 409 221 410 q 424 368 301 395 q 544 339 463 357 q 606 323 546 339 m 550 56 q 440 55 509 56 q 351 54 377 54 q 316 55 336 54 q 284 55 296 55 q 266 70 266 55 q 284 87 266 85 q 351 90 303 89 q 439 93 377 91 q 542 94 482 93 q 569 76 569 94 q 550 56 569 59 z "},"":{"ha":611,"x_min":111,"x_max":671,"o":"m 216 -22 q 137 19 166 -22 q 111 110 111 56 q 201 285 111 206 q 384 360 287 360 q 501 240 501 360 q 485 173 501 211 q 587 360 544 250 q 631 569 631 477 q 589 715 631 650 q 488 800 550 772 q 482 808 482 803 q 498 820 482 826 q 617 733 570 793 q 671 568 671 663 q 533 194 671 392 q 216 -22 384 -22 m 455 227 q 379 325 455 320 q 229 267 299 330 q 158 122 158 204 q 231 25 158 25 q 420 104 331 25 q 455 227 455 165 z "},"":{"ha":777,"x_min":53,"x_max":744,"o":"m 744 208 q 700 -17 717 106 q 660 -10 691 -16 q 622 -6 636 -6 l 111 -6 q 81 -8 99 -6 q 53 -11 62 -11 l 407 394 l 53 856 q 160 849 137 849 l 666 849 l 667 688 l 650 688 q 614 769 631 753 q 494 803 581 803 l 230 803 l 505 438 l 207 96 l 582 96 q 668 119 640 96 q 719 208 693 142 l 744 208 z "},"":{"ha":831,"x_min":41,"x_max":744,"o":"m 744 -2 l 436 -2 l 435 19 q 506 34 485 19 q 533 102 533 52 l 533 803 l 252 803 l 252 102 q 279 34 252 53 q 349 19 300 19 l 350 -2 l 42 -2 l 41 19 q 112 33 91 19 q 138 102 138 52 l 138 736 q 42 835 138 835 l 44 858 l 742 858 l 742 835 q 647 736 647 835 l 647 102 q 673 34 647 53 q 744 19 694 19 l 744 -2 z "},"":{"ha":653,"x_min":55,"x_max":580,"o":"m 580 167 q 555 60 580 105 q 507 11 534 24 q 463 -3 486 -3 q 422 10 441 -3 q 374 84 393 31 q 367 256 356 138 l 382 419 l 267 419 q 222 66 247 171 q 156 -6 205 -6 q 123 6 140 -6 q 103 33 106 19 q 102 45 102 40 q 127 100 102 65 q 156 136 142 119 q 178 186 174 160 l 208 419 l 158 419 q 94 385 111 419 l 71 355 l 55 355 q 100 453 62 382 q 194 506 137 506 l 571 506 l 571 419 l 446 419 q 432 181 432 299 q 460 107 432 131 q 497 90 475 90 q 532 104 515 90 q 558 167 549 118 l 580 167 z "},"":{"ha":405,"x_min":22,"x_max":347,"o":"m 319 870 q 333 861 319 870 q 347 823 347 852 q 331 784 347 801 q 289 767 314 767 q 230 792 259 767 q 249 330 249 528 q 181 -142 249 -56 q 106 -170 157 -170 q 75 -164 90 -170 q 22 -90 22 -139 q 36 -50 22 -67 q 72 -33 50 -33 q 138 -69 105 -33 q 149 -77 144 -77 q 160 25 163 -77 q 152 433 152 281 q 171 757 152 660 q 232 875 188 849 q 268 888 249 888 q 319 870 290 888 z "},"":{"ha":1033,"x_min":177,"x_max":1031,"o":"m 1031 -2 l 669 -2 l 694 182 q 792 251 759 214 q 863 477 863 331 q 821 674 863 595 q 606 797 757 797 q 385 674 450 797 q 344 477 344 596 q 519 182 344 257 l 536 -2 l 178 -2 l 177 196 l 197 196 q 222 139 206 154 q 277 124 237 124 l 469 124 l 467 156 q 298 246 366 184 q 200 477 200 336 q 292 712 200 612 q 607 833 403 833 q 911 718 800 833 q 1007 477 1008 617 q 910 246 1006 336 q 742 156 843 183 l 741 124 l 933 124 q 987 141 971 124 q 1010 196 1001 155 l 1031 196 l 1031 -2 z "},"":{"ha":497,"x_min":81,"x_max":717,"o":"m 707 806 q 152 -23 372 536 q 133 -39 147 -39 q 120 -23 120 -39 q 107 166 121 52 q 85 309 96 265 q 93 326 81 326 q 104 314 101 326 q 131 215 118 265 q 154 75 152 133 q 344 420 228 246 q 695 817 506 665 q 711 824 705 824 q 717 819 717 824 q 707 806 717 814 z "},"":{"ha":495,"x_min":96,"x_max":523,"o":"m 519 392 l 512 382 q 420 347 462 347 q 344 364 381 347 q 305 387 324 376 q 254 401 279 401 q 212 389 232 401 q 161 358 197 385 l 149 352 q 137 355 142 348 q 140 367 133 361 l 150 375 q 206 407 167 388 q 254 421 237 421 q 355 388 290 421 q 420 374 391 374 q 494 403 459 374 l 503 408 q 512 411 507 411 q 523 401 523 411 q 519 392 523 396 m 482 284 l 475 275 q 383 240 425 240 q 307 256 344 240 q 268 280 287 269 q 217 294 242 294 q 175 281 195 294 q 124 251 160 278 l 112 244 q 100 247 105 241 q 103 259 96 254 l 113 268 q 169 300 130 280 q 217 314 200 314 q 318 281 253 314 q 383 267 354 267 q 457 295 422 267 l 466 301 q 475 304 470 304 q 486 294 486 304 q 482 284 486 289 z "},"":{"ha":846,"x_min":42,"x_max":811,"o":"m 811 -3 l 42 -3 l 449 878 l 811 -3 m 652 60 l 403 660 l 125 60 l 652 60 z "},"":{"ha":636,"x_min":28,"x_max":597,"o":"m 597 406 l 313 -27 l 28 406 l 313 838 l 597 406 m 480 406 l 313 657 l 147 406 l 313 155 l 480 406 z "},"":{"ha":395,"x_min":-94,"x_max":786,"o":"m 778 830 l 752 801 l 719 767 q -56 -132 349 387 q -82 -140 -69 -149 q -87 -119 -94 -133 q 253 290 22 20 q 581 659 362 415 q 757 848 631 714 q 776 848 767 857 q 778 830 786 838 z "},"":{"ha":465,"x_min":-291,"x_max":535,"o":"m 535 365 q 528 333 535 354 q 501 319 514 316 q 484 344 479 323 q 503 370 484 345 l 513 381 q 522 387 518 385 q 528 387 524 391 q 535 365 532 383 m 517 90 q 417 7 449 28 q 347 -15 379 -17 q 299 0 317 -13 q 288 67 275 22 q 228 18 249 31 q 163 -3 196 -3 l 149 -3 q 119 -94 142 -38 q 13 -315 75 -204 q -87 -463 -22 -379 q -266 -637 -187 -593 q -283 -637 -276 -643 q -288 -619 -291 -631 q -177 -344 -258 -506 q -24 -62 -137 -264 q 41 46 -6 -29 q 12 126 12 81 q 77 178 12 182 q 113 158 96 176 q 286 420 185 279 q 435 643 316 462 q 476 694 446 659 q 502 694 491 708 q 496 664 509 685 q 361 465 470 620 q 206 252 301 380 q 150 168 196 234 q 129 137 144 157 q 155 44 155 94 q 153 16 155 36 l 163 16 q 215 30 190 16 q 297 89 251 49 q 315 117 305 103 q 373 197 332 143 q 409 244 382 210 q 431 265 415 250 q 455 256 444 278 q 446 238 456 251 q 431 219 443 232 q 325 65 355 127 q 321 49 321 58 q 358 14 321 14 q 403 24 385 14 q 507 96 463 58 q 516 96 511 99 q 517 90 521 94 m 105 145 q 77 159 93 159 q 43 126 43 159 q 56 69 43 94 q 105 145 72 94 m 136 44 q 119 123 136 87 q 71 49 102 97 q 134 18 96 24 q 136 44 136 36 m 131 -1 q 59 29 89 6 q 9 -57 30 -19 q -130 -300 -60 -179 q -245 -569 -206 -438 q -246 -577 -248 -577 q -240 -575 -244 -577 q 19 -261 -79 -451 q 105 -78 70 -163 q 131 -1 122 -34 z "},"":{"ha":486,"x_min":-291,"x_max":870,"o":"m 870 838 q 766 634 869 769 q 514 370 706 556 l 449 307 q 397 225 426 271 q 337 70 344 121 q 374 17 330 17 q 419 27 401 17 q 525 101 478 60 q 533 101 529 104 q 534 94 539 98 q 432 10 464 31 q 363 -12 397 -12 q 307 34 312 -12 q 309 86 305 59 q 228 18 281 60 q 163 -3 195 -3 l 149 -3 q 119 -94 142 -38 q 13 -315 75 -204 q -87 -463 -22 -379 q -266 -637 -187 -593 q -283 -637 -276 -643 q -288 -619 -291 -631 q -177 -344 -258 -506 q -24 -62 -137 -264 q 41 46 -6 -29 q 12 126 12 81 q 77 178 12 182 q 113 158 96 176 q 286 420 185 279 q 435 643 316 462 q 476 694 446 659 q 502 694 491 708 q 496 664 509 685 q 361 465 470 620 q 206 252 301 380 q 150 168 196 234 q 129 137 144 157 q 155 44 155 94 q 153 16 155 36 l 163 16 q 215 30 190 16 q 312 102 250 49 q 377 245 327 163 q 551 533 437 351 q 841 856 680 716 q 864 858 853 866 q 870 838 870 854 m 844 806 q 830 806 844 819 q 582 520 727 728 q 476 356 518 426 q 503 382 485 365 q 631 509 568 446 q 751 645 703 582 q 808 722 799 708 q 844 806 838 769 m 105 145 q 77 159 93 159 q 43 126 43 159 q 56 69 43 94 q 105 145 72 94 m 136 44 q 119 123 136 87 q 71 49 102 97 q 134 18 96 24 q 136 44 136 36 m 131 -1 q 59 29 89 6 q 9 -57 30 -19 q -130 -300 -60 -179 q -245 -569 -206 -438 q -246 -577 -248 -577 q -240 -575 -244 -577 q 19 -261 -79 -451 q 105 -78 70 -163 q 131 -1 122 -34 z "},"":{"ha":794,"x_min":51,"x_max":744,"o":"m 572 821 q 539 688 580 734 q 411 627 492 634 q 450 744 409 689 q 517 803 471 780 q 572 821 549 819 m 744 216 q 549 -5 641 -5 q 481 13 525 -5 q 413 30 437 30 q 351 13 394 30 q 282 -5 308 -5 q 97 191 188 -5 q 51 391 51 291 q 81 511 51 462 q 263 630 153 630 q 355 613 303 630 q 416 597 407 597 q 477 615 428 597 q 562 632 526 632 q 722 549 645 632 q 659 487 690 534 q 627 386 627 435 q 675 262 627 314 q 744 216 707 229 z "},"":{"ha":215,"x_min":19,"x_max":256,"o":"m 252 90 q 152 7 184 28 q 82 -15 114 -17 q 34 0 50 -13 q 19 37 19 14 q 50 117 19 74 q 108 197 68 143 q 144 244 118 210 q 166 265 150 250 q 190 256 179 278 q 181 238 192 251 q 167 219 178 232 q 60 65 90 127 q 56 49 56 58 q 94 14 56 14 q 138 24 120 14 q 243 96 198 58 q 251 96 246 99 q 252 90 256 94 z "},"":{"ha":403,"x_min":286,"x_max":545,"o":"m 537 744 q 371 656 453 656 q 315 691 342 656 q 289 735 294 716 q 292 756 286 746 q 306 767 298 767 q 316 758 312 767 q 379 707 337 707 q 531 768 453 707 q 543 763 541 774 q 537 744 545 752 z "},"":{"ha":215,"x_min":214,"x_max":270,"o":"m 270 365 q 263 333 270 354 q 236 319 249 316 q 219 344 214 323 q 238 370 219 345 l 248 381 q 257 387 253 385 q 263 387 259 391 q 270 365 268 383 z "},"":{"ha":359,"x_min":234,"x_max":410,"o":"m 406 731 q 380 669 410 699 q 259 628 314 606 q 241 671 234 638 q 283 732 246 701 q 344 766 313 757 q 397 755 381 775 q 406 731 405 748 m 383 731 q 380 741 382 734 q 338 739 366 750 q 304 719 332 737 q 277 692 290 707 q 270 666 270 679 q 280 654 266 657 q 356 684 310 650 q 383 731 385 714 z "},"":{"ha":440,"x_min":196,"x_max":501,"o":"m 496 735 q 327 612 423 673 q 316 613 319 606 q 319 626 312 619 q 463 769 366 672 q 472 772 467 772 q 492 763 482 772 q 501 744 501 755 q 496 735 501 739 m 381 735 q 211 612 307 673 q 200 613 203 606 q 204 626 196 619 q 347 769 250 672 q 356 772 351 772 q 376 763 367 772 q 385 744 385 755 q 381 735 385 739 z "},"":{"ha":250,"x_min":142,"x_max":305,"o":"m 303 -113 q 286 -142 305 -122 q 230 -159 265 -159 q 169 -128 196 -159 q 142 -59 142 -97 q 200 75 142 2 q 207 79 203 79 q 218 69 218 79 q 215 62 218 65 q 169 -59 169 5 q 186 -107 169 -87 q 226 -127 203 -127 q 263 -115 249 -127 q 286 -102 277 -104 q 303 -113 300 -99 z "},"":{"ha":403,"x_min":290,"x_max":545,"o":"m 537 744 q 443 686 517 733 q 371 656 394 656 q 331 693 361 656 q 295 737 313 715 q 290 753 290 744 q 304 771 290 771 q 314 768 308 771 q 345 735 317 766 q 379 707 370 707 q 531 768 403 707 q 545 756 545 772 q 537 744 545 748 z "}}}
